<svg xmlns="http://www.w3.org/2000/svg" fill="none" viewBox="0 0 93 107"><path fill="#fff" d="m.035 83.877 46 22.666 46-22.666V.543h-92v83.334z"/><path fill="#fff" d="m.035 83.877 46 22.666 46-22.666V.543h-92v83.334z"/><path fill="#000" d="M16.5 13.25v-4.9h3.14v.87l-2.18.01v1.17h1.82v.88h-1.82v1.97Zm7.97 0-1.88-4.9h.96l1.94 4.9Zm-3.87 0 1.93-4.9h.96l-1.88 4.9Zm.91-1.08v-.84h3.07v.84Zm5.26 1.08v-4.9h.96v4.03h2.16v.87Zm4.46 0v-4.9h.96v4.03h2.16v.87Zm6.65 0v-.71q0-.2.13-.44.12-.25.35-.49.22-.25.52-.46l.75-.53q.15-.11.29-.24.13-.13.22-.29.09-.16.09-.3 0-.19-.09-.33-.09-.15-.26-.23-.16-.09-.41-.09-.21 0-.37.09-.17.08-.27.22-.11.14-.15.3l-.99-.17q.07-.35.3-.65.24-.3.61-.49.37-.18.85-.18.55 0 .94.2.39.19.6.53.22.34.22.79t-.25.81q-.25.35-.68.66l-.67.48q-.2.14-.35.31-.15.17-.22.37h2.23v.84Zm6.67.08q-.6 0-1.05-.32-.46-.33-.72-.9-.26-.57-.26-1.31 0-.74.26-1.31.26-.57.71-.9.45-.32 1.05-.32.59 0 1.05.32.46.33.72.9.26.57.26 1.31 0 .74-.26 1.31-.26.57-.71.9-.46.32-1.05.32Zm0-.86q.31 0 .56-.22.25-.21.39-.59.14-.37.14-.86t-.14-.87q-.14-.38-.39-.59-.25-.21-.57-.21-.32 0-.56.21-.25.21-.38.59-.14.38-.14.87t.14.86q.13.38.38.59.25.22.57.22Zm3.32.78v-.71q0-.2.13-.44.12-.25.35-.49.22-.25.52-.46l.74-.53q.16-.11.3-.24.13-.13.22-.29.09-.16.09-.3 0-.19-.09-.33-.09-.15-.26-.23-.16-.09-.41-.09-.21 0-.37.09-.17.08-.27.22-.11.14-.15.3l-.99-.17q.07-.35.3-.65.23-.3.61-.49.37-.18.85-.18.55 0 .94.2.39.19.6.53.22.34.22.79t-.25.81q-.25.35-.68.66l-.67.48q-.2.14-.35.31-.15.17-.22.37h2.23v.84Zm6.45.08q-.34 0-.69-.11-.35-.11-.64-.33-.28-.23-.41-.56l.87-.26q.15.23.37.33.21.11.44.11.37 0 .59-.22.23-.22.23-.59 0-.35-.22-.58-.22-.23-.58-.23-.22 0-.4.1-.18.1-.28.23l-.86-.19.29-2.68h2.77v.87h-1.95l-.14 1.17q.19-.1.42-.17.23-.06.5-.06.4 0 .72.2.33.19.53.52.19.33.19.77 0 .5-.23.88-.22.38-.61.59-.39.21-.91.21Z" style="white-space:pre"/><g fill="#000" style="white-space:pre"><path d="M31.06 46V34.8h3.92q1.15 0 2.03.35.88.35 1.38 1.07.49.72.49 1.83 0 .59-.31 1.11-.31.52-.85.94.76.4 1.17 1.04.41.65.41 1.6 0 1.05-.48 1.78t-1.33 1.1q-.85.38-1.98.38Zm2.51-2.27h1.65q.66 0 1.04-.35.38-.34.38-.88 0-.58-.4-.91-.4-.33-1.1-.33h-1.57Zm0-4.53h1.33q.61 0 .98-.31.36-.31.36-.87 0-.58-.39-.89-.39-.31-1.05-.31h-1.23Zm10.87 6.99q-1.25 0-2.21-.53-.96-.54-1.51-1.48-.54-.95-.54-2.18 0-1.25.55-2.19.55-.95 1.51-1.47.96-.53 2.23-.53 1.13 0 2.05.54.91.55 1.44 1.62.54 1.07.54 2.67h-6.02l.28-.3q0 .54.22.96.22.41.62.63.4.21.9.21.59 0 1-.26.41-.26.57-.66l2.21.75q-.32.75-.91 1.25-.58.49-1.33.73-.76.24-1.6.24Zm-1.62-4.89-.26-.32h3.59l-.23.32q0-.6-.24-.95t-.59-.5q-.35-.15-.7-.15t-.71.15q-.36.15-.61.5t-.25.95Zm9.74 4.89q-.78 0-1.46-.23-.68-.23-1.18-.66-.49-.42-.73-1.03l2.05-.86q.2.41.57.61.37.2.75.2.4 0 .63-.13.22-.14.22-.38 0-.25-.23-.4-.23-.14-.66-.25l-.69-.18q-1.12-.29-1.72-.95-.6-.67-.6-1.55 0-1.23.85-1.9.84-.67 2.35-.67.85 0 1.49.22.65.23 1.09.63.44.41.63.96l-1.98.81q-.11-.32-.46-.49-.34-.16-.76-.16-.35 0-.54.15-.19.15-.19.41 0 .19.23.32.23.14.68.25l.85.21q.75.19 1.26.58.51.4.77.92t.26 1.11q0 .75-.44 1.3t-1.23.86q-.78.3-1.81.3Zm8.1 0q-1.42 0-2.12-.68-.7-.68-.7-1.94V35.5h2.5v7.44q0 .48.18.71.17.22.54.22.14 0 .34-.07.19-.07.35-.18l.86 1.82q-.38.32-.92.54-.53.21-1.03.21ZM56.6 40.1V38h5.56v2.1ZM20.25 62V50.8h4.4q1.22 0 2.16.47.95.47 1.48 1.31.54.84.54 1.93 0 1.09-.55 1.94-.54.85-1.49 1.32-.95.47-2.19.47h-1.77V62Zm6.08 0-2.53-4.45 1.94-1.42L29.28 62Zm-3.5-6.13h1.74q.45 0 .8-.17.35-.18.55-.49.2-.31.2-.7 0-.59-.44-.97-.44-.39-1.16-.39h-1.69Zm11.45 6.32q-1.24 0-2.2-.53-.96-.54-1.51-1.48-.54-.95-.54-2.18 0-1.25.55-2.19.55-.95 1.51-1.47.96-.53 2.23-.53 1.13 0 2.04.54.92.55 1.45 1.62.54 1.07.54 2.67h-6.02l.27-.3q0 .54.23.96.22.41.62.63.4.21.9.21.59 0 1-.26.41-.26.57-.66l2.2.75q-.32.75-.9 1.25-.58.49-1.34.73-.75.24-1.6.24Zm-1.61-4.89-.26-.32H36l-.23.32q0-.6-.24-.95t-.59-.5q-.35-.15-.7-.15-.36 0-.72.15t-.6.5q-.25.35-.25.95Zm9.74 4.89q-.78 0-1.46-.23-.68-.23-1.18-.66-.49-.42-.73-1.03l2.04-.86q.21.41.58.61t.75.2q.4 0 .63-.13.22-.14.22-.38 0-.25-.23-.4-.23-.14-.67-.25l-.68-.18q-1.12-.29-1.72-.95-.6-.67-.6-1.55 0-1.23.84-1.9.85-.67 2.36-.67.84 0 1.49.22.65.23 1.09.63.44.41.63.96l-1.98.81q-.11-.32-.46-.49-.34-.16-.76-.16-.35 0-.54.15-.19.15-.19.41 0 .19.23.32.23.14.68.25l.85.21q.75.19 1.26.58.51.4.77.92.25.52.25 1.11 0 .75-.44 1.3t-1.22.86q-.78.3-1.81.3Zm9.84-.19-.14-1.47V54h2.49v8Zm-5.29-3.9V54h2.49v4.1Zm2.49 0q0 .62.15 1 .14.39.41.56.27.18.64.2.72 0 1.09-.41.37-.41.37-1.23h.75q0 1.27-.38 2.16-.39.88-1.05 1.35-.67.46-1.55.46-.96 0-1.61-.39-.66-.39-.99-1.19-.32-.8-.32-2.05v-.46Zm6.79 3.9V50.8h2.49V62Zm7.56.19q-1.42 0-2.12-.68-.69-.68-.69-1.94V51.5h2.49v7.44q0 .48.18.71.18.22.54.22.15 0 .34-.07.19-.07.35-.18l.87 1.82q-.39.32-.92.54-.54.21-1.04.21Zm-4.06-6.09V54h5.57v2.1ZM70 62.19q-.79 0-1.47-.23-.68-.23-1.17-.66-.5-.42-.74-1.03l2.05-.86q.21.41.57.61.37.2.76.2.4 0 .62-.13.22-.14.22-.38 0-.25-.23-.4-.23-.14-.66-.25l-.69-.18q-1.12-.29-1.72-.95-.6-.67-.6-1.55 0-1.23.85-1.9.85-.67 2.35-.67.85 0 1.5.22.64.23 1.08.63.44.41.64.96l-1.99.81q-.11-.32-.45-.49-.35-.16-.76-.16-.36 0-.55.15-.19.15-.19.41 0 .19.23.32.23.14.68.25l.85.21q.75.19 1.26.58.52.4.77.92.26.52.26 1.11 0 .75-.44 1.3t-1.23.86q-.78.3-1.8.3Z"/></g><path fill="#000" d="M21.6 72.44q-.3 0-.55-.07-.25-.07-.45-.2t-.33-.29q-.13-.16-.16-.34l.73-.22q.07.19.26.33.18.13.45.14.29 0 .48-.13.18-.13.18-.34 0-.18-.14-.31-.15-.12-.4-.19l-.5-.13q-.28-.07-.5-.22-.21-.14-.33-.36-.12-.21-.12-.5 0-.54.36-.85.36-.3 1.02-.3.36 0 .64.11.28.1.47.3.18.2.28.47l-.73.22q-.06-.18-.24-.31-.18-.14-.45-.14t-.43.13q-.15.13-.15.36 0 .18.12.28.12.11.34.16l.5.13q.5.12.77.43.28.32.28.7 0 .34-.17.6-.16.26-.47.4-.32.14-.76.14Zm2.59-.06v-3.85h.82l1.12 1.66 1.13-1.66h.81v3.85h-.75V69.7l-1.19 1.75-1.18-1.74v2.67Zm7.93 0-1.47-3.85h.75l1.52 3.85Zm-3.04 0 1.52-3.85h.75l-1.47 3.85Zm.72-.85v-.67h2.41v.67Zm4.13.85v-3.85h.76v3.16h1.69v.69Zm3.51 0v-3.85h.75v3.16h1.69v.69Zm5.36 0v-3.85h1.3q.4 0 .7.12.29.12.46.36.16.25.16.61 0 .23-.11.41-.11.19-.32.33.27.14.42.37.14.23.14.55 0 .35-.16.59-.15.25-.44.38-.29.13-.67.13Zm.74-.67h.67q.27 0 .42-.14.15-.13.15-.36 0-.23-.17-.37-.17-.13-.46-.13h-.61Zm0-1.62h.58q.25 0 .39-.12.14-.13.14-.36 0-.23-.16-.36-.16-.13-.43-.13h-.52Zm4.68 2.36q-.48 0-.83-.18-.35-.19-.54-.53-.19-.34-.19-.8v-2.41h.75v2.41q0 .25.1.43.11.19.29.28.19.1.43.1.25 0 .43-.1.19-.09.29-.28.1-.18.1-.43v-2.41h.76v2.41q0 .46-.2.8-.19.34-.55.53-.35.18-.84.18Zm4.21-.01q-.29 0-.55-.07-.25-.07-.45-.2-.19-.13-.32-.29-.13-.16-.17-.34l.74-.22q.07.19.25.33.18.13.46.14.29 0 .47-.13.19-.13.19-.34 0-.18-.15-.31-.15-.12-.4-.19l-.5-.13q-.28-.07-.49-.22-.22-.14-.34-.36-.12-.21-.12-.5 0-.54.36-.85.36-.3 1.02-.3.37 0 .65.11.27.1.46.3.19.2.29.47l-.74.22q-.06-.18-.24-.31-.17-.14-.44-.14-.28 0-.43.13-.16.13-.16.36 0 .18.12.28.13.11.34.16l.51.13q.49.12.77.43.27.32.27.7 0 .34-.16.6-.17.26-.48.4-.32.14-.76.14Zm2.59-.06v-3.85h.76v3.85Zm2.14 0v-3.85h.79l1.88 2.58v-2.58h.75v3.85h-.75l-1.91-2.64v2.64Zm4.81 0v-3.85h2.43v.68h-1.68v.88h1.45v.67h-1.45v.93h1.7v.69Zm5.08.06q-.29 0-.55-.07-.25-.07-.45-.2t-.32-.29q-.13-.16-.17-.34l.73-.22q.08.19.26.33.18.13.45.14.3 0 .48-.13t.18-.34q0-.18-.14-.31-.15-.12-.4-.19l-.5-.13q-.28-.07-.5-.22-.21-.14-.33-.36-.12-.21-.12-.5 0-.54.36-.85.36-.3 1.02-.3.37 0 .64.11.28.1.47.3.19.2.29.47l-.74.22q-.06-.18-.24-.31-.17-.14-.44-.14-.28 0-.44.13-.15.13-.15.36 0 .18.12.28.13.11.34.16l.51.13q.49.12.77.43.27.32.27.7 0 .34-.16.6-.17.26-.48.4-.32.14-.76.14Zm3.89 0q-.29 0-.55-.07-.25-.07-.45-.2t-.33-.29q-.13-.16-.16-.34l.73-.22q.07.19.26.33.18.13.45.14.29 0 .48-.13.18-.13.18-.34 0-.18-.14-.31-.15-.12-.4-.19l-.5-.13q-.28-.07-.5-.22-.21-.14-.33-.36-.12-.21-.12-.5 0-.54.36-.85.36-.3 1.02-.3.36 0 .64.11.28.1.47.3.18.2.28.47l-.73.22q-.06-.18-.24-.31-.18-.14-.45-.14t-.43.13q-.15.13-.15.36 0 .18.12.28.12.11.34.16l.5.13q.5.12.77.43.28.32.28.7 0 .34-.17.6-.16.26-.47.4-.32.14-.76.14Z" style="white-space:pre"/><path fill="#FF492C" d="M71.035.543h21v21h-21z"/><g clip-path="url(#a)"><path fill="#fff" fill-rule="evenodd" d="M86.086 8.585h-1.794c.049-.281.222-.438.574-.616l.331-.168c.591-.303.906-.644.906-1.2a.972.972 0 0 0-.407-.828c-.266-.2-.591-.298-.965-.298a1.5 1.5 0 0 0-.819.233 1.383 1.383 0 0 0-.542.59l.52.519c.201-.406.494-.606.879-.606.325 0 .526.168.526.4 0 .195-.098.357-.472.546l-.211.103c-.461.233-.781.498-.965.8-.185.298-.277.682-.277 1.142v.124h2.716v-.74zm-.245 1.6h-2.966l-1.483 2.57h2.966l1.483 2.57 1.484-2.57-1.484-2.57z" clip-rule="evenodd"/><path fill="#fff" fill-rule="evenodd" d="M81.644 14.472a3.433 3.433 0 0 1-3.43-3.428 3.433 3.433 0 0 1 3.43-3.427l1.174-2.456a6 6 0 0 0-7.176 5.883 6 6 0 0 0 6.002 5.999 5.978 5.978 0 0 0 3.535-1.15l-1.3-2.252a3.417 3.417 0 0 1-2.235.831z" clip-rule="evenodd"/><path stroke="#000" stroke-width="1.085" d="M71.524 1.21v19.868"/></g><path fill="#5746B2" d="M.035 84.063v-6.5l46 23.042 46-23.042v6.5l-46 22.48-46-22.48z"/><path fill="#FFF" d="M.035 78.109v-6.5l46 23.042 46-23.042v6.5l-46 22.48-46-22.48z"/><path fill="#FFF" d="M.035 72.174v-6.5l46 23.043 46-23.043v6.5l-46 22.48-46-22.48z"/><path stroke="#000" stroke-width="1.085" d="m91.492 83.54-45.457 22.398L.578 83.54V1.086h90.914V83.54zm.118-62.462H.66"/><defs><clipPath id="a"><path fill="#fff" d="M0 0h21v21H0z" transform="translate(71.035 .543)"/></clipPath></defs></svg>
