<svg xmlns="http://www.w3.org/2000/svg" fill="none" viewBox="0 0 93 107"><path fill="#fff" d="m.035 83.877 46 22.666 46-22.666V.543h-92v83.334z"/><path fill="#fff" d="m.035 83.877 46 22.666 46-22.666V.543h-92v83.334z"/><path fill="#000" d="M16.5 13.25v-4.9h3.14v.87l-2.18.01v1.17h1.82v.88h-1.82v1.97Zm7.97 0-1.88-4.9h.96l1.94 4.9Zm-3.87 0 1.93-4.9h.96l-1.88 4.9Zm.91-1.08v-.84h3.07v.84Zm5.26 1.08v-4.9h.96v4.03h2.16v.87Zm4.46 0v-4.9h.96v4.03h2.16v.87Zm6.65 0v-.71q0-.2.13-.44.12-.25.35-.49.22-.25.52-.46l.75-.53q.15-.11.29-.24.13-.13.22-.29.09-.16.09-.3 0-.19-.09-.33-.09-.15-.26-.23-.16-.09-.41-.09-.21 0-.37.09-.17.08-.27.22-.11.14-.15.3l-.99-.17q.07-.35.3-.65.24-.3.61-.49.37-.18.85-.18.55 0 .94.2.39.19.6.53.22.34.22.79t-.25.81q-.25.35-.68.66l-.67.48q-.2.14-.35.31-.15.17-.22.37h2.23v.84Zm6.67.08q-.6 0-1.05-.32-.46-.33-.72-.9-.26-.57-.26-1.31 0-.74.26-1.31.26-.57.71-.9.45-.32 1.05-.32.59 0 1.05.32.46.33.72.9.26.57.26 1.31 0 .74-.26 1.31-.26.57-.71.9-.46.32-1.05.32Zm0-.86q.31 0 .56-.22.25-.21.39-.59.14-.37.14-.86t-.14-.87q-.14-.38-.39-.59-.25-.21-.57-.21-.32 0-.56.21-.25.21-.38.59-.14.38-.14.87t.14.86q.13.38.38.59.25.22.57.22Zm3.32.78v-.71q0-.2.13-.44.12-.25.35-.49.22-.25.52-.46l.74-.53q.16-.11.3-.24.13-.13.22-.29.09-.16.09-.3 0-.19-.09-.33-.09-.15-.26-.23-.16-.09-.41-.09-.21 0-.37.09-.17.08-.27.22-.11.14-.15.3l-.99-.17q.07-.35.3-.65.23-.3.61-.49.37-.18.85-.18.55 0 .94.2.39.19.6.53.22.34.22.79t-.25.81q-.25.35-.68.66l-.67.48q-.2.14-.35.31-.15.17-.22.37h2.23v.84Zm6.45.08q-.34 0-.69-.11-.35-.11-.64-.33-.28-.23-.41-.56l.87-.26q.15.23.37.33.21.11.44.11.37 0 .59-.22.23-.22.23-.59 0-.35-.22-.58-.22-.23-.58-.23-.22 0-.4.1-.18.1-.28.23l-.86-.19.29-2.68h2.77v.87h-1.95l-.14 1.17q.19-.1.42-.17.23-.06.5-.06.4 0 .72.2.33.19.53.52.19.33.19.77 0 .5-.23.88-.22.38-.61.59-.39.21-.91.21Z" style="white-space:pre"/><g fill="#000" style="white-space:pre"><path d="M34.92 47v-8.4h2.94q.86 0 1.52.26.66.27 1.04.81.37.54.37 1.37 0 .44-.24.83-.23.39-.64.7.58.3.88.79.31.48.31 1.19 0 .79-.36 1.34t-1 .83q-.63.28-1.48.28Zm1.88-1.7h1.24q.49 0 .78-.26.29-.26.29-.67 0-.43-.3-.68-.3-.24-.83-.24H36.8Zm0-3.4h1q.46 0 .73-.23.28-.24.28-.66 0-.43-.3-.66-.29-.24-.78-.24h-.93Zm8.15 5.24q-.93 0-1.65-.4-.72-.4-1.13-1.11-.41-.71-.41-1.63 0-.94.41-1.64.42-.71 1.14-1.11.72-.39 1.67-.39.85 0 1.53.4.69.41 1.09 1.22.4.8.4 2h-4.51l.2-.23q0 .41.17.72t.47.48q.3.16.67.16.44 0 .75-.2t.43-.5l1.65.57q-.24.56-.68.93-.43.37-1 .55-.56.18-1.2.18Zm-1.21-3.67-.19-.24h2.69l-.17.24q0-.44-.18-.71-.18-.26-.45-.37-.26-.12-.52-.12-.27 0-.54.12-.27.11-.45.37-.19.27-.19.71Zm7.31 3.67q-.59 0-1.1-.17-.51-.17-.88-.49-.37-.32-.55-.78l1.53-.64q.16.31.43.46.28.15.57.15.3 0 .47-.1.16-.11.16-.29 0-.19-.17-.3-.17-.1-.5-.19l-.51-.13q-.84-.22-1.29-.71-.45-.5-.45-1.16 0-.93.63-1.43.64-.5 1.77-.5.63 0 1.12.16.48.17.81.48.33.3.48.71l-1.49.61q-.08-.24-.34-.36-.26-.13-.57-.13-.27 0-.41.12-.14.11-.14.3 0 .15.17.25t.51.18l.64.16q.56.14.94.44.39.29.58.68.19.39.19.84 0 .56-.33.97-.33.42-.92.65-.58.22-1.35.22Zm6.07 0q-1.07 0-1.59-.51t-.52-1.45v-6.05h1.87v5.58q0 .36.13.53.13.16.41.16.11 0 .25-.05.15-.05.27-.14l.64 1.37q-.28.24-.69.4-.4.16-.77.16Zm-3.05-4.57V41h4.18v1.57ZM12.56 59v-8.4h3.3q.92 0 1.62.35.71.36 1.11.99.41.63.41 1.44 0 .82-.41 1.46-.41.63-1.12.99-.72.35-1.64.35H14.5V59Zm4.56 0-1.89-3.34 1.45-1.06 2.65 4.4Zm-2.62-4.6h1.3q.34 0 .6-.13.27-.13.42-.36.15-.24.15-.53 0-.44-.33-.73t-.87-.29H14.5Zm8.59 4.74q-.94 0-1.66-.4t-1.13-1.11q-.4-.71-.4-1.63 0-.94.41-1.64.41-.71 1.13-1.11.72-.39 1.67-.39.85 0 1.54.4.68.41 1.08 1.22.41.8.41 2h-4.52l.21-.23q0 .41.17.72.16.31.46.48.3.16.68.16.44 0 .75-.2.3-.2.42-.5l1.66.57q-.24.56-.68.93-.44.37-1 .55-.57.18-1.2.18Zm-1.21-3.67-.2-.24h2.69l-.17.24q0-.44-.18-.71-.18-.26-.44-.37-.26-.12-.53-.12-.26 0-.53.12-.27.11-.46.37-.18.27-.18.71ZM26.93 59v-8.4h1.87V59Zm6.66 0-.05-1.3v-1.69q0-.48-.08-.84-.09-.36-.3-.56-.22-.21-.65-.21-.34 0-.59.16-.25.16-.43.43l-1.63-.54q.2-.44.55-.8.36-.36.87-.58.52-.21 1.2-.21.94 0 1.59.34.65.35.97.98.32.62.32 1.47L35.34 59Zm-1.63.14q-1.07 0-1.66-.48-.59-.48-.59-1.35 0-.95.61-1.42.62-.47 1.72-.47h1.64v1.2h-.93q-.6 0-.87.17-.26.17-.26.47 0 .22.2.34.2.13.54.13.35 0 .62-.15.26-.15.41-.4.15-.26.15-.56h.47q0 1.2-.51 1.86-.5.66-1.54.66Zm7.12 0q-1.06 0-1.59-.51-.52-.51-.52-1.45v-6.05h1.87v5.58q0 .36.14.53.13.16.4.16.11 0 .26-.05.14-.05.26-.14l.65 1.37q-.29.24-.69.4-.4.16-.78.16Zm-3.04-4.57V53h4.17v1.57ZM41.58 59v-6h1.87v6Zm.94-6.77q-.42 0-.74-.32-.32-.31-.32-.73 0-.45.32-.75.32-.31.74-.31.43 0 .74.31.31.3.31.75 0 .42-.31.73-.31.32-.74.32Zm5.17 6.91q-.95 0-1.67-.4t-1.13-1.11q-.42-.71-.42-1.63 0-.92.4-1.63.41-.71 1.13-1.11.73-.4 1.65-.4.95 0 1.68.4.72.4 1.12 1.11.41.71.41 1.63 0 .92-.41 1.63-.4.71-1.12 1.11-.72.4-1.64.4Zm0-1.72q.36 0 .64-.18t.44-.5q.17-.32.17-.74t-.17-.74q-.16-.32-.45-.5-.28-.18-.66-.18-.37 0-.66.18-.28.18-.45.5-.16.32-.16.74t.16.74q.17.32.46.5.29.18.68.18ZM51.77 59v-6h1.76l.11 1.1V59Zm3.86 0v-3.07h1.87V59Zm0-3.07q0-.48-.11-.76-.1-.29-.3-.42-.2-.13-.49-.14-.54-.01-.81.29-.28.31-.28.93h-.56q0-.95.28-1.61.29-.67.79-1.02.5-.34 1.16-.34.72 0 1.21.29t.74.89q.24.6.24 1.54v.35Zm5.27 3.21q-.59 0-1.1-.17-.51-.17-.88-.49-.37-.32-.55-.78l1.53-.64q.16.31.44.46.27.15.56.15.3 0 .47-.1.17-.11.17-.29 0-.19-.18-.3-.17-.1-.5-.19l-.51-.13q-.84-.22-1.29-.71-.45-.5-.45-1.16 0-.93.63-1.43.64-.5 1.77-.5.63 0 1.12.16.49.17.82.48.33.3.47.71l-1.49.61q-.08-.24-.34-.36-.26-.13-.57-.13-.26 0-.41.12-.14.11-.14.3 0 .15.17.25.18.1.51.18l.64.16q.56.14.95.44.38.29.57.68.19.39.19.84 0 .56-.33.97-.33.42-.91.65-.59.22-1.36.22Zm3.52-.14v-8.4h1.87V59Zm3.86 0v-3.07h1.87V59Zm0-3.07q0-.48-.11-.76-.11-.29-.31-.42t-.48-.14q-.54-.01-.82.29-.27.31-.27.93h-.57q0-.95.29-1.61.29-.67.79-1.02.5-.34 1.14-.34.74 0 1.23.29t.74.89q.24.6.24 1.54v.35ZM71.4 59v-6h1.87v6Zm.94-6.77q-.42 0-.74-.32-.32-.31-.32-.73 0-.45.32-.75.32-.31.74-.31.43 0 .74.31.31.3.31.75 0 .42-.31.73-.31.32-.74.32Zm2.32 9.17V53h1.77l.11 1.1v7.3Zm3.58-2.26q-.74 0-1.25-.37-.5-.38-.75-1.09-.26-.71-.26-1.68 0-.98.26-1.69.25-.7.75-1.08.51-.37 1.25-.37.84 0 1.45.37.61.38.94 1.08.32.71.32 1.69 0 .97-.32 1.68-.33.71-.94 1.09-.61.37-1.45.37Zm-.48-1.72q.36 0 .64-.18.27-.18.44-.5.17-.32.17-.74t-.16-.74q-.15-.32-.44-.5-.28-.18-.64-.18t-.64.18q-.28.18-.44.51-.15.32-.15.73 0 .42.15.74.16.32.43.5.28.18.64.18Z"/></g><path fill="#000" d="M21.6 72.44q-.3 0-.55-.07-.25-.07-.45-.2t-.33-.29q-.13-.16-.16-.34l.73-.22q.07.19.26.33.18.13.45.14.29 0 .48-.13.18-.13.18-.34 0-.18-.14-.31-.15-.12-.4-.19l-.5-.13q-.28-.07-.5-.22-.21-.14-.33-.36-.12-.21-.12-.5 0-.54.36-.85.36-.3 1.02-.3.36 0 .64.11.28.1.47.3.18.2.28.47l-.73.22q-.06-.18-.24-.31-.18-.14-.45-.14t-.43.13q-.15.13-.15.36 0 .18.12.28.12.11.34.16l.5.13q.5.12.77.43.28.32.28.7 0 .34-.17.6-.16.26-.47.4-.32.14-.76.14Zm2.59-.06v-3.85h.82l1.12 1.66 1.13-1.66h.81v3.85h-.75V69.7l-1.19 1.75-1.18-1.74v2.67Zm7.93 0-1.47-3.85h.75l1.52 3.85Zm-3.04 0 1.52-3.85h.75l-1.47 3.85Zm.72-.85v-.67h2.41v.67Zm4.13.85v-3.85h.76v3.16h1.69v.69Zm3.51 0v-3.85h.75v3.16h1.69v.69Zm5.36 0v-3.85h1.3q.4 0 .7.12.29.12.46.36.16.25.16.61 0 .23-.11.41-.11.19-.32.33.27.14.42.37.14.23.14.55 0 .35-.16.59-.15.25-.44.38-.29.13-.67.13Zm.74-.67h.67q.27 0 .42-.14.15-.13.15-.36 0-.23-.17-.37-.17-.13-.46-.13h-.61Zm0-1.62h.58q.25 0 .39-.12.14-.13.14-.36 0-.23-.16-.36-.16-.13-.43-.13h-.52Zm4.68 2.36q-.48 0-.83-.18-.35-.19-.54-.53-.19-.34-.19-.8v-2.41h.75v2.41q0 .25.1.43.11.19.29.28.19.1.43.1.25 0 .43-.1.19-.09.29-.28.1-.18.1-.43v-2.41h.76v2.41q0 .46-.2.8-.19.34-.55.53-.35.18-.84.18Zm4.21-.01q-.29 0-.55-.07-.25-.07-.45-.2-.19-.13-.32-.29-.13-.16-.17-.34l.74-.22q.07.19.25.33.18.13.46.14.29 0 .47-.13.19-.13.19-.34 0-.18-.15-.31-.15-.12-.4-.19l-.5-.13q-.28-.07-.49-.22-.22-.14-.34-.36-.12-.21-.12-.5 0-.54.36-.85.36-.3 1.02-.3.37 0 .65.11.27.1.46.3.19.2.29.47l-.74.22q-.06-.18-.24-.31-.17-.14-.44-.14-.28 0-.43.13-.16.13-.16.36 0 .18.12.28.13.11.34.16l.51.13q.49.12.77.43.27.32.27.7 0 .34-.16.6-.17.26-.48.4-.32.14-.76.14Zm2.59-.06v-3.85h.76v3.85Zm2.14 0v-3.85h.79l1.88 2.58v-2.58h.75v3.85h-.75l-1.91-2.64v2.64Zm4.81 0v-3.85h2.43v.68h-1.68v.88h1.45v.67h-1.45v.93h1.7v.69Zm5.08.06q-.29 0-.55-.07-.25-.07-.45-.2t-.32-.29q-.13-.16-.17-.34l.73-.22q.08.19.26.33.18.13.45.14.3 0 .48-.13t.18-.34q0-.18-.14-.31-.15-.12-.4-.19l-.5-.13q-.28-.07-.5-.22-.21-.14-.33-.36-.12-.21-.12-.5 0-.54.36-.85.36-.3 1.02-.3.37 0 .64.11.28.1.47.3.19.2.29.47l-.74.22q-.06-.18-.24-.31-.17-.14-.44-.14-.28 0-.44.13-.15.13-.15.36 0 .18.12.28.13.11.34.16l.51.13q.49.12.77.43.27.32.27.7 0 .34-.16.6-.17.26-.48.4-.32.14-.76.14Zm3.89 0q-.29 0-.55-.07-.25-.07-.45-.2t-.33-.29q-.13-.16-.16-.34l.73-.22q.07.19.26.33.18.13.45.14.29 0 .48-.13.18-.13.18-.34 0-.18-.14-.31-.15-.12-.4-.19l-.5-.13q-.28-.07-.5-.22-.21-.14-.33-.36-.12-.21-.12-.5 0-.54.36-.85.36-.3 1.02-.3.36 0 .64.11.28.1.47.3.18.2.28.47l-.73.22q-.06-.18-.24-.31-.18-.14-.45-.14t-.43.13q-.15.13-.15.36 0 .18.12.28.12.11.34.16l.5.13q.5.12.77.43.28.32.28.7 0 .34-.17.6-.16.26-.47.4-.32.14-.76.14Z" style="white-space:pre"/><path fill="#FF492C" d="M71.035.543h21v21h-21z"/><g clip-path="url(#a)"><path fill="#fff" fill-rule="evenodd" d="M86.086 8.585h-1.794c.049-.281.222-.438.574-.616l.331-.168c.591-.303.906-.644.906-1.2a.972.972 0 0 0-.407-.828c-.266-.2-.591-.298-.965-.298a1.5 1.5 0 0 0-.819.233 1.383 1.383 0 0 0-.542.59l.52.519c.201-.406.494-.606.879-.606.325 0 .526.168.526.4 0 .195-.098.357-.472.546l-.211.103c-.461.233-.781.498-.965.8-.185.298-.277.682-.277 1.142v.124h2.716v-.74zm-.245 1.6h-2.966l-1.483 2.57h2.966l1.483 2.57 1.484-2.57-1.484-2.57z" clip-rule="evenodd"/><path fill="#fff" fill-rule="evenodd" d="M81.644 14.472a3.433 3.433 0 0 1-3.43-3.428 3.433 3.433 0 0 1 3.43-3.427l1.174-2.456a6 6 0 0 0-7.176 5.883 6 6 0 0 0 6.002 5.999 5.978 5.978 0 0 0 3.535-1.15l-1.3-2.252a3.417 3.417 0 0 1-2.235.831z" clip-rule="evenodd"/><path stroke="#000" stroke-width="1.085" d="M71.524 1.21v19.868"/></g><path fill="#27D3BC" d="M.035 84.063v-6.5l46 23.042 46-23.042v6.5l-46 22.48-46-22.48z"/><path fill="#FFF" d="M.035 78.109v-6.5l46 23.042 46-23.042v6.5l-46 22.48-46-22.48z"/><path fill="#FFF" d="M.035 72.174v-6.5l46 23.043 46-23.043v6.5l-46 22.48-46-22.48z"/><path stroke="#000" stroke-width="1.085" d="m91.492 83.54-45.457 22.398L.578 83.54V1.086h90.914V83.54zm.118-62.462H.66"/><defs><clipPath id="a"><path fill="#fff" d="M0 0h21v21H0z" transform="translate(71.035 .543)"/></clipPath></defs></svg>
