<svg width="256.1" height="32.5"  viewBox="0 0 512.2 65" version="1.1" id="Layer_1" x="0px" y="0px"  xmlns="http://www.w3.org/2000/svg" xmlns:xlink="http://www.w3.org/1999/xlink" xml:space="preserve">
<g>
<g>
  <path d="M131.7,21.3h-0.4H131.7l0.2,8.9h-23.4v9.3h20.7v8.7h-20.7v16.7H99V29.1c0-4.4,3.6-7.8,7.8-7.8H131.7z">
  </path>
  <path d="M160.8,46.6h11.4l-5.7-14.1L160.8,46.6z M162.3,21.3h9.3l18.4,43.3H180l-4-9.7h-18.4l-4,9.7h-9.7L162.3,21.3z">
  </path>
  <path d="M213.8,29.8V39h8.9c4.2,0,7-1.5,7-4.6v-0.2c0-2.7-2.3-4.4-6.3-4.4H213.8z M231.9,51.7c0-3.2-2.1-4.9-7.2-4.9h-11v9.5h11.4    C229.4,56.3,231.9,54.9,231.9,51.7z M233.2,42c5.1,1.9,8.2,4.9,8.2,10.6v0.2c0,7.8-6.5,11.8-16.2,11.8h-20.7V29.1    c0-2.1,0.8-4.1,2.3-5.5c1.5-1.5,3.5-2.3,5.5-2.3h12.5c8.7,0,14.1,4.4,14.1,11.2v0.2C238.9,37.6,236.4,40.3,233.2,42z">
  </path>
  <path d="M265.7,30.2v25.7h21.5v8.7h-31V29.1c0-4.3,3.5-7.8,7.8-7.8h1.7V30.2z">
  </path>
  <path d="M311.5,47.1v9.1h23.4v8.4H302V29.1c0-4.3,3.5-7.8,7.8-7.8h24.9v8.4h-23.2v8.9H332v8.4H311.5z">
  </path>
  <path d="M382.8,21.3h2.7v8.9h-13.1v34.4H363V30h-13.1v-0.8c0-4.3,3.5-7.8,7.8-7.8H382.8z">
  </path>
  <path d="M400.6,29.3c0-4.4,3.6-8,7.8-8h1.7v43.3h-9.5V29.3z">
  </path>
  <path d="M446.8,56.1c-7.2,0-12.2-5.9-12.2-13.1v-0.2c0-7.2,5.1-13.1,12.2-13.1c4.2,0,7.4,1.9,10.8,4.6l5.9-6.8    c-3.8-3.8-8.7-6.5-16.5-6.5c-12.9,0-21.7,9.7-21.7,21.7v0.2c-0.1,5.7,2.1,11.3,6.2,15.3c4.1,4.1,9.6,6.3,15.3,6.2    c8,0,12.9-3,17.1-7.4l-5.9-5.9C454.6,54.2,451.6,56.1,446.8,56.1z">
  </path>
  <path d="M498.7,38.8c-7.4-1.9-9.1-2.7-9.1-5.5v-0.2c0-2.1,1.9-3.6,5.5-3.6s7.2,1.5,11,4.2l4.9-7c-4.2-3.4-9.5-5.3-15.6-5.3    c-8.7,0-14.8,5.1-14.8,12.7v0.2c0,8.4,5.5,10.8,13.9,12.9c7,1.7,8.4,3,8.4,5.3v0.2c0,2.5-2.3,4-6.1,4c-4.9,0-8.9-1.9-12.5-5.1    l-5.5,6.5c5.1,4.4,11.4,6.8,17.9,6.8c9.1,0,15.4-4.6,15.4-13.1v-0.4C512,44.1,507.1,41.2,498.7,38.8z">
  </path>
</g>
<path d="M49.4,38.2c-9.5,4-26.8,3.4-30.2,4C16,42.8,8,42,2.3,53.6c1.3-1.5,3.2-2.5,5.3-2.5c3.8,0,6.8,3,6.8,6.8   c0,3.6-3,6.8-6.8,6.8c-2.7,0-5.1-1.7-6.1-4c-0.2-0.2-0.2-0.6-0.4-0.8v-0.2c0-0.2,0-0.4-0.2-0.6V58v-0.6c0-0.8,0.2-1.7,0.2-2.5v-0.2   c0.8-5.1,2.5-10.3,2.5-10.3c0.8-3,1.5-4.2,1.5-4.4c1.9-4.4,5.1-9.3,9.9-11c0,0,4-1.7,13.9-1.5H31c9.9,0.2,16.7-0.6,16.7-0.6   c7.8-0.6,12.5-2.1,16.5-4.6C63.5,24.9,60.4,33.6,49.4,38.2z M73.4,3.8c-0.6,2.1-1.9,4.9-4.2,7.2c0,0-3,4-9.9,6.8   c0,0-4.4,1.9-12.2,2.5c0,0-6.5,0.6-16.7,0.6h-2.1c-9.9,0-13.9,1.5-13.9,1.5c-4.9,1.7-8,6.5-9.9,11C4.4,33.6,2.1,39,0,49V26.4   c0-1.1,0-2.3,0.2-3.4C1.1,15.8,5.3,9.7,11.4,6.5c1.3-0.8,7.2-3.2,16.5-3.4c2.7,0,18.6-0.2,25.5-0.4C69.6,2.1,74.3,0,74.3,0   C73.9,2.5,73.4,3.8,73.4,3.8z">
</path>
</g></svg>