<?xml version="1.0" encoding="UTF-8"?>
<svg id="Full_Color" data-name="Full Color" xmlns="http://www.w3.org/2000/svg" viewBox="0 0 800 625">
  <g>
    <polygon points="118.9 253.1 66 253.1 116.7 235 118.9 253.1" style="fill: #a4def9;"/>
    <polygon points="733.5 253.3 733.6 253.1 681.1 253.1 683.3 235 734 253.1 733.5 253.3" style="fill: #a4def9;"/>
    <path d="M645.6,253.1H66l37.5,118.9h555.8c-6-39.5-12.7-79-13.6-118.9Z" style="fill: #68c5ed;"/>
    <path d="M690.5,278.8c-35.1,146-173.8,274.7-290.7,333.7-116.9-59-255.6-187.7-290.7-333.7-23.5-97.7-15.2-201.5-.4-266.3h582.3c14.7,64.8,23.1,168.6-.4,266.3Z" style="fill: #044d80;"/>
    <path d="M399.8,591.5l-1.4-.8c-58.6-31.3-117-77-164.3-128.8-54.8-60-91.8-124.8-106.9-187.5-17.3-72-18.8-162-3.9-240.9l.5-2.4h552.1l.5,2.4c14.9,78.9,13.4,168.9-3.9,240.9-15.1,62.7-52,127.5-106.9,187.5-47.4,51.8-105.7,97.5-164.3,128.8l-1.4.8ZM128.8,37.1c-14.2,77.5-12.6,165.5,4.3,235.9,14.8,61.7,51.3,125.6,105.5,184.9,46.5,50.9,103.8,95.9,161.3,126.8,57.5-30.9,114.8-75.9,161.3-126.8,54.2-59.2,90.6-123.2,105.5-184.9,16.9-70.5,18.5-158.5,4.3-235.9H128.8Z" style="fill: #fff;"/>
    <polygon points="733.6 253.1 733.5 253.3 696.1 372.1 103.5 372.1 66 253.1 733.6 253.1" style="fill: #68c5ed;"/>
    <g>
      <polygon points="144 128.9 190.4 128.9 218.6 128.9 218.6 100.5 144 128.9" style="fill: #ff9d28;"/>
      <polygon points="218.6 100.5 218.6 200.6 253.8 87.1 218.6 100.5" style="fill: #68c5ed;"/>
      <polygon points="218.6 128.9 190.4 128.9 218.6 200.6 218.6 128.9" style="fill: #16729b;"/>
      <polygon points="144 128.9 197.6 147.3 190.4 128.9 144 128.9" style="fill: #e54747;"/>
      <g>
        <path d="M314.9,174.3c-.4.4-1.1.9-2,1.6-1,.6-2.2,1.2-3.7,1.9-1.5.6-3.4,1.2-5.6,1.6-2.2.4-4.8.7-7.6.7-5.5,0-10.3-.9-14.3-2.7-4-1.8-7.3-4.3-10-7.5-2.6-3.2-4.5-7-5.8-11.4-1.2-4.4-1.8-9.2-1.8-14.5s.7-10.1,2-14.6c1.3-4.5,3.3-8.3,6-11.6,2.7-3.2,6-5.8,10-7.6,4-1.8,8.7-2.7,14.1-2.7s5.1.2,7.2.7c2.1.5,4,1.1,5.6,1.7,1.6.7,2.9,1.3,4,2.1,1.1.7,1.9,1.3,2.4,1.8.6.6,1.1,1.2,1.6,2,.4.8.7,1.6.7,2.5,0,1.4-.5,2.8-1.5,4.1-1,1.4-2.1,2.7-3.4,3.8-.8-.8-1.7-1.7-2.8-2.5-1-.9-2.2-1.6-3.4-2.3-1.3-.7-2.7-1.2-4.3-1.7-1.6-.4-3.4-.7-5.4-.7-3.5,0-6.4.7-8.7,2.1-2.4,1.4-4.2,3.3-5.7,5.5-1.4,2.3-2.5,4.9-3.1,7.8-.6,2.9-.9,5.9-.9,9s.3,6.4.9,9.3c.6,3,1.7,5.6,3.2,7.9,1.5,2.3,3.5,4.1,5.9,5.5,2.4,1.4,5.4,2.1,9,2.1s3.7-.2,5.3-.7c1.6-.5,3-1.1,4.2-1.8,1.2-.7,2.3-1.4,3.2-2.2.9-.8,1.7-1.4,2.3-2,.4.5.9,1.1,1.4,1.8.5.7,1.1,1.4,1.5,2.2.5.8.9,1.5,1.2,2.3.3.8.5,1.5.5,2.1,0,.9-.2,1.7-.5,2.3-.3.6-.9,1.3-1.6,2.1" style="fill: #fff;"/>
        <path d="M367.6,166.3c0,5.5.8,9.5,2.4,12-1.2.5-2.4.8-3.4,1-1.1.2-2.2.3-3.3.3-2.5,0-4.3-.5-5.6-1.5-1.3-1-2.1-2.4-2.4-4.2-1.5,1.6-3.5,3-6,4.1-2.5,1.1-5.5,1.7-9,1.7s-3.7-.3-5.6-.8c-1.9-.5-3.5-1.4-5-2.5-1.5-1.2-2.7-2.8-3.7-4.7-1-2-1.4-4.4-1.4-7.2s.8-6.4,2.5-8.6c1.7-2.2,3.8-4,6.3-5.3,2.5-1.3,5.3-2.2,8.2-2.7,2.9-.5,5.7-.8,8.1-.9.8,0,1.6-.1,2.4-.1h2.2v-1.9c0-2.7-.7-4.6-2.1-5.7-1.4-1.1-3.7-1.7-6.8-1.7s-5.6.5-7.9,1.5c-2.3,1-4.5,2.1-6.7,3.3-1-1.2-1.7-2.5-2.3-3.9-.6-1.4-.9-2.5-.9-3.2s.5-1.9,1.6-2.8c1.1-.9,2.5-1.7,4.4-2.5,1.9-.7,4-1.3,6.4-1.8,2.4-.5,4.9-.7,7.6-.7s6.8.4,9.4,1.1c2.6.8,4.7,1.9,6.3,3.5,1.6,1.6,2.8,3.6,3.4,6,.7,2.4,1,5.2,1,8.4v19.6ZM354.4,154.2h-1.4c-.5,0-1,0-1.4.1-1.7.1-3.4.3-5.1.6-1.7.3-3.2.8-4.5,1.5-1.3.7-2.4,1.6-3.2,2.7-.8,1.1-1.2,2.5-1.2,4.3s.5,3.6,1.6,5c1.1,1.4,2.9,2,5.6,2s2.5-.2,3.7-.5c1.2-.3,2.2-.8,3.1-1.4.9-.6,1.6-1.2,2.1-1.8.5-.7.8-1.3.8-1.8v-10.6Z" style="fill: #fff;"/>
        <path d="M393.2,133.7c1.1-1.3,2.8-2.7,5.1-4,2.3-1.4,5.3-2,8.8-2s4.9.4,7.2,1.3c2.3.9,4.3,2.3,6.1,4.2,1.8,1.9,3.2,4.5,4.3,7.7,1.1,3.2,1.6,7.1,1.6,11.8s-.6,9.9-1.8,13.4c-1.2,3.5-2.8,6.3-4.8,8.3-1.9,2.1-4.1,3.5-6.5,4.3-2.4.8-4.8,1.3-7.2,1.3s-3.7-.2-5.2-.7c-1.5-.5-2.7-1-3.7-1.5-1-.6-1.8-1.1-2.4-1.7-.5-.6-.9-.9-1-1.1v25.6h-14v-71.5c.3,0,.8-.1,1.2-.2.4,0,.9-.1,1.5-.2.6,0,1.2,0,2,0,2.3,0,4.2.4,5.8,1.1,1.6.8,2.6,2.1,3,3.9M411.7,153c0-2.1-.2-4-.5-5.8-.3-1.8-.9-3.4-1.7-4.7-.8-1.3-1.8-2.3-3.2-3.1-1.3-.7-2.9-1.1-4.9-1.1-2.9,0-4.9.6-6,1.7-1.1,1.1-1.7,2.3-1.7,3.7v22.1c.5.6,1.5,1.2,2.9,2,1.4.8,3,1.1,4.9,1.1,3.5,0,6-1.4,7.7-4.2,1.6-2.8,2.5-6.7,2.5-11.7" style="fill: #fff;"/>
        <path d="M437.1,170.9c-.5-1.4-.8-2.9-.9-4.4-.1-1.5-.2-3.1-.2-4.6v-48.4c.5,0,1-.1,1.5-.2.5,0,1-.1,1.5-.2.5,0,1.1,0,1.6,0,1.1,0,2.2.1,3.3.3,1.1.2,2.1.6,3,1.3.9.6,1.6,1.5,2.2,2.6.5,1.1.8,2.5.8,4.2v7.4h14.4v10.5h-14.4v22.2c0,4.9,2,7.3,5.9,7.3s1.9-.2,2.7-.5c.9-.3,1.6-.7,2.3-1,.7-.4,1.3-.8,1.8-1.2.5-.4.9-.7,1.1-.9,1,1.5,1.8,2.9,2.4,4,.5,1.1.8,2.2.8,3.2s-.4,1.8-1.1,2.7c-.7.9-1.7,1.7-3,2.4-1.3.7-2.9,1.3-4.7,1.8-1.8.5-3.9.7-6.1.7-4.3,0-7.6-.8-9.9-2.5-2.4-1.7-4-3.9-5-6.6" style="fill: #fff;"/>
        <path d="M499.7,169.6c1.7,0,3.2-.2,4.5-.6,1.3-.4,2.5-.9,3.5-1.4,1-.6,1.9-1.2,2.7-1.8.8-.7,1.4-1.3,2.1-1.8.8,1,1.7,2.4,2.6,4,.9,1.6,1.3,3,1.3,4,0,1.5-.9,2.9-2.6,4.2-1.4,1.1-3.5,2.1-6.1,2.9-2.6.8-5.7,1.2-9.3,1.2s-6.4-.4-9.5-1.3c-3.1-.8-5.9-2.3-8.3-4.4-2.4-2.1-4.4-4.9-5.9-8.4-1.5-3.5-2.3-7.9-2.3-13.3s.7-8.2,2-11.3c1.3-3.2,3.1-5.8,5.3-7.9,2.2-2.1,4.7-3.6,7.6-4.6,2.8-1,5.7-1.5,8.6-1.5s7.1.6,9.8,1.8c2.7,1.2,4.8,2.9,6.5,4.9,1.7,2.1,2.9,4.4,3.6,7,.8,2.6,1.1,5.4,1.1,8.3v1.5c0,.6,0,1.1,0,1.8,0,.6,0,1.2-.1,1.8,0,.6,0,1.1-.2,1.4h-30.3c.3,3.8,1.4,7,3.5,9.5,2.1,2.5,5.3,3.8,9.8,3.8M504.4,148.4c0-3.3-.6-6.1-1.9-8.1-1.3-2.1-3.6-3.1-6.9-3.1s-5.1,1-6.8,3c-1.7,2-2.5,4.7-2.5,8.3h18.1Z" style="fill: #fff;"/>
        <path d="M541.4,133.9c.4-.6,1-1.3,1.6-2.1.7-.8,1.5-1.4,2.5-2.1,1-.6,2.1-1.1,3.3-1.6,1.2-.4,2.5-.6,3.9-.6s1.7,0,2.6.2c.9.1,1.8.4,2.6.8.8.4,1.4.9,1.9,1.6.5.7.7,1.5.7,2.4,0,1.5-.4,3.3-1.1,5.2-.8,2-1.5,3.6-2.3,5-1.2-1-2.3-1.7-3.5-2.2-1.2-.5-2.5-.8-4.1-.8s-3.9.6-5.3,1.9c-1.4,1.3-2.2,2.8-2.2,4.5v33.8h-14v-50.9c.3,0,.8-.1,1.2-.2.4,0,.9-.1,1.4-.2.5,0,1.2,0,2,0,2.2,0,4.1.4,5.7,1.3,1.6.9,2.6,2.2,3,4" style="fill: #fff;"/>
        <path d="M581.1,133.9c.4-.6,1-1.3,1.6-2.1.7-.8,1.5-1.4,2.5-2.1,1-.6,2.1-1.1,3.3-1.6,1.2-.4,2.5-.6,3.9-.6s1.7,0,2.6.2c.9.1,1.8.4,2.6.8.8.4,1.4.9,1.9,1.6.5.7.7,1.5.7,2.4,0,1.5-.4,3.3-1.1,5.2-.8,2-1.5,3.6-2.3,5-1.2-1-2.3-1.7-3.5-2.2-1.2-.5-2.5-.8-4.1-.8s-3.9.6-5.3,1.9c-1.4,1.3-2.2,2.8-2.2,4.5v33.8h-14v-50.9c.3,0,.8-.1,1.2-.2.4,0,.9-.1,1.4-.2.5,0,1.2,0,2,0,2.2,0,4.1.4,5.7,1.3,1.6.9,2.6,2.2,3,4" style="fill: #fff;"/>
        <path d="M647.9,166.3c0,5.5.8,9.5,2.4,12-1.2.5-2.4.8-3.4,1-1.1.2-2.2.3-3.3.3-2.5,0-4.3-.5-5.6-1.5-1.3-1-2.1-2.4-2.4-4.2-1.5,1.6-3.5,3-6,4.1-2.5,1.1-5.5,1.7-9,1.7s-3.7-.3-5.6-.8c-1.9-.5-3.5-1.4-5-2.5-1.5-1.2-2.7-2.8-3.7-4.7-1-2-1.4-4.4-1.4-7.2s.8-6.4,2.5-8.6c1.7-2.2,3.8-4,6.3-5.3,2.5-1.3,5.3-2.2,8.2-2.7,2.9-.5,5.7-.8,8.1-.9.8,0,1.6-.1,2.4-.1h2.2v-1.9c0-2.7-.7-4.6-2.1-5.7-1.4-1.1-3.7-1.7-6.8-1.7s-5.6.5-7.9,1.5c-2.3,1-4.5,2.1-6.7,3.3-1-1.2-1.7-2.5-2.3-3.9-.6-1.4-.9-2.5-.9-3.2s.5-1.9,1.6-2.8c1.1-.9,2.5-1.7,4.4-2.5,1.9-.7,4-1.3,6.4-1.8,2.4-.5,4.9-.7,7.6-.7s6.8.4,9.4,1.1c2.6.8,4.7,1.9,6.3,3.5,1.6,1.6,2.8,3.6,3.4,6,.7,2.4,1,5.2,1,8.4v19.6ZM634.7,154.2h-1.4c-.5,0-1,0-1.4.1-1.7.1-3.4.3-5.1.6-1.7.3-3.2.8-4.5,1.5-1.3.7-2.4,1.6-3.2,2.7-.8,1.1-1.2,2.5-1.2,4.3s.5,3.6,1.6,5c1.1,1.4,2.9,2,5.6,2s2.5-.2,3.7-.5c1.2-.3,2.2-.8,3.1-1.4.9-.6,1.6-1.2,2.1-1.8.5-.7.8-1.3.8-1.8v-10.6Z" style="fill: #fff;"/>
      </g>
    </g>
    <g>
      <path d="M187.4,286.3h18.2c7.1,0,12.3,1.1,15.8,3.2,3.4,2.1,5.1,5.4,5.1,9.8s-.7,5.4-2.2,7.5c-1.5,2.1-3.5,3.4-5.9,4v.4c3.2.9,5.6,2.3,7,4.3,1.4,2,2.2,4.6,2.2,7.8,0,4.7-1.8,8.5-5.3,11.2-3.6,2.7-8.4,4.1-14.5,4.1h-20.3v-52.1ZM201.5,306.3h4.2c2,0,3.6-.4,4.7-1.2,1.1-.8,1.7-2.1,1.7-3.7,0-2.9-2.2-4.4-6.6-4.4h-4v9.3ZM201.5,316.6v10.9h5c4.4,0,6.6-1.9,6.6-5.6s-.6-3.1-1.8-4c-1.2-.9-2.9-1.4-5.1-1.4h-4.7Z" style="fill: #002e47;"/>
      <path d="M267.5,338.4h-30.9v-52.1h30.9v11.3h-16.9v8.2h15.6v11.3h-15.6v9.8h16.9v11.5Z" style="fill: #002e47;"/>
      <path d="M310.7,322.6c0,3.2-.8,6.1-2.5,8.6-1.6,2.5-4,4.5-7.1,5.8-3.1,1.4-6.7,2.1-10.9,2.1s-6.4-.2-8.7-.7c-2.4-.5-4.8-1.3-7.3-2.5v-12.5c2.7,1.4,5.5,2.5,8.4,3.2,2.9.8,5.6,1.2,8,1.2s3.6-.4,4.6-1.1c1-.7,1.5-1.7,1.5-2.8s-.2-1.3-.6-1.9c-.4-.5-1-1.1-1.9-1.6s-3.2-1.7-6.9-3.3c-3.4-1.5-5.9-3-7.6-4.5-1.7-1.4-3-3.1-3.8-5-.8-1.9-1.2-4.1-1.2-6.7,0-4.8,1.7-8.5,5.2-11.2,3.5-2.7,8.3-4,14.4-4s10.9,1.2,16.5,3.7l-4.3,10.9c-4.9-2.2-9.1-3.3-12.6-3.3s-3.2.3-4,1c-.8.6-1.2,1.4-1.2,2.4s.5,1.9,1.6,2.7c1.1.8,3.9,2.3,8.6,4.4,4.5,2,7.6,4.2,9.4,6.5s2.6,5.2,2.6,8.7Z" style="fill: #002e47;"/>
      <path d="M341.8,338.4h-14.1v-40.6h-12.7v-11.5h39.5v11.5h-12.7v40.6Z" style="fill: #002e47;"/>
      <path d="M410.1,286.3h15.7l-17.1,52.1h-16.6l-17-52.1h15.8l7.1,26.4c1.5,5.9,2.3,10,2.4,12.3.2-1.7.5-3.7,1-6.2.5-2.5.9-4.5,1.3-5.9l7.2-26.5Z" style="fill: #002e47;"/>
      <path d="M463.4,338.4l-2.6-9.8h-16.9l-2.6,9.8h-15.5l17-52.3h18.8l17.2,52.3h-15.4ZM457.9,317.1l-2.2-8.6c-.5-1.9-1.2-4.4-1.9-7.4-.7-3-1.2-5.2-1.5-6.5-.2,1.2-.6,3.2-1.3,6-.6,2.8-2,8.3-4.2,16.4h11.1Z" style="fill: #002e47;"/>
      <path d="M484.5,338.4v-52.1h14.1v40.7h20.1v11.4h-34.1Z" style="fill: #002e47;"/>
      <path d="M571.2,286.3v31.4c0,6.8-1.9,12.1-5.8,15.8-3.9,3.7-9.4,5.6-16.7,5.6s-12.6-1.8-16.4-5.5c-3.8-3.6-5.7-8.9-5.7-15.7v-31.7h14.1v30.6c0,3.7.7,6.4,2.1,8,1.4,1.7,3.4,2.5,6.1,2.5s5-.8,6.3-2.5c1.3-1.7,1.9-4.4,1.9-8.1v-30.5h14.1Z" style="fill: #002e47;"/>
      <path d="M613.1,338.4h-30.9v-52.1h30.9v11.3h-16.9v8.2h15.6v11.3h-15.6v9.8h16.9v11.5Z" style="fill: #002e47;"/>
    </g>
  </g>
  <g>
    <path d="M359.2,477.8h-38.5v-9.4l13-13.1c3.7-3.9,6.1-6.5,7.3-7.9,1.1-1.4,1.9-2.6,2.4-3.6.4-1,.7-2.1.7-3.2s-.4-2.5-1.3-3.3c-.9-.8-2.2-1.2-3.8-1.2s-3.4.5-5.1,1.4c-1.7,1-3.6,2.4-5.8,4.2l-7.9-9.2c2.7-2.4,5-4.2,6.9-5.2,1.9-1.1,3.9-1.9,6.1-2.4,2.2-.6,4.7-.8,7.4-.8s6.5.6,9.2,1.8c2.7,1.2,4.8,2.9,6.3,5.2,1.5,2.2,2.2,4.7,2.2,7.5s-.3,4-.8,5.8c-.5,1.8-1.3,3.5-2.4,5.2-1.1,1.7-2.5,3.5-4.3,5.4-1.8,1.9-5.6,5.5-11.5,10.7v.4h20.1v11.8Z" style="fill: #fff;"/>
    <path d="M402.2,451.3c0,9.4-1.6,16.3-4.7,20.6-3.1,4.4-8,6.6-14.4,6.6s-11.1-2.3-14.3-6.8c-3.2-4.6-4.8-11.3-4.8-20.3s1.6-16.4,4.7-20.8c3.1-4.4,8-6.6,14.4-6.6s11.1,2.3,14.3,6.9c3.2,4.6,4.8,11.4,4.8,20.5ZM378.1,451.3c0,6,.4,10.1,1.1,12.4.7,2.2,2,3.4,3.8,3.4s3.1-1.2,3.8-3.5c.7-2.3,1.1-6.4,1.1-12.3s-.4-10-1.1-12.4c-.8-2.4-2-3.5-3.8-3.5s-3,1.1-3.8,3.4c-.8,2.3-1.1,6.4-1.1,12.5Z" style="fill: #fff;"/>
    <path d="M444,477.8h-38.5v-9.4l13-13.1c3.7-3.9,6.1-6.5,7.3-7.9,1.1-1.4,1.9-2.6,2.4-3.6.4-1,.7-2.1.7-3.2s-.4-2.5-1.3-3.3c-.9-.8-2.2-1.2-3.8-1.2s-3.4.5-5.1,1.4c-1.7,1-3.6,2.4-5.8,4.2l-7.9-9.2c2.7-2.4,5-4.2,6.9-5.2,1.9-1.1,3.9-1.9,6.1-2.4,2.2-.6,4.7-.8,7.4-.8s6.5.6,9.2,1.8c2.7,1.2,4.8,2.9,6.3,5.2,1.5,2.2,2.2,4.7,2.2,7.5s-.3,4-.8,5.8c-.5,1.8-1.3,3.5-2.4,5.2-1.1,1.7-2.5,3.5-4.3,5.4-1.8,1.9-5.6,5.5-11.5,10.7v.4h20.1v11.8Z" style="fill: #fff;"/>
    <path d="M448.2,455.3c0-7.4,1.1-13.4,3.2-18,2.1-4.6,5.2-8,9.4-10.1,4.1-2.2,9.2-3.3,15.3-3.3s4.7.2,7.5.6v11.2c-2.4-.5-5-.7-7.9-.7-4.8,0-8.4,1.1-10.7,3.2-2.3,2.1-3.6,5.5-3.8,10.3h.4c2.2-4.1,5.7-6.2,10.5-6.2s8.4,1.5,11,4.6c2.6,3,3.9,7.3,3.9,12.7s-1.6,10.4-4.9,13.8c-3.3,3.4-7.9,5.1-13.8,5.1s-11.2-2-14.7-6.1c-3.5-4.1-5.3-9.8-5.3-17.1ZM467.9,467.1c1.5,0,2.8-.6,3.7-1.7,1-1.1,1.4-3,1.4-5.5,0-4.3-1.7-6.5-5-6.5s-3,.6-4,1.7c-1,1.1-1.5,2.5-1.5,4.1,0,2.3.5,4.2,1.5,5.7s2.3,2.2,3.9,2.2Z" style="fill: #fff;"/>
  </g>
</svg>