<?xml version="1.0" encoding="UTF-8"?>
<svg id="Layer_1" data-name="Layer 1" xmlns="http://www.w3.org/2000/svg" viewBox="0 0 500 147.44">
  <defs>
    <style>
      .cls-1 {
        isolation: isolate;
      }

      .cls-2 {
        fill: #17DD84;
        stroke-width: 0px;
      }
    </style>
  </defs>
  <g class="cls-1">
    <circle class="cls-2" cx="283.08" cy="9.69" r="9.69"/>
    <circle class="cls-2" cx="108.69" cy="61.73" r="5.64"/>
    <circle class="cls-2" cx="88.45" cy="61.73" r="5.64"/>
    <circle class="cls-2" cx="63.78" cy="141.8" r="5.64"/>
    <circle class="cls-2" cx="154.49" cy="122.88" r="5.64"/>
    <path class="cls-2" d="M257.05,98.32h-82.81c.61-5.5-.09-10.74-1.69-16.62-1.6-5.88-6.54-11.95-12.71-17.27-6.16-5.32-15.72-6.68-15.95-6.87-.24-.19-.75-3.81-1.6-6.35-.85-2.54-2.92-5.84-2.92-6.45s3.25-5.65,3.25-10.16-2.49-10.45-6.07-13.51c-3.58-3.06-8.66-4.75-14.64-4.27s-9.04,5.35-10.4,5.3c-1.36-.05-8.38-1.69-13.51-1.74s-12.05,1.41-12.05,1.41c0,0-2.35-2.64-6.96-4.19-4.61-1.55-10.92-.85-15.76,2.54-4.85,3.39-7.72,11.86-7.34,16.09s2.45,7.72,2.45,7.72c-3.01,5.41-4.52,12.85-4.66,13.41s-1.6.71-4.99,1.6-8.75,2.31-16.56,10.49c-7.81,8.19-9.04,18.16-9.41,21.08-.19,1.44.16,4.77.55,7.77H5.64c-3.11,0-5.64,2.52-5.64,5.64s2.52,5.64,5.64,5.64h251.41c3.11,0,5.64-2.52,5.64-5.64s-2.52-5.64-5.64-5.64ZM163.55,98.32h-12.46c.71-1.4,1.13-2.98,1.13-4.67,0-5.69-4.61-10.3-10.3-10.3s-10.3,4.61-10.3,10.3c0,1.68.41,3.26,1.13,4.67H63.93c.71-1.4,1.13-2.98,1.13-4.67,0-5.69-4.61-10.3-10.3-10.3s-10.3,4.61-10.3,10.3c0,1.68.41,3.26,1.13,4.67h-11.74c-.67-3.18-.46-5.88.06-10.21.64-5.29,5.26-11.22,9.64-15.14,4.38-3.92,12.04-4.87,14.58-5.05,2.54-.18,4.87-2.4,4.98-4.06.11-1.66,1.02-5.86,1.84-8.51s2.68-6.39,4.02-8.47,1.2-3.18,1.27-4.55c.07-1.38-1.09-1.91-2.61-4.06-1.52-2.15-.88-5.54-.49-6.92.39-1.38,3.11-4.13,6.74-4.12,3.64.01,5.51,2.88,6.56,4.19,1.06,1.31,3.53,2.47,4.91,1.94,1.38-.53,7.98-2.22,11.26-2.36s5.4-.32,9.88.81,6.74,2.15,9.04,1.66c2.29-.49,4.06-4.09,4.73-4.76.67-.67,5.82-3.42,9.81.95s.64,8.75-.71,10.31c-1.34,1.55-1.84,4.06-1.73,5.05.11.99,1.59,3.56,2.79,5.61,1.2,2.05,3.39,8.61,3.56,10.66.18,2.05-.25,3.21,1.8,5.33,2.05,2.12.04-.35,8.79,2.05,8.75,2.4,12.71,6.64,17.22,14.69,2.55,4.55,2.4,10.58,1.79,14.97Z"/>
    <path class="cls-2" d="M139.91,117.24H43.48c-3.11,0-5.64,2.52-5.64,5.64s2.52,5.64,5.64,5.64h96.42c3.11,0,5.64-2.52,5.64-5.64s-2.52-5.64-5.64-5.64Z"/>
    <path class="cls-2" d="M134.27,136.17h-54.82c-3.11,0-5.64,2.52-5.64,5.64s2.52,5.64,5.64,5.64h54.82c3.11,0,5.64-2.52,5.64-5.64s-2.52-5.64-5.64-5.64Z"/>
    <path class="cls-2" d="M190.28,84.9h13.56c.7,0,1.27-.57,1.27-1.27v-31.63h39.81v31.63c0,.7.57,1.27,1.27,1.27h13.56c.7,0,1.27-.57,1.27-1.27V4.29c0-.7-.57-1.27-1.27-1.27h-13.56c-.7,0-1.27.57-1.27,1.27v31.63h-39.81V4.29c0-.7-.57-1.27-1.27-1.27h-13.56c-.7,0-1.27.57-1.27,1.27v79.35c0,.7.57,1.27,1.27,1.27Z"/>
    <rect class="cls-2" x="275.69" y="28.15" width="15.14" height="56.75" rx="1.27" ry="1.27"/>
    <path class="cls-2" d="M469.39,26.69c-16.91,0-30.61,13.53-30.61,30.22s13.71,30.22,30.61,30.22,30.61-13.53,30.61-30.22-13.71-30.22-30.61-30.22ZM468.97,72.41c-8.44,0-15.28-6.94-15.28-15.5s6.84-15.5,15.28-15.5,15.28,6.94,15.28,15.5-6.84,15.5-15.28,15.5Z"/>
    <path class="cls-2" d="M335.65,26.74c-8.33,0-13.68,3.93-16.58,6.99v-4.31c0-.7-.57-1.27-1.27-1.27h-12.6c-.7,0-1.27.57-1.27,1.27v77.11c0,.7.57,1.27,1.27,1.27h12.6c.7,0,1.27-.57,1.27-1.27v-27.51c3.23,4.28,7.98,7.3,14.98,7.3,24.19,0,30.31-19.39,29.08-34.07-1.22-14.68-13.84-25.51-27.48-25.51ZM332.73,72.1c-7.11,0-11.85-4.75-13.66-10.4h0c-.27-.83-.47-1.68-.61-2.54-.01-.09-.02-.18-.04-.27-.05-.34-.1-.68-.12-1.02-.04-.45-.06-.89-.06-1.34s.02-.87.06-1.31c.03-.29.07-.59.11-.88.02-.12.03-.25.05-.37.07-.38.15-.76.24-1.14,0-.02.01-.05.02-.07.1-.4.22-.81.35-1.2h0c1.89-5.71,6.97-10.51,14.23-10.51,9.32,0,14.12,9.32,14.12,13.55s-1.02,17.51-14.68,17.51Z"/>
    <path class="cls-2" d="M404.54,26.74c-8.33,0-13.68,3.93-16.58,6.99v-4.31c0-.7-.57-1.27-1.27-1.27h-12.6c-.7,0-1.27.57-1.27,1.27v77.11c0,.7.57,1.27,1.27,1.27h12.6c.7,0,1.27-.57,1.27-1.27v-27.51c3.23,4.28,7.98,7.3,14.98,7.3,24.19,0,30.31-19.39,29.08-34.07-1.22-14.68-13.84-25.51-27.48-25.51ZM401.62,72.1c-7.11,0-11.85-4.75-13.66-10.4h0c-.27-.83-.47-1.68-.61-2.54-.01-.09-.02-.18-.04-.27-.05-.34-.1-.68-.12-1.02-.04-.45-.06-.89-.06-1.34s.02-.87.06-1.31c.03-.29.07-.59.11-.88.02-.12.03-.25.05-.37.07-.38.15-.76.24-1.14,0-.02.01-.05.02-.07.1-.4.22-.81.35-1.2h0c1.89-5.71,6.97-10.51,14.23-10.51,9.32,0,14.12,9.32,14.12,13.55s-1.02,17.51-14.68,17.51Z"/>
  </g>
</svg>