<svg width="1649" height="297" viewBox="0 0 1649 297" fill="none" xmlns="http://www.w3.org/2000/svg">
<mask id="mask0_9501_566" style="mask-type:luminance" maskUnits="userSpaceOnUse" x="0" y="1" width="1649" height="295">
<path d="M1648.74 1.07568H0V295.229H1648.74V1.07568Z" fill="white"/>
</mask>
<g mask="url(#mask0_9501_566)">
<path d="M0 234.372L173.236 61.9387V234.372H0Z" fill="#F72F96"/>
<path d="M376.901 61.9387L203.666 234.372V61.9387H376.901Z" fill="#B641FF"/>
<path d="M462.757 233.667V1.58744H611.743V42.81H515.341V104.157H591.618V143.757H515.341V233.667H462.757ZM675.639 237.238C644.803 237.238 618.836 222.307 618.836 186.602C618.836 147.003 655.189 132.072 707.123 132.072H726.274V125.255C726.274 105.131 720.107 94.095 698.684 94.095C680.183 94.095 671.743 103.508 669.795 118.114H625.328C628.248 77.8656 660.059 60.0132 701.606 60.0132C743.153 60.0132 772.69 76.8918 772.69 122.983V233.667H726.923V213.218C717.186 226.851 702.255 237.238 675.639 237.238ZM689.596 204.455C710.37 204.455 726.274 193.094 726.274 174.268V159.986H708.097C680.832 159.986 664.927 165.829 664.927 184.005C664.927 196.34 672.392 204.455 689.596 204.455ZM806.594 233.667V63.9082H853.66V96.367C864.371 73.646 880.925 61.6362 908.515 61.3116V105.131C873.784 104.806 853.66 116.167 853.66 148.625V233.667H806.594ZM975.515 237.238C944.679 237.238 918.712 222.307 918.712 186.602C918.712 147.003 955.066 132.072 1007 132.072H1026.15V125.255C1026.15 105.131 1019.98 94.095 998.56 94.095C980.059 94.095 971.619 103.508 969.671 118.114H925.204C928.124 77.8656 959.934 60.0132 1001.48 60.0132C1043.03 60.0132 1072.57 76.8918 1072.57 122.983V233.667H1026.8V213.218C1017.06 226.851 1002.13 237.238 975.515 237.238ZM989.472 204.455C1010.25 204.455 1026.15 193.094 1026.15 174.268V159.986H1007.97C980.708 159.986 964.803 165.829 964.803 184.005C964.803 196.34 972.268 204.455 989.472 204.455ZM1170.09 237.238C1128.87 237.238 1096.41 207.701 1096.41 151.222V148.625C1096.41 92.7965 1128.54 60.0132 1171.06 60.0132C1198.33 60.0132 1215.21 72.023 1224.62 89.2261V-13.019H1271.36V233.667H1224.62V205.428C1215.86 222.632 1195.08 237.238 1170.09 237.238ZM1184.05 200.56C1208.72 200.56 1225.92 184.005 1225.92 149.599V147.003C1225.92 113.246 1210.99 96.0425 1185.35 96.0425C1159.05 96.0425 1144.45 113.895 1144.45 147.652V150.248C1144.45 184.005 1160.68 200.56 1184.05 200.56ZM1352.41 237.238C1321.58 237.238 1295.61 222.307 1295.61 186.602C1295.61 147.003 1331.97 132.072 1383.9 132.072H1403.05V125.255C1403.05 105.131 1396.88 94.095 1375.46 94.095C1356.96 94.095 1348.52 103.508 1346.58 118.114H1302.1C1305.03 77.8656 1336.84 60.0132 1378.38 60.0132C1419.93 60.0132 1449.47 76.8918 1449.47 122.983V233.667H1403.7V213.218C1393.96 226.851 1379.03 237.238 1352.41 237.238ZM1366.38 204.455C1387.14 204.455 1403.05 193.094 1403.05 174.268V159.986H1384.88C1357.6 159.986 1341.71 165.829 1341.71 184.005C1341.71 196.34 1349.17 204.455 1366.38 204.455ZM1500.04 291.444L1529.9 216.465L1462.39 63.9082H1513.02L1554.25 165.829L1592.23 63.9082H1637.34L1545.49 291.444H1500.04Z" fill="black"/>
</g>
</svg>
