<?xml version="1.0" encoding="UTF-8"?>
<svg id="Layer_1" data-name="Layer 1" xmlns="http://www.w3.org/2000/svg" version="1.1" viewBox="0 0 526.6 146.4">
  <defs>
    <style>
      .cls-1 {
        fill: #c0c9db;
        fill-rule: evenodd;
      }

      .cls-1, .cls-2, .cls-3 {
        stroke-width: 0px;
      }

      .cls-2 {
        fill: #010101;
      }

      .cls-3 {
        fill: #fff;
      }

      .cls-4 {
        display: none;
      }
    </style>
  </defs>
  <g id="Visit_FreeVector.com" data-name="Visit FreeVector.com" class="cls-4">
    <g>
      <path class="cls-2" d="M37.8,781c0-1.5-1.4-2.5-2.8-2.5-3.2,0-3.7,2.7-3.7,5.2s1,4.6,3.4,4.6,3-1.2,3.3-3h5.6c-.5,4.7-4.2,7.4-8.8,7.4s-9.2-3.6-9.2-9,3.5-9.6,9.2-9.6,8.2,2.3,8.7,6.9h-5.7Z"/>
      <path class="cls-2" d="M52.7,774.2c-5.4,0-9.2,4-9.2,9.3s3.8,9.2,9.2,9.2,9.2-4,9.2-9.2-3.8-9.3-9.2-9.3"/>
      <path class="cls-2" d="M22.7,787.2c-1.5,0-2.5,1.1-2.5,2.5s1,2.5,2.5,2.5,2.5-1.1,2.5-2.5-1-2.5-2.5-2.5"/>
      <path class="cls-2" d="M62.4,775.3h5.4v2.3h0c1-1.7,2.8-2.8,4.9-2.8s4.1.7,5,2.8c1.4-1.8,3-2.8,5.3-2.8,5.4,0,6,4.1,6,7.4v10.2h-5.6v-10c0-1.8-.9-2.9-2.3-2.9-2.4,0-2.6,1.8-2.6,4.6v8.4h-5.6v-9.7c0-2-.6-3.3-2.1-3.3s-2.9,1.2-2.9,4.6v8.3h-5.6v-17.1h.1Z"/>
      <polygon class="cls-2" points="-51.5 792.2 -57.9 792.2 -63.6 775.3 -57.8 775.3 -54.7 786.5 -54.6 786.5 -51.5 775.3 -45.9 775.3 -51.5 792.2"/>
      <path class="cls-2" d="M-42.8,785.1c0,2.3,1.4,3.8,3.8,3.8s2.6-.6,3.2-1.9h5.2c-1,3.9-4.6,5.6-8.4,5.6-5.5,0-9.3-3.3-9.3-9s4.1-8.9,9.1-8.9,9.1,4.6,8.8,10.3h-12.4,0Z"/>
      <path class="cls-2" d="M-18.6,781.5c0-1.4-1.3-2.4-2.7-2.4-3.1,0-3.6,2.6-3.6,5s.9,4.4,3.3,4.4,2.9-1.1,3.2-2.9h5.4c-.5,4.5-4,7.1-8.5,7.1s-8.9-3.5-8.9-8.7,3.4-9.2,8.9-9.2,8,2.2,8.3,6.7h-5.4Z"/>
      <path class="cls-2" d="M-2.5,778.9h-3.4v7.7c0,1.3.8,1.6,2,1.6h1.4v4.1c-1,0-2,.2-3,.2-4.7,0-5.9-1.4-5.9-6v-7.5h-2.8v-3.6h2.8v-5.1h5.5v5.1h3.4v3.6h0Z"/>
      <path class="cls-2" d="M5.1,774.8c-5.2,0-8.9,3.9-8.9,9s3.7,8.9,8.9,8.9,8.9-3.8,8.9-8.9-3.7-9-8.9-9"/>
      <path class="cls-2" d="M13.7,775.3h5.4v3h0c.8-2.1,2.7-3.3,5.1-3.3s.9,0,1.3,0v5.1c-.7-.2-1.4-.3-2.1-.3-2.7,0-4.2,1.9-4.2,4v8.4h-5.5v-16.9h0Z"/>
      <path class="cls-2" d="M-107.1,775.3h5.4v3h0c.8-2.1,2.7-3.3,5.1-3.3s.9,0,1.3,0v5.1c-.7-.2-1.4-.3-2.1-.3-2.7,0-4.2,1.9-4.2,4v8.4h-5.5v-16.9h0Z"/>
      <path class="cls-2" d="M-91.7,785.1c0,2.3,1.4,3.8,3.8,3.8s2.6-.6,3.2-1.9h5.2c-1,3.9-4.6,5.6-8.4,5.6-5.5,0-9.3-3.3-9.3-9s4.1-8.9,9.1-8.9,9.1,4.6,8.8,10.3h-12.4Z"/>
      <path class="cls-2" d="M-74.2,785.1c0,2.3,1.4,3.8,3.8,3.8s2.6-.6,3.2-1.9h5.2c-1,3.9-4.6,5.6-8.4,5.6-5.5,0-9.3-3.3-9.3-9s4.1-8.9,9.1-8.9,9.1,4.6,8.8,10.3h-12.4,0Z"/>
      <path class="cls-2" d="M-108.1,772.9h1.5v-3.9h-2.7c-4.7,0-6.4,1.5-6.4,6.4h-2.7v3.6h2.7v13.3h5.5v-13.3h3.3v-3.6h-3.3v-.7c0-1.5.8-1.7,2.1-1.7"/>
      <path class="cls-3" d="M-123.8,780.7c0,6.9-5.6,12.5-12.5,12.5s-12.5-5.6-12.5-12.5,5.6-12.5,12.5-12.5,12.5,5.6,12.5,12.5"/>
      <path class="cls-2" d="M-136.3,768.2c-1.1,0-2.2,0-3.3.4.4,0,.7.3.9.9,0,0,2.4,7.8,2.6,8.6.3.9.6,1.8.6,1.8-.2.2-.4.4-.5.6-.2.5-.4.9-.4,1.3-.4-.6-1.8-2.4-2.8-3.5,0,0,0-.8-.3-1.5-.2-.7-1.5-5.7-1.5-5.7-.2-.9-.1-1.7.4-2.2-4.9,1.7-8.4,6.4-8.4,11.8s2.9,9.2,7.1,11.3c-.4-.6-.9-1.6-1.2-3-.4-2.3-.5-3.8-.8-5.1-.4-1.7-.3-2.1.3-2.9s.6-.6.9-.7c.3,0,.6,0,.7.2.7.8,2.2,2.3,2.3,2.5.3.4.4.9.1,1.5-.1.2-.4.4-.6.4h-1.2c-.4-.3-2.3-2.1-2.3-2,0,.5,1.4,1.6,2.1,2.3.3.3,1,.3,1.5.2.4,0,.7-.3.8-.6.2-.4.2-.9.1-1.2.5.3,1,.5,1.5.3s.8-.4,1-.7c0,.3,0,.7.2,1.1.2,1.1.4,1.7.5,2.1v.3h0c-.3.4-.7,1.1-1,1.9-.2.6-.3,1.3-.3,2v.6-.6c0-.7.2-1.4.4-2,.3-.7.6-1.2,1-1.8h0v-.6c-.1-.4-.3-1-.5-2.1-.2-1.6-.3-2.2.3-3.5.5-1,1.8-1,2-.9.1,0,.1.7.1,1.2s0,1.4.1,2.3c.1,1.2.6,2.1,1,2.6.3.4.6.6.7.5,0,0-.2-.3-.5-.8s-.7-1.3-.8-2.4c-.1-.9-.1-1.6-.1-2.2,0-.9,0-1.4-.3-1.5h-.8l2.3-7.9c.4-1.4.8-2,1.7-1.9h0c-1.8-1-3.9-1.5-6.1-1.5M-137.5,783.5c-.6.2-1.4-.3-1.8-.6-.3-.4-2.2-2.3-2.4-2.6-.5-.5-.1-1.6,1-2,.3,0,.8,0,1.1.2,1.3,1.6,2.7,3.3,2.8,3.7.2.6-.1,1.1-.9,1.3M-132,786.4h0"/>
      <path class="cls-2" d="M-129.6,770.1c.3.3.4.8.3,1.2l-2.1,9.4c-.1.7-.3,2.2-.1,3.3.3,1.4.8,3.3.4,5.4-.2,1.1-.6,2.3-1.1,3.3,5-1.7,8.6-6.4,8.6-11.9s-2.4-8.4-6-10.6"/>
    </g>
    <g>
      <path class="cls-2" d="M107.9,777.2h4l-5.1,14.2h-3.9l-5.1-14.2h4.2l2.9,10.5,3-10.5Z"/>
      <path class="cls-2" d="M117.8,775.5h-3.8v-3.4h3.8v3.4ZM114,777.2h3.8v14.2h-3.8v-14.2Z"/>
      <path class="cls-2" d="M124.2,786.8c0,.7.2,1.1.5,1.4.5.5,1.3.7,2.6.7s1.3,0,1.7-.3c.4-.2.6-.5.6-1s-.2-.7-.5-.9-1.6-.6-3.9-1.1c-1.6-.4-2.7-.9-3.4-1.5-.7-.6-1-1.4-1-2.5s.5-2.4,1.5-3.4c1-.9,2.5-1.4,4.3-1.4s3.2.4,4.3,1.1c1.1.7,1.8,1.9,1.9,3.7h-3.7c0-.5-.2-.9-.4-1.1-.4-.5-1.1-.8-2.1-.8s-1.4,0-1.7.4c-.3.3-.5.5-.5.9s.2.7.5.9c.4.2,1.6.5,3.9,1,1.5.3,2.6.9,3.3,1.6.7.7,1.1,1.6,1.1,2.7s-.5,2.5-1.6,3.4c-1,.9-2.7,1.3-4.8,1.3s-3.9-.5-4.9-1.4c-1.1-.9-1.6-2.1-1.6-3.6h3.9Z"/>
      <path class="cls-2" d="M140,775.5h-3.8v-3.4h3.8v3.4ZM136.2,777.2h3.8v14.2h-3.8v-14.2Z"/>
      <path class="cls-2" d="M142.1,779.9v-2.6h2v-4h3.7v4h2.3v2.6h-2.3v7.5c0,.6,0,.9.2,1.1s.6.2,1.4.2.2,0,.4,0h.4v2.8h-1.8c-1.8,0-3-.2-3.6-.8-.4-.4-.6-1.1-.6-2v-8.7h-2.1Z"/>
      <path class="cls-2" d="M165.7,772h.8v3h-1c-.5,0-.8,0-1,.3-.2.2-.3.5-.3.8v1.2h2.4v2.6h-2.4v11.4h-3.7v-11.4h-2.1v-2.6h2v-.9c0-1.5.3-2.6.8-3.1.5-.9,1.8-1.3,3.9-1.3s.4,0,.6,0h0Z"/>
      <path class="cls-2" d="M176.6,776.9h.3v3.8h-1c-1.5,0-2.5.5-3,1.5-.3.5-.4,1.4-.4,2.5v6.8h-3.7v-14.2h3.5v2.5c.6-.9,1.1-1.6,1.5-1.9.7-.6,1.6-.9,2.7-.9s.1,0,.2,0h-.1Z"/>
      <path class="cls-2" d="M188.3,777.5c1,.4,1.8,1.1,2.4,2.1.6.8,1,1.8,1.1,2.9,0,.7.1,1.6.1,2.8h-10.3c0,1.4.5,2.4,1.5,3,.6.4,1.2.5,2,.5s1.5-.2,2.1-.7c.3-.2.5-.6.8-1h3.8c-.1.8-.6,1.7-1.4,2.6-1.3,1.4-3,2.1-5.3,2.1s-3.5-.6-5-1.7c-1.4-1.2-2.2-3.1-2.2-5.7s.6-4.3,2-5.7c1.3-1.3,3-2,5.1-2s2.3.2,3.3.7h0ZM182.7,780.7c-.5.5-.9,1.3-1,2.2h6.4c0-1-.4-1.7-1-2.3-.6-.5-1.3-.8-2.2-.8s-1.7.3-2.2.8h0Z"/>
      <path class="cls-2" d="M203.1,777.5c1,.4,1.8,1.1,2.4,2.1.6.8,1,1.8,1.1,2.9,0,.7.1,1.6.1,2.8h-10.3c0,1.4.6,2.4,1.5,3,.6.4,1.2.5,2,.5s1.5-.2,2.1-.7c.3-.2.5-.6.8-1h3.8c0,.8-.6,1.7-1.4,2.6-1.3,1.4-3,2.1-5.3,2.1s-3.5-.6-5-1.7c-1.4-1.2-2.2-3.1-2.2-5.7s.7-4.3,2-5.7c1.3-1.3,3-2,5.1-2s2.3.2,3.3.7h0ZM197.5,780.7c-.5.5-.9,1.3-1,2.2h6.4c0-1-.4-1.7-1-2.3-.6-.5-1.3-.8-2.2-.8s-1.7.3-2.2.8h0Z"/>
      <path class="cls-2" d="M217.4,777.2h4l-5.1,14.2h-3.9l-5.1-14.2h4.2l2.9,10.5,3-10.5Z"/>
      <path class="cls-2" d="M232.7,777.5c1,.4,1.8,1.1,2.4,2.1.6.8,1,1.8,1.1,2.9.1.7.1,1.6.1,2.8h-10.3c0,1.4.6,2.4,1.5,3,.6.4,1.2.5,2,.5s1.5-.2,2.1-.7c.3-.2.5-.6.8-1h3.8c0,.8-.6,1.7-1.4,2.6-1.3,1.4-3,2.1-5.3,2.1s-3.5-.6-5-1.7c-1.4-1.2-2.2-3.1-2.2-5.7s.6-4.3,2-5.7c1.3-1.3,3-2,5.1-2s2.3.2,3.3.7h0ZM227.2,780.7c-.5.5-.9,1.3-1,2.2h6.4c0-1-.4-1.7-1-2.3-.6-.5-1.3-.8-2.2-.8s-1.7.3-2.2.8h0Z"/>
      <path class="cls-2" d="M246.8,782.3c0-.5-.2-1-.5-1.4-.4-.6-1.1-.9-1.9-.9-1.3,0-2.1.6-2.6,1.9-.2.7-.4,1.5-.4,2.6s.1,1.9.4,2.5c.4,1.2,1.3,1.8,2.5,1.8s1.5-.2,1.8-.7c.4-.5.6-1.1.7-1.8h3.8c0,1.1-.5,2.2-1.2,3.2-1.2,1.6-2.9,2.4-5.2,2.4s-4-.7-5-2c-1.1-1.4-1.6-3.1-1.6-5.3s.6-4.3,1.8-5.7c1.2-1.4,2.8-2,4.9-2s3.2.4,4.4,1.2c1.1.8,1.8,2.2,2,4.2h-3.9,0Z"/>
      <path class="cls-2" d="M251.6,779.9v-2.6h2v-4h3.7v4h2.3v2.6h-2.3v7.5c0,.6,0,.9.2,1.1s.6.2,1.4.2.2,0,.4,0h.4v2.8h-1.8c-1.8,0-3-.2-3.6-.8-.4-.4-.6-1.1-.6-2v-8.7h-2.1Z"/>
      <path class="cls-2" d="M273.8,789.6c-1.2,1.5-3,2.2-5.5,2.2s-4.3-.7-5.4-2.2c-1.2-1.5-1.8-3.3-1.8-5.3s.6-3.8,1.8-5.3c1.2-1.5,3-2.2,5.4-2.2s4.3.8,5.5,2.2c1.2,1.5,1.8,3.3,1.8,5.3s-.6,3.9-1.8,5.3ZM270.8,787.6c.6-.8.9-1.9.9-3.3s-.3-2.5-.9-3.3-1.4-1.1-2.5-1.1-1.9.4-2.5,1.1c-.6.8-.9,1.9-.9,3.3s.3,2.5.9,3.3,1.4,1.2,2.5,1.2,1.9-.4,2.5-1.2Z"/>
      <path class="cls-2" d="M286.1,776.9h.3v3.8h-1c-1.5,0-2.5.5-3,1.5-.3.5-.4,1.4-.4,2.5v6.8h-3.7v-14.2h3.5v2.5c.6-.9,1.1-1.6,1.5-1.9.7-.6,1.6-.9,2.7-.9s.1,0,.2,0h-.1Z"/>
      <path class="cls-2" d="M287.1,787.5h3.9v3.9h-3.9v-3.9Z"/>
      <path class="cls-2" d="M303,782.3c0-.5-.2-1-.5-1.4-.4-.6-1.1-.9-1.9-.9-1.3,0-2.1.6-2.6,1.9-.2.7-.4,1.5-.4,2.6s.1,1.9.4,2.5c.4,1.2,1.3,1.8,2.5,1.8s1.5-.2,1.8-.7c.4-.5.6-1.1.7-1.8h3.8c0,1.1-.5,2.2-1.2,3.2-1.2,1.6-2.9,2.4-5.2,2.4s-4-.7-5-2c-1.1-1.4-1.6-3.1-1.6-5.3s.6-4.3,1.8-5.7c1.2-1.4,2.8-2,4.9-2s3.2.4,4.4,1.2c1.1.8,1.8,2.2,2,4.2h-3.9,0Z"/>
      <path class="cls-2" d="M321.2,789.6c-1.2,1.5-3,2.2-5.5,2.2s-4.3-.7-5.5-2.2-1.8-3.3-1.8-5.3.6-3.8,1.8-5.3c1.2-1.5,3-2.2,5.5-2.2s4.3.8,5.5,2.2c1.2,1.5,1.8,3.3,1.8,5.3s-.6,3.9-1.8,5.3ZM318.2,787.6c.6-.8.9-1.9.9-3.3s-.3-2.5-.9-3.3-1.4-1.1-2.5-1.1-1.9.4-2.5,1.1c-.6.8-.9,1.9-.9,3.3s.3,2.5.9,3.3,1.4,1.2,2.5,1.2,1.9-.4,2.5-1.2Z"/>
      <path class="cls-2" d="M343.3,777.2c.6.2,1.2.7,1.7,1.3.4.5.7,1.1.8,1.8,0,.5.1,1.2.1,2.1v8.9h-3.8v-9c0-.5,0-1-.3-1.3-.3-.7-.9-1-1.8-1s-1.7.4-2.1,1.3c-.2.5-.3,1-.3,1.6v8.4h-3.7v-8.4c0-.8,0-1.5-.3-1.8-.3-.7-.9-1-1.8-1s-1.8.3-2.1,1c-.2.4-.3,1-.3,1.7v8.5h-3.8v-14.1h3.6v2.1c.5-.7.9-1.3,1.3-1.6.7-.6,1.7-.8,2.8-.8s2,.2,2.6.7c.5.4.9,1,1.2,1.7.5-.8,1.1-1.4,1.8-1.8.8-.4,1.6-.6,2.6-.6s1.2,0,1.9.4h-.1Z"/>
      <path class="cls-2" d="M355.2,779.9v-2.6h2v-4h3.7v4h2.3v2.6h-2.3v7.5c0,.6,0,.9.2,1.1,0,0,.6.2,1.4.2s.2,0,.4,0h.4v2.8h-1.8c-1.8,0-3-.2-3.6-.8s-.6-1.1-.6-2v-8.7h-2.1Z"/>
      <path class="cls-2" d="M377.4,789.6c-1.2,1.5-3,2.2-5.5,2.2s-4.3-.7-5.5-2.2-1.8-3.3-1.8-5.3.6-3.8,1.8-5.3,3-2.2,5.5-2.2,4.3.8,5.5,2.2c1.2,1.5,1.8,3.3,1.8,5.3s-.6,3.9-1.8,5.3ZM374.4,787.6c.6-.8.9-1.9.9-3.3s-.3-2.5-.9-3.3c-.6-.8-1.4-1.1-2.5-1.1s-1.9.4-2.5,1.1c-.6.8-.9,1.9-.9,3.3s.3,2.5.9,3.3c.6.8,1.4,1.2,2.5,1.2s1.9-.4,2.5-1.2Z"/>
      <path class="cls-2" d="M395.1,772h.8v3h-1c-.5,0-.8,0-1,.3-.2.2-.3.5-.3.8v1.2h2.4v2.6h-2.4v11.4h-3.7v-11.4h-2.1v-2.6h2v-.9c0-1.5.3-2.6.8-3.1.5-.9,1.8-1.3,3.9-1.3s.4,0,.6,0Z"/>
      <path class="cls-2" d="M401.9,775.5h-3.8v-3.4h3.8v3.4ZM398.1,777.2h3.8v14.2h-3.8v-14.2Z"/>
      <path class="cls-2" d="M416.9,778c.9.8,1.4,2,1.4,3.8v9.5h-3.8v-8.6c0-.7,0-1.3-.3-1.7-.4-.7-1.1-1.1-2.1-1.1s-2.1.5-2.6,1.6c-.2.6-.4,1.3-.4,2.2v7.7h-3.7v-14.1h3.6v2.1c.5-.7.9-1.3,1.3-1.6.8-.6,1.7-.9,2.9-.9s2.7.4,3.6,1.2h0Z"/>
      <path class="cls-2" d="M429.2,777.4c.7.4,1.2.9,1.6,1.6v-6.8h3.8v19.1h-3.6v-2c-.5.8-1.1,1.5-1.8,1.8-.7.4-1.5.6-2.5.6-1.7,0-3-.7-4.2-2-1.1-1.3-1.7-3.1-1.7-5.2s.6-4.3,1.7-5.7c1.1-1.4,2.6-2.1,4.5-2.1s1.6.2,2.3.6h0ZM430.1,787.5c.5-.8.8-1.8.8-3s-.4-3-1.3-3.7c-.5-.5-1.2-.7-1.9-.7-1.1,0-1.9.4-2.4,1.2s-.8,1.8-.8,3,.3,2.4.8,3.1c.5.8,1.3,1.2,2.3,1.2s1.8-.4,2.4-1.2h.1Z"/>
      <path class="cls-2" d="M463.1,777.2c.6.2,1.2.7,1.7,1.3.4.5.7,1.1.8,1.8v11h-3.8v-9c0-.5,0-1-.3-1.3-.3-.7-.9-1-1.8-1s-1.7.4-2.1,1.3c-.2.5-.3,1-.3,1.6v8.4h-3.7v-8.4c0-.8,0-1.5-.3-1.8-.3-.7-.9-1-1.8-1s-1.8.3-2.1,1c-.2.4-.3,1-.3,1.7v8.5h-3.8v-14.1h3.6v2.1c.5-.7.9-1.3,1.3-1.6.7-.6,1.7-.8,2.8-.8s2,.2,2.6.7c.5.4.9,1,1.2,1.7.5-.8,1.1-1.4,1.8-1.8.8-.4,1.6-.6,2.6-.6s1.2,0,1.8.4h0Z"/>
      <path class="cls-2" d="M480.9,789.6c-1.2,1.5-3,2.2-5.5,2.2s-4.3-.7-5.5-2.2-1.8-3.3-1.8-5.3.6-3.8,1.8-5.3,3-2.2,5.5-2.2,4.3.8,5.5,2.2c1.2,1.5,1.8,3.3,1.8,5.3s-.6,3.9-1.8,5.3ZM477.9,787.6c.6-.8.9-1.9.9-3.3s-.3-2.5-.9-3.3c-.6-.8-1.4-1.1-2.5-1.1s-1.9.4-2.5,1.1c-.6.8-.9,1.9-.9,3.3s.3,2.5.9,3.3c.6.8,1.4,1.2,2.5,1.2s1.9-.4,2.5-1.2Z"/>
      <path class="cls-2" d="M493.2,776.9h.3v3.8h-1c-1.5,0-2.5.5-3,1.5-.3.5-.4,1.4-.4,2.5v6.8h-3.7v-14.2h3.5v2.5c.6-.9,1.1-1.6,1.5-1.9.7-.6,1.6-.9,2.7-.9s0,0,.2,0h0Z"/>
      <path class="cls-2" d="M504.9,777.5c1,.4,1.8,1.1,2.4,2.1.6.8,1,1.8,1.1,2.9v2.8h-10.3c0,1.4.6,2.4,1.5,3,.6.4,1.2.5,2,.5s1.5-.2,2.1-.7c.3-.2.5-.6.8-1h3.8c0,.8-.6,1.7-1.4,2.6-1.3,1.4-3,2.1-5.3,2.1s-3.5-.6-5-1.7c-1.4-1.2-2.2-3.1-2.2-5.7s.7-4.3,2-5.7c1.3-1.3,3-2,5.1-2s2.3.2,3.3.7h.1ZM499.4,780.7c-.5.5-.9,1.3-1,2.2h6.4c0-1-.4-1.7-1-2.3-.6-.5-1.3-.8-2.2-.8s-1.7.3-2.2.8h0Z"/>
      <path class="cls-2" d="M526.6,777.2h4l-5.1,14.2h-3.9l-5.1-14.2h4.2l2.9,10.5,3-10.5h0Z"/>
      <path class="cls-2" d="M541.9,777.5c1,.4,1.8,1.1,2.4,2.1.6.8,1,1.8,1.1,2.9v2.8h-10.3c0,1.4.6,2.4,1.5,3,.6.4,1.2.5,2,.5s1.5-.2,2.1-.7c.3-.2.5-.6.8-1h3.8c0,.8-.6,1.7-1.4,2.6-1.3,1.4-3,2.1-5.3,2.1s-3.5-.6-5-1.7c-1.4-1.2-2.2-3.1-2.2-5.7s.7-4.3,2-5.7c1.3-1.3,3-2,5.1-2s2.3.2,3.3.7h.1ZM536.4,780.7c-.5.5-.9,1.3-1,2.2h6.4c0-1-.4-1.7-1-2.3-.6-.5-1.3-.8-2.2-.8s-1.7.3-2.2.8h0Z"/>
      <path class="cls-2" d="M556,782.3c0-.5-.2-1-.5-1.4-.4-.6-1.1-.9-1.9-.9-1.3,0-2.1.6-2.6,1.9-.2.7-.4,1.5-.4,2.6s0,1.9.4,2.5c.4,1.2,1.3,1.8,2.5,1.8s1.5-.2,1.8-.7c.4-.5.6-1.1.7-1.8h3.8c0,1.1-.5,2.2-1.2,3.2-1.2,1.6-2.9,2.4-5.2,2.4s-4-.7-5-2c-1.1-1.4-1.6-3.1-1.6-5.3s.6-4.3,1.8-5.7,2.8-2,4.9-2,3.2.4,4.4,1.2c1.1.8,1.8,2.2,2,4.2h-3.9Z"/>
      <path class="cls-2" d="M560.9,779.9v-2.6h2v-4h3.7v4h2.3v2.6h-2.3v7.5c0,.6,0,.9.2,1.1,0,0,.6.2,1.4.2s.2,0,.4,0h.4v2.8h-1.8c-1.8,0-3-.2-3.6-.8s-.6-1.1-.6-2v-8.7h-2.1Z"/>
      <path class="cls-2" d="M583,789.6c-1.2,1.5-3,2.2-5.5,2.2s-4.3-.7-5.5-2.2-1.8-3.3-1.8-5.3.6-3.8,1.8-5.3,3-2.2,5.5-2.2,4.3.8,5.5,2.2c1.2,1.5,1.8,3.3,1.8,5.3s-.6,3.9-1.8,5.3ZM580.1,787.6c.6-.8.9-1.9.9-3.3s-.3-2.5-.9-3.3c-.6-.8-1.4-1.1-2.5-1.1s-1.9.4-2.5,1.1c-.6.8-.9,1.9-.9,3.3s.3,2.5.9,3.3c.6.8,1.4,1.2,2.5,1.2s1.9-.4,2.5-1.2Z"/>
      <path class="cls-2" d="M595.3,776.9h.3v3.8h-1c-1.5,0-2.5.5-3,1.5-.3.5-.4,1.4-.4,2.5v6.8h-3.7v-14.2h3.5v2.5c.6-.9,1.1-1.6,1.5-1.9.7-.6,1.6-.9,2.7-.9s0,0,.2,0h0Z"/>
      <path class="cls-2" d="M609,791.4h-3.7v-19.2h3.7v19.2Z"/>
      <path class="cls-2" d="M624.4,789.6c-1.2,1.5-3,2.2-5.5,2.2s-4.3-.7-5.4-2.2c-1.2-1.5-1.8-3.3-1.8-5.3s.6-3.8,1.8-5.3,3-2.2,5.4-2.2,4.3.8,5.5,2.2c1.2,1.5,1.8,3.3,1.8,5.3s-.6,3.9-1.8,5.3ZM621.5,787.6c.6-.8.9-1.9.9-3.3s-.3-2.5-.9-3.3c-.6-.8-1.4-1.1-2.5-1.1s-1.9.4-2.5,1.1c-.6.8-.9,1.9-.9,3.3s.3,2.5.9,3.3c.6.8,1.4,1.2,2.5,1.2s1.9-.4,2.5-1.2Z"/>
      <path class="cls-2" d="M635.9,777.2c.9.4,1.6,1.1,2.2,2.1v-2.1h3.6v13.5c0,1.8-.3,3.2-.9,4.1-1.1,1.6-3.1,2.4-6.1,2.4s-3.3-.4-4.4-1.1c-1.1-.7-1.8-1.8-1.9-3.2h4c0,.4.3.7.5.9.4.3,1.1.5,2,.5s2.2-.4,2.7-1.3c.3-.6.4-1.5.4-2.9v-.9c-.4.6-.7,1.1-1.1,1.4-.7.6-1.7.8-2.9.8-1.8,0-3.3-.6-4.4-1.9-1.1-1.3-1.6-3-1.6-5.2s.5-3.9,1.6-5.3c1-1.4,2.5-2.2,4.4-2.2s1.3,0,1.9.3h0ZM637.1,787.3c.6-.7.9-1.7.9-3.1s-.3-2.4-.8-3.1c-.6-.7-1.3-1.1-2.3-1.1s-2.2.6-2.7,1.8c-.3.7-.4,1.5-.4,2.4s0,1.6.4,2.2c.5,1.2,1.4,1.8,2.7,1.8s1.6-.3,2.2-1h0Z"/>
      <path class="cls-2" d="M657,789.6c-1.2,1.5-3,2.2-5.4,2.2s-4.3-.7-5.5-2.2-1.8-3.3-1.8-5.3.6-3.8,1.8-5.3,3-2.2,5.5-2.2,4.3.8,5.4,2.2c1.2,1.5,1.8,3.3,1.8,5.3s-.6,3.9-1.8,5.3ZM654,787.6c.6-.8.9-1.9.9-3.3s-.3-2.5-.9-3.3c-.6-.8-1.4-1.1-2.5-1.1s-1.9.4-2.5,1.1c-.6.8-.9,1.9-.9,3.3s.3,2.5.9,3.3c.6.8,1.4,1.2,2.5,1.2s1.9-.4,2.5-1.2Z"/>
      <path class="cls-2" d="M664.3,786.8c0,.7.2,1.1.5,1.4.5.5,1.3.7,2.6.7s1.3,0,1.7-.3.6-.5.6-1-.2-.7-.5-.9-1.6-.6-3.9-1.1c-1.6-.4-2.7-.9-3.4-1.5s-1-1.4-1-2.5.5-2.4,1.5-3.4c1-.9,2.5-1.4,4.3-1.4s3.2.4,4.3,1.1c1.1.7,1.8,1.9,1.9,3.7h-3.7c0-.5-.2-.9-.4-1.1-.4-.5-1.1-.8-2.1-.8s-1.4,0-1.7.4c-.3.3-.5.5-.5.9s.2.7.5.9c.4.2,1.6.5,3.9,1,1.5.3,2.6.9,3.3,1.6.7.7,1.1,1.6,1.1,2.7s-.5,2.5-1.6,3.4c-1,.9-2.7,1.3-4.8,1.3s-3.9-.5-4.9-1.4c-1.1-.9-1.6-2.1-1.6-3.6h3.9Z"/>
    </g>
    <g>
      <path class="cls-2" d="M-149.4,803.3h2.3v9h5.5v2h-7.8v-11Z"/>
      <path class="cls-2" d="M-131.6,813.3c-.8.9-2,1.3-3.6,1.3s-2.8-.4-3.6-1.3c-1.1-1.1-1.7-2.6-1.7-4.5s.6-3.5,1.7-4.5c.8-.9,2-1.3,3.6-1.3s2.8.4,3.6,1.3c1.1,1,1.7,2.5,1.7,4.5s-.6,3.5-1.7,4.5ZM-133.1,811.6c.5-.7.8-1.6.8-2.9s-.3-2.2-.8-2.9-1.3-1-2.2-1-1.6.3-2.2,1c-.5.7-.8,1.6-.8,2.9s.3,2.2.8,2.9,1.3,1,2.2,1,1.6-.3,2.2-1Z"/>
      <path class="cls-2" d="M-120.8,806.7c-.2-.8-.6-1.3-1.3-1.6-.4-.2-.8-.2-1.3-.2-.9,0-1.6.3-2.2,1s-.9,1.7-.9,3,.3,2.3.9,2.9c.6.6,1.3.8,2.1.8s1.4-.2,1.9-.7c.5-.4.8-1,.9-1.7h-2.6v-1.8h4.6v5.9h-1.5l-.2-1.4c-.4.5-.8.9-1.2,1.1-.6.4-1.4.6-2.2.6-1.5,0-2.7-.5-3.6-1.5-1-1-1.5-2.4-1.5-4.2s.5-3.2,1.5-4.3,2.3-1.6,3.9-1.6,2.5.4,3.4,1.1c.8.7,1.3,1.6,1.5,2.7h-2.3,0Z"/>
      <path class="cls-2" d="M-107.8,813.3c-.8.9-2,1.3-3.6,1.3s-2.8-.4-3.6-1.3c-1.1-1.1-1.7-2.6-1.7-4.5s.6-3.5,1.7-4.5c.8-.9,2-1.3,3.6-1.3s2.8.4,3.6,1.3c1.1,1,1.7,2.5,1.7,4.5s-.6,3.5-1.7,4.5ZM-109.3,811.6c.5-.7.8-1.6.8-2.9s-.3-2.2-.8-2.9-1.3-1-2.2-1-1.6.3-2.2,1c-.5.7-.8,1.6-.8,2.9s.3,2.2.8,2.9,1.3,1,2.2,1,1.6-.3,2.2-1Z"/>
      <path class="cls-2" d="M-98.1,814.3h-2.3v-11h2.3v11Z"/>
      <path class="cls-2" d="M-94.3,810.9c0,.5.2.9.4,1.1.4.5,1,.7,2,.7s1,0,1.3-.2c.7-.2,1-.7,1-1.3s-.2-.6-.5-.8-.8-.4-1.5-.5l-1.2-.3c-1.2-.3-2-.5-2.4-.8-.7-.5-1.1-1.3-1.1-2.4s.4-1.8,1.1-2.5c.7-.7,1.8-1,3.2-1s2.2.3,3,.9c.8.6,1.3,1.5,1.3,2.7h-2.2c0-.7-.3-1.1-.9-1.4-.4-.2-.8-.3-1.4-.3s-1.1,0-1.5.4c-.4.2-.5.6-.5,1s.2.7.5.9c.2,0,.7.3,1.5.5l1.9.5c.8.2,1.5.5,1.9.8.7.5,1,1.3,1,2.2s-.4,1.8-1.2,2.5c-.8.7-1.9,1-3.3,1s-2.6-.3-3.4-1c-.8-.7-1.2-1.6-1.2-2.7h2.2,0Z"/>
      <path class="cls-2" d="M-73.5,803.3v2h-3.3v9.1h-2.3v-9.1h-3.3v-2h8.9Z"/>
      <path class="cls-2" d="M-72.1,814.3v-11h2.3v4.2h4.3v-4.2h2.3v11h-2.3v-4.9h-4.3v4.9h-2.3Z"/>
      <path class="cls-2" d="M-53,805.2h-5.8v2.3h5.3v1.9h-5.3v2.8h6.1v2h-8.3v-11h8.1v2h0Z"/>
      <path class="cls-2" d="M-45.6,804.4c.9-.9,2-1.4,3.4-1.4s3.2.6,4,1.8c.5.7.7,1.4.8,2.1h-2.3c0-.5-.3-.9-.6-1.2-.4-.5-1-.7-1.8-.7s-1.5.3-1.9,1c-.5.7-.7,1.6-.7,2.9s.2,2.2.7,2.8,1.1.9,1.9.9,1.4-.3,1.8-.8c.2-.3.4-.7.6-1.3h2.3c-.2,1.2-.7,2.2-1.5,2.9-.8.8-1.8,1.1-3.1,1.1s-2.8-.5-3.7-1.5c-.9-1-1.3-2.4-1.3-4.2s.5-3.4,1.5-4.4h-.1Z"/>
      <path class="cls-2" d="M-27.1,813.3c-.8.9-2,1.3-3.6,1.3s-2.8-.4-3.6-1.3c-1.1-1.1-1.7-2.6-1.7-4.5s.6-3.5,1.7-4.5c.8-.9,2-1.3,3.6-1.3s2.8.4,3.6,1.3c1.1,1,1.7,2.5,1.7,4.5s-.6,3.5-1.7,4.5ZM-28.6,811.6c.5-.7.8-1.6.8-2.9s-.3-2.2-.8-2.9-1.3-1-2.2-1-1.6.3-2.2,1c-.5.7-.8,1.6-.8,2.9s.3,2.2.8,2.9,1.3,1,2.2,1,1.6-.3,2.2-1Z"/>
      <path class="cls-2" d="M-16.3,809.5c-.6.5-1.6.8-2.8.8h-2.3v4h-2.3v-11h4.7c1.1,0,2,.3,2.6.9.6.6,1,1.4,1,2.6s-.3,2.2-1,2.8h.1ZM-18.1,805.5c-.3-.2-.7-.4-1.2-.4h-2.1v3.3h2.1c.5,0,.9,0,1.2-.4.3-.3.4-.7.4-1.3s-.1-1-.4-1.2h0Z"/>
      <path class="cls-2" d="M-7.2,803.3h2.6l-3.7,6.9v4.1h-2.3v-4.1l-3.8-6.9h2.7l2.3,4.8,2.2-4.8Z"/>
      <path class="cls-2" d="M3.7,803.5c.4.2.7.4,1,.8.2.3.4.6.6.9.1.3.2.7.2,1.2s-.1,1-.4,1.5c-.3.5-.7.9-1.3,1.1.5.2.9.5,1.1.9.2.4.3.9.3,1.7v1.7c0,.3.2.5.4.6v.3h-2.5c0-.2-.1-.4-.2-.6v-1.9c0-.7-.1-1.2-.4-1.4-.2-.2-.7-.4-1.3-.4H-1v4.3h-2.2v-11H2.1c.8,0,1.3,0,1.7.3h-.1ZM-1,805.2v3H1.5c.5,0,.9,0,1.1-.2.4-.2.7-.6.7-1.2s-.2-1.1-.6-1.3c-.2,0-.6-.2-1.1-.2H-1h0Z"/>
      <path class="cls-2" d="M9.8,814.3h-2.3v-11h2.3v11Z"/>
      <path class="cls-2" d="M19.4,806.7c-.2-.8-.6-1.3-1.3-1.6-.4-.2-.8-.2-1.3-.2-.9,0-1.6.3-2.2,1-.6.7-.9,1.7-.9,3s.3,2.3.9,2.9c.6.6,1.3.8,2.1.8s1.4-.2,1.9-.7c.5-.4.8-1,.9-1.7h-2.6v-1.8h4.6v5.9h-1.5l-.2-1.4c-.4.5-.8.9-1.2,1.1-.6.4-1.4.6-2.2.6-1.5,0-2.7-.5-3.6-1.5-1-1-1.5-2.4-1.5-4.2s.5-3.2,1.5-4.3,2.3-1.6,3.9-1.6,2.5.4,3.4,1.1c.8.7,1.3,1.6,1.5,2.7h-2.3.1Z"/>
      <path class="cls-2" d="M23.9,814.3v-11h2.3v4.2h4.3v-4.2h2.3v11h-2.3v-4.9h-4.3v4.9h-2.3Z"/>
      <path class="cls-2" d="M42.9,803.3v2h-3.3v9.1h-2.3v-9.1h-3.3v-2h8.9Z"/>
      <path class="cls-2" d="M57,813.3c-.8.9-2,1.3-3.6,1.3s-2.8-.4-3.6-1.3c-1.1-1.1-1.7-2.6-1.7-4.5s.6-3.5,1.7-4.5c.8-.9,2-1.3,3.6-1.3s2.8.4,3.6,1.3c1.1,1,1.7,2.5,1.7,4.5s-.6,3.5-1.7,4.5ZM55.5,811.6c.5-.7.8-1.6.8-2.9s-.3-2.2-.8-2.9-1.3-1-2.2-1-1.6.3-2.2,1c-.5.7-.8,1.6-.8,2.9s.3,2.2.8,2.9,1.3,1,2.2,1,1.6-.3,2.2-1Z"/>
      <path class="cls-2" d="M60.4,803.3h7.8v1.9h-5.6v2.5h4.9v1.9h-4.9v4.6h-2.3v-11h.1Z"/>
      <path class="cls-2" d="M82,803.3v2h-3.3v9.1h-2.3v-9.1h-3.3v-2h8.9Z"/>
      <path class="cls-2" d="M83.3,814.3v-11h2.3v4.2h4.3v-4.2h2.3v11h-2.3v-4.9h-4.3v4.9h-2.3Z"/>
      <path class="cls-2" d="M102.5,805.2h-5.8v2.3h5.3v1.9h-5.3v2.8h6.1v2h-8.3v-11h8.1v2h0Z"/>
      <path class="cls-2" d="M115.9,803.5c.4.2.7.4,1,.8.2.3.4.6.6.9.1.3.2.7.2,1.2s-.1,1-.4,1.5-.7.9-1.3,1.1c.5.2.9.5,1.1.9s.3.9.3,1.7v1.7c0,.3.2.5.4.6v.3h-2.5c0-.2-.1-.4-.2-.6v-1.9c0-.7-.1-1.2-.4-1.4-.2-.2-.7-.4-1.3-.4h-2.2v4.3h-2.3v-11h5.3c.8,0,1.3,0,1.7.3h0ZM111.1,805.2v3h2.5c.5,0,.9,0,1.1-.2.4-.2.7-.6.7-1.2s-.2-1.1-.6-1.3c-.2,0-.6-.2-1.1-.2h-2.6Z"/>
      <path class="cls-2" d="M128,805.2h-5.8v2.3h5.3v1.9h-5.3v2.8h6.1v2h-8.3v-11h8.1v2h-.1Z"/>
      <path class="cls-2" d="M131.7,810.9c0,.5.2.9.4,1.1.4.5,1,.7,2,.7s1,0,1.3-.2c.7-.2,1-.7,1-1.3s-.2-.6-.5-.8-.8-.4-1.5-.5l-1.2-.3c-1.2-.3-2-.5-2.4-.8-.7-.5-1.1-1.3-1.1-2.4s.4-1.8,1.1-2.5,1.8-1,3.2-1,2.2.3,3,.9c.8.6,1.3,1.5,1.3,2.7h-2.2c0-.7-.3-1.1-.9-1.4-.4-.2-.8-.3-1.4-.3s-1.1,0-1.5.4c-.4.2-.5.6-.5,1s.2.7.5.9c.2,0,.7.3,1.5.5l1.9.5c.8.2,1.5.5,1.9.8.7.5,1,1.3,1,2.2s-.4,1.8-1.2,2.5c-.8.7-1.9,1-3.3,1s-2.6-.3-3.4-1-1.2-1.6-1.2-2.7h2.2Z"/>
      <path class="cls-2" d="M147.7,809.5c-.6.5-1.6.8-2.8.8h-2.3v4h-2.3v-11h4.7c1.1,0,2,.3,2.6.9.6.6,1,1.4,1,2.6s-.3,2.2-1,2.8h0ZM145.9,805.5c-.3-.2-.7-.4-1.2-.4h-2.1v3.3h2.1c.5,0,.9,0,1.2-.4.3-.3.4-.7.4-1.3s-.1-1-.4-1.2h0Z"/>
      <path class="cls-2" d="M158.6,805.2h-5.8v2.3h5.3v1.9h-5.3v2.8h6.1v2h-8.3v-11h8.1v2h-.1Z"/>
      <path class="cls-2" d="M161.7,804.4c.9-.9,2-1.4,3.4-1.4s3.2.6,4,1.8c.5.7.7,1.4.8,2.1h-2.3c-.1-.5-.3-.9-.6-1.2-.4-.5-1-.7-1.8-.7s-1.5.3-1.9,1c-.5.7-.7,1.6-.7,2.9s.2,2.2.7,2.8,1.1.9,1.9.9,1.4-.3,1.8-.8c.2-.3.4-.7.6-1.3h2.3c-.2,1.2-.7,2.2-1.5,2.9-.8.8-1.8,1.1-3.1,1.1s-2.8-.5-3.7-1.5c-.9-1-1.3-2.4-1.3-4.2s.5-3.4,1.5-4.4h0Z"/>
      <path class="cls-2" d="M179.7,803.3v2h-3.3v9.1h-2.3v-9.1h-3.3v-2h8.9,0Z"/>
      <path class="cls-2" d="M183.1,814.3h-2.3v-11h2.3v11Z"/>
      <path class="cls-2" d="M191.7,803.3h2.4l-3.7,11h-2.2l-3.7-11h2.5l2.4,8.4,2.4-8.4h0Z"/>
      <path class="cls-2" d="M203.6,805.2h-5.8v2.3h5.3v1.9h-5.3v2.8h6.1v2h-8.3v-11h8.1v2h-.1Z"/>
      <path class="cls-2" d="M218.4,813.3c-.8.9-2,1.3-3.6,1.3s-2.8-.4-3.6-1.3c-1.1-1.1-1.7-2.6-1.7-4.5s.6-3.5,1.7-4.5c.8-.9,2-1.3,3.6-1.3s2.8.4,3.6,1.3c1.1,1,1.7,2.5,1.7,4.5s-.6,3.5-1.7,4.5ZM217,811.6c.5-.7.8-1.6.8-2.9s-.3-2.2-.8-2.9-1.3-1-2.2-1-1.6.3-2.2,1c-.5.7-.8,1.6-.8,2.9s.3,2.2.8,2.9,1.3,1,2.2,1,1.6-.3,2.2-1Z"/>
      <path class="cls-2" d="M223.3,803.3l1.5,6.3.3,1.8.3-1.7,1.2-6.3h2.4l1.3,6.3.3,1.8.3-1.7,1.5-6.4h2.3l-3.1,11h-2.2l-1.3-6.4-.4-2.1-.4,2.1-1.3,6.4h-2.1l-3.1-11h2.5Z"/>
      <path class="cls-2" d="M236.2,803.3h2.4l4.4,7.7v-7.7h2.1v11h-2.3l-4.5-7.8v7.8h-2.1v-11Z"/>
      <path class="cls-2" d="M255.4,805.2h-5.8v2.3h5.3v1.9h-5.3v2.8h6.1v2h-8.3v-11h8.1v2h-.1Z"/>
      <path class="cls-2" d="M264.5,803.5c.4.2.7.4,1,.8.2.3.4.6.6.9.1.3.2.7.2,1.2s-.1,1-.4,1.5-.7.9-1.3,1.1c.5.2.9.5,1.1.9s.3.9.3,1.7v1.7c0,.3.2.5.4.6v.3h-2.5c0-.2-.1-.4-.2-.6v-1.9c0-.7-.1-1.2-.4-1.4-.2-.2-.7-.4-1.3-.4h-2.2v4.3h-2.2v-11h5.3c.8,0,1.3,0,1.7.3h-.1ZM259.8,805.2v3h2.5c.5,0,.9,0,1.1-.2.4-.2.7-.6.7-1.2s-.2-1.1-.6-1.3c-.2,0-.6-.2-1.1-.2h-2.6Z"/>
      <path class="cls-2" d="M268.3,812h2.3v2.2h-2.3v-2.2Z"/>
      <path class="cls-2" d="M277,803.3h2.3v9h5.5v2h-7.8v-11Z"/>
      <path class="cls-2" d="M288.5,814.3h-2.3v-11h2.3v11Z"/>
      <path class="cls-2" d="M291.7,804.4c.9-.9,2-1.4,3.4-1.4s3.2.6,4,1.8c.5.7.7,1.4.8,2.1h-2.3c-.1-.5-.3-.9-.6-1.2-.4-.5-1-.7-1.8-.7s-1.5.3-1.9,1c-.5.7-.7,1.6-.7,2.9s.2,2.2.7,2.8,1.1.9,1.9.9,1.4-.3,1.8-.8c.2-.3.4-.7.6-1.3h2.3c-.2,1.2-.7,2.2-1.5,2.9-.8.8-1.8,1.1-3.1,1.1s-2.8-.5-3.7-1.5c-.9-1-1.3-2.4-1.3-4.2s.5-3.4,1.5-4.4h0Z"/>
      <path class="cls-2" d="M309.8,805.2h-5.8v2.3h5.3v1.9h-5.3v2.8h6.1v2h-8.3v-11h8.1v2h-.1Z"/>
      <path class="cls-2" d="M311.8,803.3h2.4l4.4,7.7v-7.7h2.1v11h-2.3l-4.5-7.8v7.8h-2.1v-11Z"/>
      <path class="cls-2" d="M324.6,810.9c0,.5.2.9.4,1.1.4.5,1,.7,2,.7s1,0,1.3-.2c.7-.2,1-.7,1-1.3s-.2-.6-.5-.8-.8-.4-1.5-.5l-1.2-.3c-1.2-.3-2-.5-2.4-.8-.7-.5-1.1-1.3-1.1-2.4s.4-1.8,1.1-2.5,1.8-1,3.2-1,2.2.3,3,.9c.8.6,1.3,1.5,1.3,2.7h-2.2c0-.7-.3-1.1-.9-1.4-.4-.2-.8-.3-1.4-.3s-1.1,0-1.5.4c-.4.2-.5.6-.5,1s.2.7.5.9c.2,0,.7.3,1.5.5l1.9.5c.8.2,1.5.5,1.9.8.7.5,1,1.3,1,2.2s-.4,1.8-1.2,2.5c-.8.7-1.9,1-3.3,1s-2.6-.3-3.4-1-1.2-1.6-1.2-2.7h2.2Z"/>
      <path class="cls-2" d="M341.3,805.2h-5.8v2.3h5.3v1.9h-5.3v2.8h6.1v2h-8.3v-11h8.1v2h-.1Z"/>
      <path class="cls-2" d="M343.9,806.4h2.3v2.2h-2.3v-2.2ZM343.9,812h2.3v2.2h-2.3v-2.2Z"/>
      <path class="cls-2" d="M353.7,804.4c.9-.9,2-1.4,3.4-1.4s3.2.6,4,1.8c.5.7.7,1.4.8,2.1h-2.3c0-.5-.3-.9-.6-1.2-.4-.5-1-.7-1.8-.7s-1.5.3-1.9,1c-.5.7-.7,1.6-.7,2.9s.3,2.2.8,2.8,1.1.9,1.9.9,1.4-.3,1.8-.8c.2-.3.4-.7.6-1.3h2.3c-.2,1.2-.7,2.2-1.5,2.9-.8.8-1.8,1.1-3.1,1.1s-2.8-.5-3.7-1.5c-.9-1-1.3-2.4-1.3-4.2s.5-3.4,1.5-4.4h-.2,0Z"/>
      <path class="cls-2" d="M364.7,804.4c.9-.9,2-1.4,3.4-1.4s3.2.6,4,1.8c.5.7.7,1.4.8,2.1h-2.3c0-.5-.3-.9-.6-1.2-.4-.5-1-.7-1.8-.7s-1.5.3-1.9,1c-.5.7-.7,1.6-.7,2.9s.2,2.2.7,2.8,1.1.9,1.9.9,1.4-.3,1.8-.8c.2-.3.4-.7.6-1.3h2.3c-.2,1.2-.7,2.2-1.5,2.9-.8.8-1.8,1.1-3.1,1.1s-2.8-.5-3.7-1.5-1.3-2.4-1.3-4.2.5-3.4,1.5-4.4h-.1Z"/>
      <path class="cls-2" d="M380.3,811c0,.4,0,.8.2,1.1.3.5.7.8,1.4.8s.8,0,1.1-.4c.3-.3.5-.7.5-1.2s-.3-1.2-.9-1.4c-.3,0-.8-.2-1.5-.2v-1.5c.7,0,1.2,0,1.4-.2.5-.2.7-.6.7-1.3s0-.8-.4-1c-.2-.3-.6-.4-1-.4s-.9.2-1.1.5c-.2.3-.3.7-.3,1.3h-2c0-.5,0-1,.3-1.5.2-.4.4-.8.8-1.2.3-.3.6-.4,1-.6.4,0,.9-.2,1.4-.2,1,0,1.9.3,2.5.8s1,1.3,1,2.2-.2,1.2-.6,1.6c-.2.3-.5.5-.7.6.2,0,.5.2.8.5.5.5.8,1.2.8,2.1s-.3,1.7-1,2.4c-.6.7-1.6,1-2.8,1s-2.6-.5-3.2-1.5c-.3-.5-.5-1.2-.5-2.1h2.1v-.2h0Z"/>
      <path class="cls-2" d="M387.3,812h2.3v2.2h-2.3v-2.2Z"/>
      <path class="cls-2" d="M397.7,804.8c.6,1,.8,2.4.8,4.1s-.3,3.2-.8,4.1c-.6,1-1.5,1.4-2.9,1.4s-2.3-.5-2.9-1.4c-.6-1-.8-2.3-.8-4.1s.3-3.2.8-4.1c.6-1,1.5-1.5,2.9-1.5s2.3.5,2.9,1.5ZM393.5,811.8c.2.7.6,1,1.3,1s1-.3,1.2-1,.3-1.6.3-2.9,0-2.3-.3-2.9c-.2-.6-.6-.9-1.2-.9s-1,.3-1.3.9c-.2.6-.3,1.6-.3,2.9s0,2.2.3,2.9Z"/>
      <path class="cls-2" d="M404.4,803.3h2.4l4.4,7.7v-7.7h2.1v11h-2.3l-4.5-7.8v7.8h-2.1v-11h0Z"/>
      <path class="cls-2" d="M424,813.3c-.8.9-2,1.3-3.6,1.3s-2.8-.4-3.6-1.3c-1.1-1.1-1.7-2.6-1.7-4.5s.6-3.5,1.7-4.5c.8-.9,2-1.3,3.6-1.3s2.8.4,3.6,1.3c1.1,1,1.7,2.5,1.7,4.5s-.6,3.5-1.7,4.5ZM422.6,811.6c.5-.7.8-1.6.8-2.9s-.3-2.2-.8-2.9-1.3-1-2.2-1-1.6.3-2.2,1c-.5.7-.8,1.6-.8,2.9s.3,2.2.8,2.9,1.3,1,2.2,1,1.6-.3,2.2-1Z"/>
      <path class="cls-2" d="M427.4,803.3h2.4l4.4,7.7v-7.7h2.1v11h-2.3l-4.5-7.8v7.8h-2.1v-11h0Z"/>
      <path class="cls-2" d="M437.6,809h4.2v2h-4.2v-2Z"/>
      <path class="cls-2" d="M444.6,804.4c.9-.9,2-1.4,3.4-1.4s3.2.6,4,1.8c.5.7.7,1.4.8,2.1h-2.3c0-.5-.3-.9-.6-1.2-.4-.5-1-.7-1.8-.7s-1.5.3-1.9,1c-.5.7-.7,1.6-.7,2.9s.2,2.2.7,2.8,1.1.9,1.9.9,1.4-.3,1.8-.8c.2-.3.4-.7.6-1.3h2.3c-.2,1.2-.7,2.2-1.5,2.9-.8.8-1.8,1.1-3.1,1.1s-2.8-.5-3.7-1.5-1.3-2.4-1.3-4.2.5-3.4,1.5-4.4h-.1Z"/>
      <path class="cls-2" d="M463.1,813.3c-.8.9-2,1.3-3.6,1.3s-2.8-.4-3.6-1.3c-1.1-1.1-1.7-2.6-1.7-4.5s.6-3.5,1.7-4.5c.8-.9,2-1.3,3.6-1.3s2.8.4,3.6,1.3c1.1,1,1.7,2.5,1.7,4.5s-.6,3.5-1.7,4.5ZM461.6,811.6c.5-.7.8-1.6.8-2.9s-.3-2.2-.8-2.9-1.3-1-2.2-1-1.6.3-2.2,1c-.5.7-.8,1.6-.8,2.9s.3,2.2.8,2.9,1.3,1,2.2,1,1.6-.3,2.2-1Z"/>
      <path class="cls-2" d="M473.8,803.3h3.3v11h-2.1v-9.2l-2.1,9.2h-2.2l-2.1-9.2v9.2h-2.1v-11h3.3l2,8.7,2-8.7h0Z"/>
      <path class="cls-2" d="M486.5,803.3h3.3v11h-2.1v-9.2l-2.1,9.2h-2.2l-2.1-9.2v9.2h-2.1v-11h3.3l2,8.7,2-8.7h0Z"/>
      <path class="cls-2" d="M500.1,805.2h-5.8v2.3h5.3v1.9h-5.3v2.8h6.1v2h-8.3v-11h8.1v2h0Z"/>
      <path class="cls-2" d="M509.2,803.5c.4.2.7.4,1,.8.2.3.4.6.6.9,0,.3.2.7.2,1.2s0,1-.4,1.5c-.3.5-.7.9-1.3,1.1.5.2.9.5,1.1.9.2.4.3.9.3,1.7v1.7c0,.3.2.5.4.6v.3h-2.5c0-.2,0-.4-.2-.6v-1.9c0-.7,0-1.2-.4-1.4-.2-.2-.7-.4-1.3-.4h-2.2v4.3h-2.2v-11h5.3c.8,0,1.3,0,1.7.3h0ZM504.5,805.2v3h2.5c.5,0,.9,0,1.1-.2.4-.2.7-.6.7-1.2s-.2-1.1-.6-1.3c-.2,0-.6-.2-1.1-.2h-2.6Z"/>
      <path class="cls-2" d="M514.3,804.4c.9-.9,2-1.4,3.4-1.4s3.2.6,4,1.8c.5.7.7,1.4.8,2.1h-2.3c0-.5-.3-.9-.6-1.2-.4-.5-1-.7-1.8-.7s-1.5.3-1.9,1c-.5.7-.7,1.6-.7,2.9s.2,2.2.7,2.8,1.1.9,1.9.9,1.4-.3,1.8-.8c.2-.3.4-.7.6-1.3h2.3c-.2,1.2-.7,2.2-1.5,2.9-.8.8-1.8,1.1-3.1,1.1s-2.8-.5-3.7-1.5-1.3-2.4-1.3-4.2.5-3.4,1.5-4.4h-.1Z"/>
      <path class="cls-2" d="M526.4,814.3h-2.3v-11h2.3v11Z"/>
      <path class="cls-2" d="M531.6,803.3h2.6l3.9,11h-2.5l-.7-2.3h-4.1l-.7,2.3h-2.4l3.9-11ZM531.5,810.1h2.8l-1.4-4.3-1.4,4.3h0Z"/>
      <path class="cls-2" d="M539.5,803.3h2.3v9h5.5v2h-7.8v-11Z"/>
      <path class="cls-2" d="M560.3,809.5c-.6.5-1.6.8-2.8.8h-2.3v4h-2.3v-11h4.7c1.1,0,2,.3,2.6.9.6.6,1,1.4,1,2.6s-.3,2.2-1,2.8h0ZM558.5,805.5c-.3-.2-.7-.4-1.2-.4h-2.1v3.3h2.1c.5,0,.9,0,1.2-.4.3-.3.4-.7.4-1.3s0-1-.4-1.2h0Z"/>
      <path class="cls-2" d="M571.2,805.2h-5.8v2.3h5.3v1.9h-5.3v2.8h6.1v2h-8.3v-11h8.1v2h0Z"/>
      <path class="cls-2" d="M580.3,803.5c.4.2.7.4,1,.8.2.3.4.6.6.9,0,.3.2.7.2,1.2s0,1-.4,1.5c-.3.5-.7.9-1.3,1.1.5.2.9.5,1.1.9.2.4.3.9.3,1.7v1.7c0,.3.2.5.4.6v.3h-2.5c0-.2,0-.4-.2-.6v-1.9c0-.7,0-1.2-.4-1.4-.2-.2-.7-.4-1.3-.4h-2.2v4.3h-2.2v-11h5.3c.8,0,1.3,0,1.7.3h0ZM575.6,805.2v3h2.5c.5,0,.9,0,1.1-.2.4-.2.7-.6.7-1.2s-.2-1.1-.6-1.3c-.2,0-.6-.2-1.1-.2h-2.6Z"/>
      <path class="cls-2" d="M586,810.9c0,.5.2.9.4,1.1.4.5,1,.7,2,.7s1,0,1.3-.2c.7-.2,1-.7,1-1.3s-.2-.6-.5-.8-.8-.4-1.5-.5l-1.2-.3c-1.2-.3-2-.5-2.4-.8-.7-.5-1.1-1.3-1.1-2.4s.4-1.8,1.1-2.5c.7-.7,1.8-1,3.2-1s2.2.3,3,.9c.8.6,1.3,1.5,1.3,2.7h-2.2c0-.7-.3-1.1-.9-1.4-.4-.2-.8-.3-1.4-.3s-1.1,0-1.5.4c-.4.2-.5.6-.5,1s.2.7.5.9c.2,0,.7.3,1.5.5l1.9.5c.8.2,1.5.5,1.9.8.7.5,1,1.3,1,2.2s-.4,1.8-1.2,2.5-1.9,1-3.3,1-2.6-.3-3.4-1c-.8-.7-1.2-1.6-1.2-2.7h2.2Z"/>
      <path class="cls-2" d="M603,813.3c-.8.9-2,1.3-3.6,1.3s-2.8-.4-3.6-1.3c-1.1-1.1-1.7-2.6-1.7-4.5s.6-3.5,1.7-4.5c.8-.9,2-1.3,3.6-1.3s2.8.4,3.6,1.3c1.1,1,1.7,2.5,1.7,4.5s-.6,3.5-1.7,4.5ZM601.5,811.6c.5-.7.8-1.6.8-2.9s-.3-2.2-.8-2.9-1.3-1-2.2-1-1.6.3-2.2,1c-.5.7-.8,1.6-.8,2.9s.3,2.2.8,2.9,1.3,1,2.2,1,1.6-.3,2.2-1Z"/>
      <path class="cls-2" d="M606.4,803.3h2.4l4.4,7.7v-7.7h2.1v11h-2.3l-4.5-7.8v7.8h-2.1v-11h0Z"/>
      <path class="cls-2" d="M620.6,803.3h2.6l3.9,11h-2.5l-.7-2.3h-4.1l-.7,2.3h-2.4l3.9-11ZM620.4,810.1h2.8l-1.4-4.3-1.4,4.3h0Z"/>
      <path class="cls-2" d="M628.5,803.3h2.3v9h5.5v2h-7.8v-11Z"/>
      <path class="cls-2" d="M641.8,803.3h2.3v6.8c0,.8,0,1.3.3,1.7.3.6.9.9,1.8.9s1.5-.3,1.8-.9c.2-.3.3-.9.3-1.7v-6.8h2.3v6.8c0,1.2-.2,2.1-.5,2.7-.7,1.2-2,1.8-3.9,1.8s-3.2-.6-3.9-1.8c-.4-.7-.5-1.6-.5-2.7v-6.8h0Z"/>
      <path class="cls-2" d="M654.5,810.9c0,.5.2.9.4,1.1.4.5,1,.7,2,.7s1,0,1.3-.2c.7-.2,1-.7,1-1.3s-.2-.6-.5-.8-.8-.4-1.5-.5l-1.2-.3c-1.2-.3-2-.5-2.4-.8-.7-.5-1.1-1.3-1.1-2.4s.4-1.8,1.1-2.5c.7-.7,1.8-1,3.2-1s2.2.3,3,.9c.8.6,1.3,1.5,1.3,2.7h-2.2c0-.7-.3-1.1-.9-1.4-.4-.2-.8-.3-1.4-.3s-1.1,0-1.5.4c-.4.2-.5.6-.5,1s.2.7.5.9c.2,0,.7.3,1.5.5l1.9.5c.8.2,1.5.5,1.9.8.7.5,1,1.3,1,2.2s-.4,1.8-1.2,2.5-1.9,1-3.3,1-2.6-.3-3.4-1c-.8-.7-1.2-1.6-1.2-2.7h2.2Z"/>
      <path class="cls-2" d="M671.2,805.2h-5.8v2.3h5.3v1.9h-5.3v2.8h6.1v2h-8.3v-11h8.1v2h0Z"/>
      <path class="cls-2" d="M673,812h2.3v2.2h-2.3v-2.2Z"/>
    </g>
  </g>
  <g id="Vector_Logo" data-name="Vector Logo">
    <path class="cls-1" d="M247.9,142.6l-33.9-105.5c-.4-1.3-1-2.5-1.8-3.4-.9-.9-1.9-1.4-3.1-1.4-2.7,0-4.5,1.6-5.5,4.9l-33.5,105.3-33.5-.2,36.8-118.4c2.4-7.7,7-13.6,13.6-17.7C193.6,2.1,201.1,0,209.4,0,224.6,0,235.6,6.8,242.3,20.2l1.3,2.6,27.6,87.9,1.1,2h72.8c3.5,0,6.5-1.3,8.9-4s3.6-5.9,3.6-9.6-.9-5.7-2.7-7.9c-1.8-2.2-4-3.3-6.7-3.3h-45.5c-10.7,0-19.7-4.6-26.8-13.7-6.7-8.5-10-18.6-10-30.2s3.3-21.8,10.1-29.3c7.3-8.2,17.8-12.3,31.5-12.3h75.2v29.8h-73.8c-3.4,0-6.2,1.4-8.2,4.3-2.1,2.9-3.1,6.2-3.1,9.9s1,6.1,2.9,8.5,4.4,3.5,7.5,3.5h39.4c11.7,0,21.5,3.7,29.5,11s12,17.1,12,29.3-3.4,21.8-10.3,30.3c-7.2,8.9-16.2,13.4-27,13.4h-103.8v.2h.1ZM31.4,39c0-1.8.5-3.5,1.4-5s2.2-2.4,3.7-2.6c1.8-.4,3.4,0,4.8,1.2,1.4,1.2,2.4,2.7,3,4.7l1.6,5.3,23,80.8c2.3,7.9,7.2,13.9,14.8,17.9,6.5,3.4,14.5,5.1,24.1,5.1s19.2-3.2,24.9-9.5c5.6-6.3,8.4-15.4,8.4-27.1V3.3h-31.6v107.6c0,2.6-1.4,4.1-4.2,4.6-1.6.4-3,0-4.3-1.2s-2.2-2.6-2.7-4.3l-3.1-9.7-20.1-71c-2.6-9-7.4-16.1-14.5-21.3S45.3.2,35.9.2,16.1,2.3,10.6,6.6C3.5,12.2,0,21.9,0,35.8v106.8h31.3V39.2h0v-.2h.1ZM419.2,23.3c2.3-7.7,6.7-13.5,13-17.4s13.8-5.9,22.3-5.9,15.7,2,21.9,5.9,10.4,9.6,12.7,17l37.5,119.7h-31.5l-36.2-107.5c-.7-2.3-2.1-3.5-4.2-3.5s-3.3,1.2-4,3.5l-35.5,107.5h-33.1l37.2-119.3h-.1Z"/>
  </g>
</svg>