<?xml version="1.0" encoding="UTF-8"?>
<svg id="Logo" xmlns="http://www.w3.org/2000/svg" version="1.1" viewBox="0 0 98.4 29.7">
  <!-- Generator: Adobe Illustrator 29.2.1, SVG Export Plug-In . SVG Version: 2.1.0 Build 116)  -->
  <defs>
    <style>
      .st0 {
        fill: #c0c9db;
      }
    </style>
  </defs>
  <path class="st0" d="M61.4,20.5h-1.6c-.5,0-.8-.3-.8-.8v-9.5c0-.5.3-.8.8-.8h1.6c.5,0,.8.3.8.8v9.5c0,.4-.3.8-.8.8ZM61.4,8.6h-1.6c-.5,0-.8-.3-.8-.8v-1.6c0-.5.3-.8.8-.8h1.6c.5,0,.8.3.8.8v1.6c0,.5-.3.8-.8.8ZM53.5,9.4c-1.7,0-2.4,1.3-2.4,1.3v-4.4c0-.5-.3-.8-.8-.8h-1.6c-.5,0-.8.3-.8.8v13.4c0,.5.3.8.8.8h1.6c.5,0,.8-.3.8-.8v-6.3c0-.9.7-1.6,1.6-1.6s1.6.7,1.6,1.6v6.3c0,.5.3.8.8.8h1.6c.5,0,.8-.3.8-.8v-5.5c0-2.7-.6-4.8-4-4.8ZM41.7,20.4c-3.2,0-4.6-1.8-4.7-3,0-.2,0-.4.2-.6s.4-.2.6-.2h1.7c.3,0,.6.2.6.5.2.5.6,1.1,1.6,1.1s1.7,0,1.7-.9-1.3-1.2-2.4-1.4c-.3-.1-.6-.2-.9-.2h-.3c-1.4-.6-2.8-1-2.8-3.1s1.7-3.1,4.7-3.1,4.4,1.8,4.6,2.9c0,.2,0,.5-.2.6-.2.2-.3.2-.6.2h-1.7c-.3,0-.6-.2-.6-.5-.2-.5-.6-1.1-1.6-1.1s-1.7.5-1.7.9c0,.7.9.9,2.1,1.1,1.9.4,4.3.9,4.3,3.6,0,1.3-.9,3.2-4.6,3.2ZM93,9.5c-3.4,0-5.4,2.1-5.4,5.4s2.1,5.4,5.4,5.4,5.4-2.1,5.4-5.4-2-5.4-5.4-5.4ZM93,18.1c-1.6,0-2.4-1.4-2.4-3.2s.8-3.2,2.4-3.2,2.4,1.4,2.4,3.2c0,1.8-.8,3.2-2.4,3.2ZM81.9,9.4c-2.3,0-3.1,1.6-3.2,1.6v-.8c0-.5-.3-.8-.8-.8h-1.6c-.5,0-.8.3-.8.8v13.4c0,.5.3.8.8.8h1.6c.5,0,.8-.3.8-.8v-4.7s.9,1.6,3.2,1.6,4.7-2.1,4.7-5.5c0-3.3-1.9-5.6-4.7-5.6ZM81.1,18.1c-1.6,0-2.4-1.4-2.4-3.2s.8-3.2,2.4-3.2,2.4,1.4,2.4,3.2-.8,3.2-2.4,3.2ZM70.1,9.4c-2.3,0-3.1,1.6-3.2,1.6v-.8c0-.5-.3-.8-.8-.8h-1.6c-.5,0-.8.3-.8.8v13.4c0,.5.3.8.8.8h1.7c.5,0,.8-.3.8-.8v-4.7s.9,1.6,3.2,1.6,4.7-2.1,4.7-5.5c0-3.3-2-5.6-4.8-5.6ZM69.3,18.1c-1.6,0-2.4-1.4-2.4-3.2s.8-3.2,2.4-3.2,2.4,1.4,2.4,3.2-.8,3.2-2.4,3.2ZM32.2,11.8c0-3.5-2.8-6.3-6.3-6.3s-3.9,1.2-7.1,1.6c-1.9.2-1.8-.8-3.9-.8s-3.2.8-3.2.8c0,0-1.5-1.8-2.4-1.6-1.2.4,0,3.9,0,3.9,0,0-.8,1.6-2.4,3.2s-3.9,1.8-5.4,2.2C1.6,7.5,7.5,1.6,14.8,1.6s6.1,1.1,8.4,3c.6-.2,1.3-.2,2-.3C22.5,1.7,18.9,0,14.8,0,6.7,0,0,6.7,0,14.9s6.7,14.8,14.9,14.8,13.2-5,14.5-11.8c-.6.3-1.3.6-1.9.9-1.7,5.2-6.4,9.1-12.1,9.3.8-1.3,2.6-3.9,5-6.2,5.2-4.9,11.8-4.1,11.8-10.1ZM16.1,11c-.6,0-1.2-.6-1.2-1.2s.6-1.2,1.2-1.2,1.2.6,1.2,1.2-.6,1.2-1.2,1.2Z"/>
</svg>