<?xml version="1.0" encoding="UTF-8"?>
<svg id="Layer_1" data-name="Layer 1" xmlns="http://www.w3.org/2000/svg" xmlns:rdf="http://www.w3.org/1999/02/22-rdf-syntax-ns#" xmlns:dc="http://purl.org/dc/elements/1.1/" xmlns:cc="http://creativecommons.org/ns#" version="1.1" width="65" height="20" viewBox="0 0 890.2 272.2">
  <defs>
    <style>
      .cls-1 {
        fill: #c0c9db;
        stroke-width: 0px;
      }
    </style>
  </defs>
  <g>
    <path class="cls-1" d="M741.5,136.1l73.4-83c10.5-11.9,9.4-30.1-2.5-40.6-11.9-10.5-30.1-9.4-40.6,2.5l-68.7,77.7-68.7-77.7c-10.5-11.9-28.7-13-40.6-2.5-11.9,10.5-13,28.7-2.5,40.6l73.4,83-73.4,83c-10.5,11.9-9.4,30.1,2.5,40.6,11.9,10.5,30.1,9.4,40.6-2.5l68.7-77.7,68.7,77.7c10.5,11.9,28.7,13,40.6,2.5,11.9-10.5,13-28.7,2.5-40.6l-73.4-83Z"/>
    <path class="cls-1" d="M400.6,272.2c-75,0-136.1-61-136.1-136.1S325.6,0,400.6,0s136.1,61,136.1,136.1-61.1,136.1-136.1,136.1h0ZM400.6,57.5c-43.4,0-78.6,35.3-78.6,78.6s35.3,78.6,78.6,78.6,78.6-35.3,78.6-78.6-35.3-78.6-78.6-78.6h0Z"/>
    <path class="cls-1" d="M136.1,272.2C61,272.2,0,211.2,0,136.1S61,0,136.1,0s48.3,6.5,69.2,18.9c13.7,8.1,18.2,25.7,10.1,39.4-8.1,13.7-25.7,18.2-39.4,10.1-12-7.1-25.9-10.9-39.9-10.9-43.4,0-78.6,35.3-78.6,78.6s35.3,78.6,78.6,78.6,27.9-3.8,39.9-10.9c13.7-8.1,31.3-3.6,39.4,10.1,8.1,13.7,3.6,31.3-10.1,39.4-20.9,12.4-44.8,18.9-69.2,18.9h0Z"/>
  </g>
  <path class="cls-1" d="M866.7,217.5c3.9,0,7.8,1,11.6,3.1,3.8,2,6.7,4.9,8.8,8.7,2.1,3.8,3.1,7.7,3.1,11.8s-1,7.9-3.1,11.7c-2.1,3.7-5,6.6-8.7,8.7-3.7,2.1-7.6,3.1-11.7,3.1s-8-1-11.7-3.1c-3.7-2.1-6.6-5-8.7-8.7s-3.1-7.6-3.1-11.7,1-8,3.1-11.8c2.1-3.8,5.1-6.7,8.8-8.7,3.8-2,7.6-3.1,11.6-3.1h0ZM866.7,221.4c-3.3,0-6.5.9-9.7,2.6-3.1,1.7-5.6,4.1-7.3,7.3-1.8,3.1-2.6,6.4-2.6,9.8s.9,6.6,2.6,9.8c1.7,3.1,4.2,5.5,7.3,7.3,3.1,1.7,6.4,2.6,9.8,2.6s6.6-.9,9.8-2.6c3.1-1.7,5.5-4.2,7.3-7.3,1.7-3.1,2.6-6.4,2.6-9.8s-.9-6.7-2.6-9.8c-1.7-3.2-4.2-5.6-7.3-7.3-3.1-1.7-6.3-2.6-9.6-2.6h0ZM857.3,254.1v-25.3h8.7c3,0,4.5.2,5.8.7,1.3.5,2,1.3,2.8,2.4.8,1.2,1.2,2.4,1.2,3.7,0,3.1-.6,5.6-4.6,7.7l7.4,10.8h-5c-2.8-4.2-6.9-10-6.9-10h-5.2v10h-4.1ZM861.4,240.6h5c2.4,0,4-.8,4.6-1.7.6-.9.9-1.9.9-2.9,0-.7-.2-1.4-.6-2-.4-.6-1-1-1.7-1.3-.7-.3-1.4-.4-3.4-.4h-4.6v8.4Z"/>
</svg>