<?xml version="1.0" encoding="UTF-8"?>
<svg id="Knockout" xmlns="http://www.w3.org/2000/svg" version="1.1" viewBox="0 0 589.5 625">
  <defs>
    <style>
      .st0 {
        fill: #f58120;
      }

      .st1 {
        fill: #fff;
      }

      .st2 {
        fill: #423b70;
      }
    </style>
  </defs>
  <path class="st2" d="M294.8,0h0c-14.1,0-28.1,3.6-40.4,10.3L62.7,114.4C24,135.4,0,175.8,0,219.8v180.3C0,444.2,24,484.6,62.7,505.6l191.6,104.1c12.4,6.7,26.4,10.3,40.4,10.3s28.1-3.6,40.4-10.3l191.6-104.1c38.7-21,62.7-61.4,62.7-105.5v-180.3c0-44-24-84.5-62.7-105.5L335.2,10.3c-12.4-6.7-26.4-10.3-40.4-10.3h0Z"/>
  <path class="st1" d="M517.9,130.8L326.3,26.7c-9.6-5.2-20.5-8-31.5-8s-11,.7-16.3,2c-5.3,1.3-10.4,3.3-15.3,6l-191.6,104.1c-32.7,17.8-53,51.9-53,89.1v180.3c0,37.2,20.3,71.3,53,89.1l191.6,104.1c9.7,5.2,20.5,8,31.5,8s21.9-2.8,31.5-8l191.6-104.1c32.7-17.8,53-51.9,53-89.1v-180.3c0-37.2-20.3-71.3-53-89.1ZM562.2,400.2c0,34-18.6,65.2-48.5,81.5l-191.6,104.1c-8.5,4.6-18,7-27.4,7s-18.9-2.3-27.4-7l-191.6-104.1c-29.9-16.2-48.5-47.5-48.5-81.5v-180.3c0-34,18.6-65.2,48.5-81.5l191.6-104.1c8.5-4.6,18-7,27.4-7s18.8,2.3,27.4,7l191.6,104.1c29.9,16.2,48.5,47.5,48.5,81.5v180.3Z"/>
  <g>
    <g>
      <rect class="st1" x="102.1" y="265.3" width="385.4" height="3"/>
      <g>
        <path class="st1" d="M265.5,304c.9,1.2,1.4,2.7,1.4,4.5s-.9,4.4-2.6,5.8c-1.8,1.4-4.2,2.1-7.2,2.1h-13.1v-28.8h12.6c3,0,5.3.7,7,2,1.7,1.3,2.6,3.2,2.6,5.5s-.4,2.8-1.2,4c-.8,1.1-1.9,1.9-3.3,2.4,1.7.5,2.9,1.3,3.9,2.5ZM249.1,299.7h6.7c3.6,0,5.4-1.3,5.4-4s-.4-2.4-1.3-3c-.9-.7-2.3-1-4.1-1h-6.7v8ZM260.6,311.3c.9-.7,1.3-1.7,1.3-3.2s-.4-2.5-1.3-3.2c-.9-.7-2.3-1.1-4.1-1.1h-7.3v8.5h7.3c1.9,0,3.3-.3,4.2-1Z"/>
        <path class="st1" d="M273.8,316.4v-28.8h19.3v4.2h-14.1v7.9h13.3v4.1h-13.3v8.4h14.1v4.2h-19.3Z"/>
        <path class="st1" d="M303,315.8c-1.9-.6-3.6-1.4-4.9-2.5l1.8-3.8c1.4,1.1,2.8,1.8,4.4,2.3,1.5.5,3.2.7,5,.7s3.5-.3,4.6-1c1.1-.7,1.6-1.7,1.6-2.9s-.5-1.9-1.5-2.5c-1-.6-2.6-1.1-5-1.6-2.4-.5-4.3-1.1-5.8-1.8-1.5-.7-2.6-1.6-3.4-2.6-.8-1.1-1.1-2.4-1.1-4s.5-3.2,1.4-4.5c.9-1.3,2.2-2.4,3.9-3.1,1.7-.7,3.6-1.1,5.8-1.1s3.9.3,5.8.9c1.8.6,3.3,1.4,4.5,2.5l-1.8,3.8c-2.6-2-5.4-3.1-8.5-3.1s-3.3.4-4.4,1.1c-1.1.7-1.6,1.8-1.6,3.1s.5,2,1.4,2.6c1,.6,2.6,1.2,4.9,1.7,2.4.5,4.4,1.1,5.9,1.8,1.5.7,2.7,1.5,3.5,2.6.8,1,1.2,2.3,1.2,3.9s-.5,3.2-1.4,4.5c-.9,1.3-2.2,2.3-4,3-1.7.7-3.8,1-6.1,1s-4.3-.3-6.2-.9Z"/>
        <path class="st1" d="M333.7,316.4v-24.4h-9.4v-4.3h24v4.3h-9.4v24.4h-5.3Z"/>
        <g>
          <path class="st1" d="M131.9,373.2c-3.2-1.8-5.7-4.3-7.4-7.5-1.7-3.2-2.6-7-2.6-11.2s.9-8,2.6-11.2c1.7-3.2,4.2-5.7,7.4-7.5,3.2-1.8,7-2.7,11.3-2.7s5.3.4,7.9,1.2c2.5.8,4.6,1.9,6.2,3.3l-3.4,7.7c-3.4-2.4-6.9-3.6-10.5-3.6s-6,1.1-7.8,3.2c-1.8,2.1-2.7,5.3-2.7,9.5s.9,7.4,2.7,9.5c1.8,2.1,4.4,3.2,7.8,3.2s7.1-1.2,10.5-3.6l3.4,7.7c-1.6,1.4-3.7,2.5-6.2,3.3-2.5.8-5.2,1.2-7.9,1.2-4.3,0-8.1-.9-11.3-2.7Z"/>
          <path class="st1" d="M170.3,371.2c-3.1-3.1-4.7-7.5-4.7-13.4v-24h10.6v24.5c0,3,.7,5.3,2,6.9s3.3,2.4,5.8,2.4,4.4-.8,5.8-2.4c1.3-1.6,2-3.9,2-6.9v-24.5h10.7v24c0,5.9-1.6,10.3-4.7,13.4-3.2,3.1-7.7,4.6-13.7,4.6s-10.6-1.5-13.7-4.6Z"/>
        </g>
        <path class="st1" d="M218.5,374.6c-3-.8-5.5-1.9-7.4-3.3l3.4-7.7c2,1.3,4.1,2.2,6.4,2.9,2.3.7,4.6,1,6.9,1s4.2-.3,5.4-1c1.2-.6,1.9-1.6,1.9-2.7s-.6-1.9-1.7-2.6c-1.1-.7-3.3-1.3-6.4-2-3.9-.8-6.9-1.8-9.1-2.9-2.2-1.1-3.7-2.5-4.6-4-.9-1.5-1.3-3.4-1.3-5.7s.7-4.8,2.2-6.9c1.4-2,3.5-3.6,6.1-4.8,2.6-1.2,5.6-1.7,9-1.7s5.9.4,8.7,1.3c2.8.8,5,1.9,6.6,3.3l-3.3,7.7c-3.8-2.6-7.7-3.9-11.9-3.9s-3.6.4-4.8,1.1c-1.2.8-1.8,1.8-1.8,3s.2,1.4.6,1.8c.4.5,1.2.9,2.4,1.4,1.2.5,2.9.9,5.2,1.4,3.8.8,6.7,1.8,8.9,3,2.2,1.2,3.7,2.5,4.6,4,.9,1.5,1.4,3.4,1.4,5.5,0,4.1-1.6,7.3-4.7,9.6s-7.6,3.4-13.3,3.4-6.2-.4-9.2-1.2Z"/>
        <path class="st1" d="M263.3,375.3v-32.8h-12.4v-8.8h35.8v8.8h-12.4v32.8h-11Z"/>
        <path class="st1" d="M300.5,373.2c-3.1-1.7-5.5-4.2-7.2-7.4-1.7-3.2-2.5-7-2.5-11.3s.8-8.1,2.5-11.3c1.7-3.2,4.1-5.7,7.2-7.4,3.1-1.7,6.8-2.6,11.1-2.6s7.9.9,11.1,2.6c3.1,1.7,5.5,4.2,7.2,7.4,1.7,3.2,2.5,7,2.5,11.3s-.8,8.1-2.5,11.3c-1.7,3.2-4.1,5.7-7.2,7.4-3.1,1.7-6.8,2.6-11,2.6s-7.9-.9-11.1-2.6ZM318.9,364.2c1.8-2.2,2.7-5.5,2.7-9.7s-.9-7.5-2.7-9.7c-1.8-2.2-4.2-3.3-7.3-3.3s-5.6,1.1-7.4,3.3c-1.8,2.2-2.7,5.4-2.7,9.7s.9,7.5,2.7,9.7c1.8,2.2,4.2,3.3,7.4,3.3s5.6-1.1,7.4-3.3Z"/>
        <path class="st1" d="M375.3,333.8h8.4v41.6h-9.4v-21.8l-8,14.9h-7l-8-14.6v21.5h-9.5v-41.6h8.5l12.5,23.6,12.4-23.6Z"/>
        <path class="st1" d="M394.2,375.3v-41.6h29.5v8.4h-19v7.9h17.8v8.3h-17.8v8.6h19v8.4h-29.5Z"/>
        <path class="st1" d="M469.7,375.3h-11.9l-7.2-13.3c-.9-1.5-2.3-2.3-4.3-2.3h-3.3v15.6h-10.7v-41.6h19.8c5,0,8.8,1.1,11.3,3.3,2.5,2.2,3.8,5.3,3.8,9.5s-.9,5.8-2.6,8c-1.7,2.2-4.2,3.6-7.3,4.4,2.4.5,4.3,2.1,5.7,4.7l6.6,11.8ZM455.6,350.5c1-.7,1.6-2,1.6-3.7s-.5-3-1.6-3.7-2.8-1.1-5.2-1.1h-7.5v9.7h7.5c2.4,0,4.1-.4,5.2-1.1Z"/>
        <path class="st1" d="M151.8,429c-3-.8-5.5-1.9-7.4-3.3l3.4-7.7c2,1.3,4.1,2.2,6.4,2.9,2.3.7,4.6,1,6.9,1s4.2-.3,5.4-1c1.2-.6,1.9-1.6,1.9-2.7s-.6-1.9-1.7-2.6c-1.1-.7-3.3-1.3-6.4-2-3.9-.8-6.9-1.8-9.1-2.9-2.2-1.1-3.7-2.5-4.6-4-.9-1.5-1.3-3.4-1.3-5.7s.7-4.8,2.2-6.9c1.4-2,3.5-3.6,6.1-4.8,2.6-1.2,5.6-1.7,9-1.7s5.9.4,8.7,1.3c2.8.8,5,1.9,6.6,3.3l-3.3,7.7c-3.8-2.6-7.7-3.9-11.9-3.9s-3.6.4-4.8,1.1c-1.2.8-1.8,1.8-1.8,3s.2,1.4.6,1.8c.4.5,1.2.9,2.4,1.4,1.2.5,2.9.9,5.2,1.4,3.8.8,6.7,1.8,8.9,3,2.2,1.2,3.7,2.5,4.6,4,.9,1.5,1.4,3.4,1.4,5.5,0,4.1-1.6,7.3-4.7,9.6s-7.6,3.4-13.3,3.4-6.2-.4-9.2-1.2Z"/>
        <path class="st1" d="M192.5,425.7c-3.1-3.1-4.7-7.5-4.7-13.4v-24h10.6v24.5c0,3,.7,5.3,2,6.9s3.3,2.4,5.8,2.4,4.4-.8,5.8-2.4c1.3-1.6,2-3.9,2-6.9v-24.5h10.7v24c0,5.9-1.6,10.3-4.7,13.4-3.2,3.1-7.7,4.6-13.7,4.6s-10.6-1.5-13.7-4.6Z"/>
        <path class="st1" d="M234.9,388.2h20.1c4.6,0,8.2,1.2,10.7,3.5s3.8,5.6,3.8,9.8-1.3,7.4-3.9,9.7c-2.6,2.4-6.1,3.5-10.7,3.5h-9.3v15h-10.8v-41.6ZM253.5,406.6c2,0,3.5-.4,4.5-1.2,1-.8,1.4-2.1,1.4-3.8s-.5-3-1.4-3.9c-1-.8-2.4-1.3-4.5-1.3h-7.8v10.2h7.8Z"/>
        <path class="st1" d="M277.7,388.2h20.1c4.6,0,8.2,1.2,10.7,3.5s3.8,5.6,3.8,9.8-1.3,7.4-3.9,9.7c-2.6,2.4-6.1,3.5-10.7,3.5h-9.3v15h-10.8v-41.6ZM296.4,406.6c2,0,3.5-.4,4.5-1.2,1-.8,1.4-2.1,1.4-3.8s-.5-3-1.4-3.9c-1-.8-2.4-1.3-4.5-1.3h-7.8v10.2h7.8Z"/>
        <path class="st1" d="M329.4,427.6c-3.1-1.7-5.5-4.2-7.2-7.4-1.7-3.2-2.5-7-2.5-11.3s.8-8.1,2.5-11.3c1.7-3.2,4.1-5.7,7.2-7.4,3.1-1.7,6.8-2.6,11.1-2.6s7.9.9,11.1,2.6c3.1,1.7,5.5,4.2,7.2,7.4,1.7,3.2,2.5,7,2.5,11.3s-.8,8.1-2.5,11.3c-1.7,3.2-4.1,5.7-7.2,7.4-3.1,1.7-6.8,2.6-11,2.6s-7.9-.9-11.1-2.6ZM347.8,418.6c1.8-2.2,2.7-5.5,2.7-9.7s-.9-7.5-2.7-9.7c-1.8-2.2-4.2-3.3-7.3-3.3s-5.6,1.1-7.4,3.3c-1.8,2.2-2.7,5.4-2.7,9.7s.9,7.5,2.7,9.7c1.8,2.2,4.2,3.3,7.4,3.3s5.6-1.1,7.4-3.3Z"/>
        <path class="st1" d="M407.9,429.7h-11.9l-7.2-13.3c-.9-1.5-2.3-2.3-4.3-2.3h-3.3v15.6h-10.7v-41.6h19.8c5,0,8.8,1.1,11.3,3.3,2.5,2.2,3.8,5.3,3.8,9.5s-.9,5.8-2.6,8c-1.7,2.2-4.2,3.6-7.3,4.4,2.4.5,4.3,2.1,5.7,4.7l6.6,11.8ZM393.8,404.9c1-.7,1.6-2,1.6-3.7s-.5-3-1.6-3.7-2.8-1.1-5.2-1.1h-7.5v9.7h7.5c2.4,0,4.1-.4,5.2-1.1Z"/>
        <path class="st1" d="M423.3,429.7v-32.8h-12.4v-8.8h35.8v8.8h-12.4v32.8h-11Z"/>
      </g>
      <rect class="st1" x="102.1" y="452.7" width="385.4" height="3"/>
    </g>
    <g>
      <path class="st0" d="M384.7,149.8c0-4.5,3.7-8.2,8.2-8.2h60.8c4.5,0,8.2,3.7,8.2,8.2v29.9c0,4.5-3.7,8.2-8.2,8.2h-6.3c-4.5,0-11.5,1.8-15.4,4l-22.1,12.3c-4,2.2-5.7.6-3.8-3.5l2.5-5.6c1.9-4.1-.3-7.5-4.8-7.5h-11c-4.5,0-8.2-3.7-8.2-8.2v-29.6Z"/>
      <path class="st1" d="M146.3,160.7c-4-1.5-8.2-2.6-8.2-5.8s1.9-4.3,4.5-4.3h1.1c2.5,0,4.1,1.2,5.1,3.7.2.6.6.8,1.1.6l7.1-3.6c.4-.2.7-1,.2-1.7-.6-1.1-1.3-2.2-2.2-3.1-2.5-2.8-6.1-4.8-11.4-4.8h-1.1c-9,0-14.6,5.3-14.6,13.5s5.3,11.4,12,14.1c4.3,1.7,8.1,2.7,8.1,6.3s-2.3,4.3-4.9,4.3h-1.8c-2.5,0-4.1-1.2-5.1-3.7-.2-.6-.7-.8-1.1-.6l-7.1,3.6c-.4.2-.6,1-.2,1.7.6,1.2,1.4,2.3,2.4,3.3,2.4,2.7,6.1,4.6,11.2,4.6h2.3c9.2,0,14.5-5.3,14.5-13.4s-5-11.8-11.8-14.5"/>
      <path class="st1" d="M176.4,153.5c-8.8,0-14.6,5.4-14.6,13.2v8.8c0,7.8,5.8,13.1,14.6,13.1s14.4-5.3,14.4-13.1v-8.8c0-7.9-5.8-13.2-14.4-13.2M180.7,175.7c0,2.3-1.9,4.2-4.4,4.2s-4.5-1.9-4.5-4.2v-9.4c0-2.2,1.9-4.2,4.5-4.2s4.4,1.9,4.4,4.2v9.4Z"/>
      <path class="st1" d="M218,142c-1.2-.3-3.2-.5-5.1-.5-10.7,0-14.7,7.4-14.7,13.3v1.8c0,.5-.2.7-.8.7h-1.7c-.4,0-.7.2-.7.7v7.6c0,.5.3.7.7.7h1.7c.6,0,.8.2.8.7v20c0,.5.2.7.7.7h8.5c.5,0,.7-.2.7-.7v-20c0-.5.2-.7.8-.7h4.7c.5,0,.7-.2.7-.7v-7.6c0-.5-.2-.7-.7-.7h-4.7c-.6,0-.8-.2-.8-.7v-1.9c0-2.5,1.8-4.1,4.5-4.1s1.9.1,2.7.4c.5.1.8,0,.9-.4l2.2-7.4c.1-.5,0-.9-.6-1"/>
      <path class="st1" d="M239.6,154.3h-4.8c-.6,0-.9-.2-.9-.7v-4.5c0-.5-.1-.7-.6-.7h-4.5c-.3,0-.6.1-.9.4l-9,9v4.9c0,.5.2.7.7.7h3.6c.7,0,.9.3.9.8v11.2c0,8.7,5.4,13.1,12.3,13.1h3c.6,0,.9-.3.9-.8v-7.4c0-.4-.2-.7-.7-.7h-1.2c-3,0-4.4-1.8-4.4-4.9v-10.5c0-.5.2-.8.9-.8h4.8c.5,0,.7-.1.7-.7v-7.6c0-.5-.1-.7-.7-.7"/>
      <path class="st1" d="M288.2,154.3h-8.7c-.4,0-.7.2-.8.6l-3.2,13.6c-.4,1.5-.6,3.7-.7,5.2h-.2c0-1.5-.4-3.5-.8-5.2l-3.2-13.6c0-.4-.4-.6-.8-.6h-7.1c-.4,0-.7.2-.7.6l-3.2,13.5c-.4,1.5-.7,3.5-.8,4.9h-.2c0-1.4-.4-3.4-.7-4.9l-3.3-13.5c0-.4-.3-.6-.7-.6h-8.9c-.7,0-.9.4-.7.9l10.2,32.1c.1.4.4.5.7.5h6.3c.4,0,.6-.1.7-.5l4-14.9c.4-1.7.8-4.5.8-4.5h.2s.4,2.8.8,4.5l3.9,14.9c0,.4.3.6.7.6h6.3c.4,0,.6-.1.7-.5l10.3-32.1c.1-.5,0-.9-.7-.9"/>
      <path class="st1" d="M305.3,153.5c-4.5,0-7.8,1.4-10.2,3.7-1.4,1.2-2.5,2.7-3.3,4.3-.4.7-.2,1.5.2,1.7l7.1,3.6c.4.2.9,0,1.1-.6,1-2.5,2.7-3.7,5.1-3.7s4.3,1.8,4.3,4.1v.4c0,.5-.2.8-.7.8h-6.3c-6.3,0-11.5,3.5-11.5,9.5v.7c0,6.1,4.6,9.8,10.8,9.8h2.5c1.9,0,4.1-.7,5.6-1.9.3-.2.6-.1.7,0l.2,1.2c0,.4.4.6.8.6h7.1c.4,0,.7-.2.7-.7v-20.4c0-7.8-5.5-13.2-14.3-13.2M305.5,180h-2.7c-1.5,0-2.4-.9-2.4-3s1-2.5,2.5-2.5h6.1c.4,0,.6.8.6,1-.1,2.7-2.2,4.4-4.1,4.4"/>
      <path class="st1" d="M343.8,154.4c-.5,0-1.1-.1-1.9-.1-2.7,0-5.3,1.3-6.5,2.7-.4.4-.9.3-.9-.4v-1.7c0-.5-.2-.7-.7-.7h-6.8c-.4,0-.7.2-.7.7v32.1c0,.5.3.7.7.7h8.5c.4,0,.7-.2.7-.7v-19.1c0-2.5,1.8-4.3,4.3-4.3s2,.1,2.9.4c.7.1,1.1,0,1.1-.7v-8.2c0-.4-.2-.6-.6-.7"/>
      <path class="st1" d="M362.7,153.2c-8.5,0-14.6,6.1-14.6,13.1v9.3c0,7.8,5.8,13.2,14.6,13.2s8.2-1.7,10.7-4c1.2-1.2,2.1-2.5,2.9-3.9.4-.7.2-1.5-.2-1.7l-7.1-3.6c-.4-.2-.9,0-1.1.6-1,2.5-2.7,3.7-5.1,3.7s-4.5-1.8-4.5-4.1v-1.6c0-.5.2-.8.9-.8h17.4c.4,0,.7-.2.7-.7v-6.3c0-6.9-6-13.1-14.4-13.1M366.9,166.9h-7.9c-.6,0-.8-.4-.8-.8v-1c.2-2.1,2.2-3.6,4.8-3.6s4.5,1.5,4.7,3.5v1c0,.5,0,.9-.8.9"/>
      <path class="st1" d="M242.2,198c-.1-.4-.4-.5-.7-.5h-6.4c-.4,0-.6.1-.7.5l-14.2,44c-.2.6,0,.9.7.9h9.1c.4,0,.5-.1.6-.5l2.1-6.6c.1-.4.3-.4.8-.4h9.5c.5,0,.7,0,.8.4l2,6.6c.1.4.3.5.7.5h9.2c.7,0,.9-.4.7-.9l-14.2-44ZM240.4,227.4h-4.4c-.7,0-1-.4-.9-.9l1.5-5.8c.7-2.7,1.3-5.8,1.4-7.7h.3c.1,1.9.6,5,1.3,7.7l1.5,5.8c.1.4-.1.9-.8.9"/>
      <path class="st1" d="M287.3,197.5h-8.5c-.4,0-.7.2-.7.7v10c0,1.1.2,3.2.2,3.2-1.4-1.3-3.8-2-5.6-2-7.9,0-13.6,5.3-13.6,13.1v7.3c0,8.4,4.9,13.1,13.7,13.1s4.4-.7,5.9-1.9c.4-.4.9-.2.9.4v1.1c0,.3.2.5.6.5h7c.4,0,.7-.2.7-.7v-44c0-.5-.3-.7-.7-.7M278.1,230.4c0,2.4-1.9,4.2-4.5,4.2s-4.4-1.8-4.4-4.2v-8.7c0-2.3,1.8-4,4.4-4s4.5,1.7,4.5,4v8.7Z"/>
      <path class="st1" d="M325.3,209.4h-9.2c-.4,0-.6.2-.8.6l-5.4,15.5c-.3.8-.7,2.7-.9,3.6h-.2c-.1-.9-.5-2.7-.9-3.6l-5.6-15.6c-.1-.4-.4-.5-.7-.5h-9.2c-.6,0-.9.4-.6,1l12.9,32c.1.4.4.5.7.5h6.7c.4,0,.6-.1.8-.5l13-32c.2-.6,0-1-.6-1"/>
      <path class="st1" d="M339.1,209.4h-8.6c-.5,0-.7.2-.7.7v32.1c0,.5.2.7.7.7h8.6c.4,0,.6-.2.6-.7v-32.1c0-.5-.3-.7-.6-.7"/>
      <path class="st1" d="M359.4,217.2c2.2,0,3.9,1.4,5.1,4.3.2.5.6.6,1.1.4l7.1-3.2c.4-.2.6-.6.4-1.2-.7-1.5-1.4-2.9-2.3-4-2.4-3.2-5.9-5-11.4-5-8.9,0-14.4,5.4-14.4,13.2v8.8c0,7.8,5.4,13.1,14.4,13.1s8.4-1.5,10.7-4.2c1.2-1.4,2.2-3,3-4.9.2-.6,0-.9-.4-1.2l-7.1-3.2c-.5-.2-.9,0-1.1.4-1.2,2.9-2.9,4.4-5.1,4.4s-4.4-1.9-4.4-4.2v-9.4c0-2.3,1.7-4.2,4.4-4.2"/>
      <path class="st1" d="M391.1,208.4c-8.5,0-14.6,6.1-14.6,13.1v9.3c0,7.8,5.8,13.2,14.6,13.2s8.2-1.7,10.7-4c1.2-1.2,2.1-2.5,2.9-3.9.4-.7.2-1.5-.2-1.7l-7.1-3.6c-.4-.2-.9,0-1.1.6-1,2.5-2.7,3.7-5.1,3.7s-4.5-1.8-4.5-4.1v-1.6c0-.5.2-.8.9-.8h17.4c.4,0,.7-.2.7-.7v-6.3c0-6.9-6-13.1-14.4-13.1M395.3,222h-7.9c-.6,0-.8-.4-.8-.8v-1c.2-2.1,2.2-3.6,4.8-3.6s4.5,1.5,4.7,3.5v1c0,.5,0,.9-.8.9"/>
      <path class="st1" d="M334.8,195.2c-2.8,0-5.1,2.3-5.1,5.1s2.3,5.1,5.1,5.1,5.1-2.3,5.1-5.1-2.3-5.1-5.1-5.1"/>
    </g>
  </g>
  <g>
    <path class="st0" d="M217.4,526.9v-9.2l14.4-15.1c1.2-1.3,2.2-2.4,2.9-3.4.7-1,1.2-2,1.6-2.9.3-.9.5-1.8.5-2.7,0-1.7-.6-3-1.7-3.9-1.1-.9-2.8-1.3-5-1.3s-3.6.3-5.5,1c-1.9.7-3.8,1.8-5.6,3.3l-3.9-9.2c2.1-1.6,4.6-2.9,7.6-3.9,3-1,6-1.5,9.2-1.5s6.8.5,9.4,1.6c2.5,1.1,4.4,2.7,5.7,4.8,1.3,2.1,2,4.6,2,7.6s-.1,2.9-.4,4.3c-.3,1.4-.8,2.8-1.5,4.1-.7,1.3-1.6,2.7-2.7,4.1-1.1,1.4-2.4,2.9-4,4.4l-11,10.9v-3.2h21.4v10.1h-33.4Z"/>
    <path class="st0" d="M274,527.7c-3.9,0-7.3-1-10-3s-4.8-4.8-6.2-8.5c-1.4-3.7-2.1-8.2-2.1-13.5s.7-9.7,2.1-13.4c1.4-3.7,3.5-6.4,6.2-8.3,2.7-1.9,6.1-2.8,10-2.8s7.3,1,10,2.9,4.8,4.7,6.2,8.3c1.4,3.6,2.1,8.1,2.1,13.4s-.7,9.8-2.1,13.5c-1.4,3.7-3.5,6.6-6.2,8.5s-6.1,3-10,3ZM274,517.7c2.2,0,3.8-1.2,4.8-3.6,1-2.4,1.6-6.2,1.6-11.5s-.5-8.9-1.6-11.2c-1-2.2-2.7-3.4-4.8-3.4s-3.8,1.1-4.8,3.4c-1,2.2-1.6,6-1.6,11.3s.5,9,1.6,11.4c1,2.4,2.7,3.6,4.8,3.6Z"/>
    <path class="st0" d="M299,526.9v-9.2l14.4-15.1c1.2-1.3,2.2-2.4,2.9-3.4.7-1,1.2-2,1.6-2.9.3-.9.5-1.8.5-2.7,0-1.7-.6-3-1.7-3.9-1.1-.9-2.8-1.3-5-1.3s-3.6.3-5.5,1c-1.9.7-3.8,1.8-5.6,3.3l-3.9-9.2c2.1-1.6,4.6-2.9,7.6-3.9,3-1,6-1.5,9.2-1.5s6.8.5,9.4,1.6c2.5,1.1,4.4,2.7,5.7,4.8,1.3,2.1,2,4.6,2,7.6s-.1,2.9-.4,4.3c-.3,1.4-.8,2.8-1.5,4.1-.7,1.3-1.6,2.7-2.7,4.1-1.1,1.4-2.4,2.9-4,4.4l-11,10.9v-3.2h21.4v10.1h-33.4Z"/>
    <path class="st0" d="M357.5,527.7c-4.2,0-7.7-1-10.7-2.9-2.9-1.9-5.2-4.7-6.7-8.3-1.5-3.6-2.3-8-2.3-13.1s.9-9.9,2.7-13.7c1.8-3.8,4.3-6.6,7.5-8.6,3.3-2,7.2-3,11.8-3s3.5.2,5.2.6c1.7.4,3.4,1,4.9,1.7s3,1.6,4.4,2.7l-3.9,9.2c-1.6-1.3-3.4-2.3-5.2-2.9-1.8-.6-3.7-1-5.6-1s-3.2.3-4.4.8c-1.3.5-2.3,1.3-3.2,2.4-.9,1.1-1.5,2.4-1.9,4-.4,1.6-.6,3.4-.6,5.4v3.7h-1.1c.5-2,1.2-3.7,2.3-5,1.1-1.4,2.4-2.4,4.1-3.2,1.7-.8,3.5-1.2,5.4-1.2s5.1.7,7.1,2c2.1,1.4,3.7,3.2,5,5.5,1.2,2.3,1.8,5,1.8,8.1s-.7,6-2.1,8.6c-1.4,2.5-3.4,4.5-5.8,6-2.5,1.4-5.4,2.1-8.6,2.1ZM356.8,518.1c1.2,0,2.2-.3,3.1-.8.9-.5,1.6-1.3,2-2.3.5-1,.7-2.2.7-3.5s-.2-2.5-.7-3.5c-.5-1-1.1-1.7-2-2.3-.9-.6-1.9-.9-3.2-.9s-2.1.3-3,.9c-.9.6-1.6,1.3-2,2.3-.5,1-.7,2.1-.7,3.5s.2,2.5.7,3.5c.5,1,1.2,1.8,2,2.3.9.5,1.9.8,3,.8Z"/>
  </g>
</svg>