<?xml version="1.0" encoding="UTF-8"?><svg id="a" xmlns="http://www.w3.org/2000/svg" viewBox="0 0 788.96 707.15"><defs><style>.b,.c{fill:#284e80;}.b,.c,.d{stroke-width:0px;}.b,.d{fill-rule:evenodd;}.d{fill:#fff;}</style></defs><polygon class="d" points="29.74 683.15 616.66 683.15 759.21 24 172.29 24 29.74 683.15"/><path class="c" d="M630.71,449.88l-42.19,199.88H72.53l44.13-198.06,514.05-1.82M645.51,437.82l-538.48,1.91-49.47,222.03h540.69l47.26-223.94h0Z"/><path class="c" d="M175.99,480.48h11l-6.25,29.33c-.94,4.39-2.39,8.15-4.33,11.29-1.95,3.14-4.15,5.71-6.63,7.71-2.47,2-5.07,3.47-7.79,4.42-2.72.94-5.31,1.42-7.75,1.42h-6.25c-1.83,0-3.74-.35-5.71-1.04-1.97-.69-3.78-1.79-5.42-3.29s-3-3.42-4.08-5.75c-1.08-2.33-1.62-5.14-1.62-8.42,0-1.05.06-2.14.17-3.25.11-1.11.28-2.25.5-3.42l6.17-29h11.08l-6.08,28.42c-.5,2.33-.75,4.39-.75,6.17,0,3.55.89,6.12,2.67,7.71,1.78,1.58,4.3,2.37,7.58,2.37h.5c4.17,0,7.72-1.28,10.67-3.83,2.94-2.56,5.05-6.78,6.33-12.67l6-28.17Z"/><path class="c" d="M183.16,534.64l2-9.5h22.17c2.67,0,4.3-1.25,4.92-3.75-.06-.78-.24-1.43-.54-1.96-.31-.53-.62-1.01-.96-1.46v.08l-16.08-16.33c-1-1-1.7-2.21-2.08-3.62-.39-1.42-.58-2.71-.58-3.87,0-.44.01-.81.04-1.08.03-.28.07-.55.12-.83v-.17c.5-2.5,1.33-4.53,2.5-6.08,1.17-1.55,2.49-2.75,3.96-3.58,1.47-.83,3.01-1.39,4.62-1.67,1.61-.28,3.14-.42,4.58-.42h23.66l-2,9.58h-21.66c-1.06,0-2.08.26-3.08.79-1,.53-1.56,1.1-1.67,1.71l-.25.83.08-.25v.33c0,.5.21,1.08.62,1.75.42.67.97,1.39,1.67,2.17.69.78,1.5,1.62,2.42,2.54.92.92,1.87,1.85,2.87,2.79,1.44,1.39,2.92,2.85,4.42,4.37,1.5,1.53,2.87,3.08,4.12,4.67,1.25,1.58,2.26,3.21,3.04,4.87.78,1.67,1.17,3.33,1.17,5,0,.39-.01.74-.04,1.04-.03.31-.07.6-.12.87-.33,1.39-.83,2.75-1.5,4.08-.67,1.33-1.51,2.53-2.54,3.58-1.03,1.06-2.22,1.9-3.58,2.54-1.36.64-2.85.96-4.46.96h-27.83Z"/><path class="c" d="M248.9,489.98l-9.5,44.66h-11l11.58-54.16h25.58c5.22,0,9.03,1.14,11.42,3.42,2.39,2.28,3.58,5.42,3.58,9.42,0,1.56-.17,3.11-.5,4.67-.61,2.95-1.89,5.54-3.83,7.79s-4.24,4.15-6.87,5.71c-2.64,1.56-5.45,2.74-8.42,3.54-2.97.81-5.76,1.24-8.37,1.29l-1-9.67c2.44,0,4.71-.25,6.79-.75s3.9-1.18,5.46-2.04c1.56-.86,2.81-1.86,3.75-3,.94-1.14,1.56-2.35,1.83-3.62v-.17c.17-.67.25-1.31.25-1.92,0-1.05-.21-1.92-.62-2.58-.42-.67-.92-1.19-1.5-1.58-.58-.39-1.17-.65-1.75-.79-.58-.14-1.01-.21-1.29-.21h-15.58Z"/><path class="c" d="M278.4,534.64l2-9.5h22.17c2.67,0,4.3-1.25,4.92-3.75-.06-.78-.24-1.43-.54-1.96-.31-.53-.62-1.01-.96-1.46v.08l-16.08-16.33c-1-1-1.7-2.21-2.08-3.62-.39-1.42-.58-2.71-.58-3.87,0-.44.01-.81.04-1.08.03-.28.07-.55.12-.83v-.17c.5-2.5,1.33-4.53,2.5-6.08,1.17-1.55,2.49-2.75,3.96-3.58,1.47-.83,3.01-1.39,4.62-1.67,1.61-.28,3.14-.42,4.58-.42h23.66l-2,9.58h-21.66c-1.06,0-2.08.26-3.08.79-1,.53-1.56,1.1-1.67,1.71l-.25.83.08-.25v.33c0,.5.21,1.08.62,1.75.42.67.97,1.39,1.67,2.17.69.78,1.5,1.62,2.42,2.54.92.92,1.87,1.85,2.87,2.79,1.44,1.39,2.92,2.85,4.42,4.37,1.5,1.53,2.87,3.08,4.12,4.67,1.25,1.58,2.26,3.21,3.04,4.87.78,1.67,1.17,3.33,1.17,5,0,.39-.01.74-.04,1.04-.03.31-.07.6-.12.87-.33,1.39-.83,2.75-1.5,4.08-.67,1.33-1.51,2.53-2.54,3.58-1.03,1.06-2.22,1.9-3.58,2.54-1.36.64-2.85.96-4.46.96h-27.83Z"/><path class="c" d="M365.81,509.23c-.17.89-.31,1.65-.42,2.29-.11.64-.18,1.18-.21,1.62-.03.45-.04.86-.04,1.25,0,3.78,1.03,6.51,3.08,8.21,2.05,1.7,4.75,2.54,8.08,2.54h18.92l-2,9.5h-22.33c-1.83,0-3.74-.35-5.71-1.04-1.97-.69-3.78-1.79-5.42-3.29-1.64-1.5-3-3.42-4.08-5.75-1.08-2.33-1.62-5.14-1.62-8.42,0-2.11.25-4.33.75-6.67l.92-4.17c.94-4.39,2.37-8.15,4.29-11.29,1.92-3.14,4.08-5.71,6.5-7.71s4.97-3.47,7.67-4.42c2.69-.94,5.29-1.42,7.79-1.42h22.75l-2,9.5h-18.58c-1.95,0-3.83.28-5.67.83s-3.54,1.47-5.12,2.75-2.97,2.93-4.17,4.96-2.1,4.51-2.71,7.46c-.28,1.28-.5,2.36-.67,3.25Z"/><path class="c" d="M427.39,480.48h13.58l8.33,50.66v1.17c-.06.45-.32.95-.79,1.5-.47.56-.76.83-.87.83h-31.83l5.17-9.42h16.25l-5-31.5-22.42,40.91h-11.58l29.17-54.16Z"/><path class="c" d="M454.22,534.64l2-9.5h22.17c2.67,0,4.3-1.25,4.92-3.75-.06-.78-.24-1.43-.54-1.96-.31-.53-.62-1.01-.96-1.46v.08l-16.08-16.33c-1-1-1.7-2.21-2.08-3.62-.39-1.42-.58-2.71-.58-3.87,0-.44.01-.81.04-1.08.03-.28.07-.55.12-.83v-.17c.5-2.5,1.33-4.53,2.5-6.08,1.17-1.55,2.49-2.75,3.96-3.58,1.47-.83,3.01-1.39,4.62-1.67,1.61-.28,3.14-.42,4.58-.42h23.66l-2,9.58h-21.66c-1.06,0-2.08.26-3.08.79-1,.53-1.56,1.1-1.67,1.71l-.25.83.08-.25v.33c0,.5.21,1.08.62,1.75.42.67.97,1.39,1.67,2.17.69.78,1.5,1.62,2.42,2.54.92.92,1.87,1.85,2.87,2.79,1.44,1.39,2.92,2.85,4.42,4.37,1.5,1.53,2.87,3.08,4.12,4.67,1.25,1.58,2.26,3.21,3.04,4.87.78,1.67,1.17,3.33,1.17,5,0,.39-.01.74-.04,1.04-.03.31-.07.6-.12.87-.33,1.39-.83,2.75-1.5,4.08-.67,1.33-1.51,2.53-2.54,3.58-1.03,1.06-2.22,1.9-3.58,2.54-1.36.64-2.85.96-4.46.96h-27.83Z"/><path class="c" d="M499.47,534.64l2-9.5h22.17c2.67,0,4.3-1.25,4.92-3.75-.06-.78-.24-1.43-.54-1.96-.31-.53-.62-1.01-.96-1.46v.08l-16.08-16.33c-1-1-1.7-2.21-2.08-3.62-.39-1.42-.58-2.71-.58-3.87,0-.44.01-.81.04-1.08.03-.28.07-.55.12-.83v-.17c.5-2.5,1.33-4.53,2.5-6.08,1.17-1.55,2.49-2.75,3.96-3.58,1.47-.83,3.01-1.39,4.62-1.67,1.61-.28,3.14-.42,4.58-.42h23.66l-2,9.58h-21.66c-1.06,0-2.08.26-3.08.79-1,.53-1.56,1.1-1.67,1.71l-.25.83.08-.25v.33c0,.5.21,1.08.62,1.75.42.67.97,1.39,1.67,2.17.69.78,1.5,1.62,2.42,2.54.92.92,1.87,1.85,2.87,2.79,1.44,1.39,2.92,2.85,4.42,4.37,1.5,1.53,2.87,3.08,4.12,4.67,1.25,1.58,2.26,3.21,3.04,4.87.78,1.67,1.17,3.33,1.17,5,0,.39-.01.74-.04,1.04-.03.31-.07.6-.12.87-.33,1.39-.83,2.75-1.5,4.08-.67,1.33-1.51,2.53-2.54,3.58-1.03,1.06-2.22,1.9-3.58,2.54-1.36.64-2.85.96-4.46.96h-27.83Z"/><path class="c" d="M575.99,479.5h-7.37l-4.14,19.64h-4.8l4.18-19.64h-7.37l.88-4.18h19.49l-.88,4.18Z"/><path class="c" d="M604.83,475.32l-5.13,23.82h-4.8l2.89-13.63-8.35,13.63h-3.52l-2.75-14.22-3.04,14.22h-4.84l5.09-23.82h5.72l3.15,15.61,9.31-15.61h6.27Z"/><path class="c" d="M123.81,594.73c-.17.89-.31,1.65-.42,2.29-.11.64-.18,1.18-.21,1.62-.03.45-.04.86-.04,1.25,0,3.78,1.03,6.51,3.08,8.21,2.05,1.7,4.75,2.54,8.08,2.54h18.92l-2,9.5h-22.33c-1.83,0-3.74-.35-5.71-1.04-1.97-.69-3.78-1.79-5.42-3.29-1.64-1.5-3-3.42-4.08-5.75s-1.62-5.14-1.62-8.42c0-2.11.25-4.33.75-6.67l.92-4.17c.94-4.39,2.37-8.15,4.29-11.29,1.92-3.14,4.08-5.71,6.5-7.71,2.42-2,4.97-3.47,7.67-4.42,2.69-.94,5.29-1.42,7.79-1.42h22.75l-2,9.5h-18.58c-1.95,0-3.83.28-5.67.83s-3.54,1.47-5.12,2.75c-1.58,1.28-2.97,2.93-4.17,4.96-1.19,2.03-2.1,4.52-2.71,7.46-.28,1.28-.5,2.36-.67,3.25Z"/><path class="c" d="M174.81,597.15l-2.83,13.5h28.08l-3.17,9.5h-37.91l11.5-54.16h39.08l-3.17,9.5h-27l-2.58,12.25h24.75l-3.25,9.42h-23.5Z"/><path class="c" d="M205.72,620.15l11.58-54.16h25.58c4.89,0,8.63.93,11.21,2.79,2.58,1.86,3.88,4.96,3.88,9.29,0,.95-.04,1.85-.12,2.71-.08.86-.18,1.68-.29,2.46-.44,2.17-1.17,4.14-2.17,5.92s-2.21,3.35-3.62,4.71c-1.42,1.36-2.97,2.54-4.67,3.54s-3.46,1.78-5.29,2.33l9.17,20.42h-11.08l-11.67-27.08c.83-.61,1.42-.97,1.75-1.08.33-.11.72-.17,1.17-.17,3.94,0,7.28-.69,10-2.08,2.72-1.39,4.58-3.75,5.58-7.08v-.08c.17-.67.25-1.31.25-1.92,0-1.05-.21-1.92-.62-2.58-.42-.67-.92-1.19-1.5-1.58-.58-.39-1.17-.65-1.75-.79-.58-.14-1.01-.21-1.29-.21h-15.58l-9.5,44.66h-11Z"/><path class="c" d="M308.05,575.49h-16.75l-9.42,44.66h-10.92l9.5-44.66h-16.75l2-9.5h44.33l-2,9.5Z"/><path class="c" d="M358.21,575.49h-15.67l-7.5,35.16h15.58l-2,9.5h-42.25l2.08-9.5h15.58l7.5-35.16h-15.58l2.08-9.5h42.16l-2,9.5Z"/><path class="c" d="M372.29,597.15l-4.83,23h-11l11.5-54.16h39.08l-3.17,9.5h-27l-2.58,12.25h24.75l-3.25,9.42h-23.5Z"/><path class="c" d="M455.04,575.49h-15.67l-7.5,35.16h15.58l-2,9.5h-42.25l2.08-9.5h15.58l7.5-35.16h-15.58l2.08-9.5h42.16l-2,9.5Z"/><path class="c" d="M469.12,597.15l-2.83,13.5h28.08l-3.17,9.5h-37.91l11.5-54.16h39.08l-3.17,9.5h-27l-2.58,12.25h24.75l-3.25,9.42h-23.5Z"/><path class="c" d="M554.36,595.32c-.94,4.39-2.28,8.15-4,11.29-1.72,3.14-3.75,5.71-6.08,7.71s-4.89,3.47-7.67,4.42c-2.78.94-5.67,1.42-8.67,1.42h-27.83l11.5-54.16h27.42c2.06,0,4.08.35,6.08,1.04s3.8,1.78,5.42,3.25c1.61,1.47,2.92,3.36,3.92,5.67,1,2.31,1.5,5.07,1.5,8.29,0,1.06-.04,2.15-.12,3.29-.08,1.14-.26,2.35-.54,3.63l-.92,4.17ZM544.78,588.11c.11-.86.17-1.57.17-2.12,0-1.89-.29-3.5-.87-4.83-.58-1.33-1.37-2.42-2.38-3.25-1-.83-2.19-1.44-3.58-1.83-1.39-.39-2.89-.58-4.5-.58h-13.08l-7.5,35.16h12.67c2.05,0,4.03-.31,5.92-.92,1.89-.61,3.61-1.58,5.17-2.92,1.55-1.33,2.93-3.04,4.12-5.13,1.19-2.08,2.1-4.6,2.71-7.54l.67-3c.22-1.17.39-2.18.5-3.04Z"/><path class="b" d="M191.9,46.01h2.85s313.04,63.54,332.06,68.49,42.01,10.28,49.47,15.23c7.45,4.95,8.59,8.56,8.59,8.56v.95h40.88c28.83,0,33.32,10.37,33.32,31.39s-22.84,62.81-22.84,62.81l-1.89,2.85-1.91.97-4.76,1.87-458.59,178.89-6.67,2.87-3.81.93-.96.93,492.12-1,79.71-377.65H191.9v1.91Z"/><path class="b" d="M560.12,168.75c-3.73,3.11-24.83,4.29-26.65,4.75l-3.81.95s-16.96,3.35-15.23,6.67,19.04,2.85,19.04,2.85c0,0,44.59-5.86,58.04-6.65s24.55-3.19,30.45,1.92c5.9,5.11-6.67,34.24-6.67,34.24l-.95,3.8,1.89,1.91s1.15.05,1.91-.96c15.18-20.32,23.47-44.57,18.08-50.43-5.39-5.86-19.29-8.95-23.77-9.52s-38.76,0-39.97,0-1.54,1.52-3.8,1.91-4.83,5.46-8.56,8.57Z"/><path class="b" d="M173.83,131.64l-62.8,291.12s125.07-63.81,184.59-91.35c59.52-27.54,148.42-71.46,178.87-82.75s107.44-30.91,113.23-32.35,14.54-4.44,14.54-8.49-.96-6.53-23.11-3.87c-74.58,8.95-200.75,60.89-200.75,60.89l-6.67,3.8-36.15-112.28h230.25s3.09-1.28.93-4.75c-2.16-3.47-39.15-19.99-92.28-19.99H173.83Z"/><path class="c" d="M759.21,24l-142.55,659.15H29.75L172.29,24h586.92M788.96,0H152.93l-4.09,18.93L6.29,678.08l-6.29,29.07h636.03l4.09-18.93L782.67,29.07l6.29-29.07h0Z"/></svg>