<?xml version="1.0" encoding="UTF-8"?>
<svg width="125px" height="50px" viewBox="0 0 125 50" version="1.1" xmlns="http://www.w3.org/2000/svg" xmlns:xlink="http://www.w3.org/1999/xlink">
    <title>lightstream-logo-dark</title>
    <g id="about" stroke="none" stroke-width="1" fill="none" fill-rule="evenodd">
        <g id="about-us-case-studies-6" transform="translate(-820.000000, -3876.000000)" fill="#FFFFFF" fill-rule="nonzero">
            <g id="results" transform="translate(250.000000, 3429.000000)">
                <g id="Group" transform="translate(485.000000, 430.000000)">
                    <g id="lightstream-logo-dark" transform="translate(85.000000, 17.000000)">
                        <path d="M119.950234,30.5587088 C118.233271,30.5057068 116.621395,31.3820633 115.734725,32.8506272 C114.982616,31.3807927 113.439776,30.4848559 111.787947,30.5587088 C110.162028,30.4989567 108.631063,31.3223128 107.786743,32.7105655 L107.786743,30.9067408 L105.451503,30.9067408 L105.451503,44.3662439 L107.786743,44.3662439 L107.786743,36.8844036 C107.786743,33.9762138 109.423793,32.7920559 111.224972,32.7920559 C112.969174,32.7929048 114.071312,33.9541435 114.071312,36.0762901 L114.071312,44.3670927 L116.406553,44.3670927 L116.406553,36.8844036 C116.406553,33.9762138 117.830148,32.7920559 119.710417,32.7920559 C121.480981,32.7920559 122.664759,33.9498992 122.664759,36.0745924 L122.664759,44.365395 L125,44.365395 L125,35.9964974 C124.99915,32.6299239 122.93264,30.5587088 119.950234,30.5587088" id="Fill_19"></path>
                        <path d="M96.0867288,44.7176714 C94.27481,44.7189883 92.5414451,43.9793619 91.2903862,42.6710731 C89.992995,41.317045 89.2765297,39.5108857 89.293611,37.6373412 C89.2766617,35.7640728 89.9931239,33.9582258 91.2903862,32.6044582 C92.5416483,31.2965655 94.2749568,30.55727 96.0867288,30.5587088 C98.1323884,30.4865713 100.063384,31.5010072 101.162008,33.2249739 L101.162008,30.9075897 L103.495547,30.9075897 L103.495547,44.3670927 L101.162008,44.3670927 L101.162008,42.0522552 C100.062572,43.7752426 98.1320204,44.7891227 96.0867288,44.7176714 Z M96.3826733,32.8183706 C95.1033079,32.7994682 93.8718428,33.3035981 92.9741902,34.2137154 C92.0765377,35.1238327 91.5907819,36.3607688 91.6297019,37.6373412 C91.5910106,38.9136931 92.0768966,40.1503245 92.9745499,41.060122 C93.8722033,41.9699194 95.1035391,42.4737416 96.3826733,42.4546142 C97.6652524,42.4773505 98.9013601,41.9755657 99.8039959,41.0657647 C100.706632,40.1559636 101.197275,38.9172905 101.162008,37.6373412 C101.197503,36.3571716 100.70699,35.1181942 99.8043549,34.2080735 C98.90172,33.2979527 97.6654834,32.79586 96.3826733,32.8183706 Z" id="Fill_12"></path>
                        <path d="M82.0327648,44.7168225 C80.0897593,44.7770005 78.2057803,44.0458704 76.8137658,42.6914457 C75.5089762,41.3353396 74.7976916,39.5171732 74.8365502,37.6373412 C74.7635464,35.7486762 75.479163,33.9144889 76.8126028,32.5725472 C78.1460425,31.2306054 79.9776726,30.5013049 81.8703355,30.5587088 C83.7254911,30.5365095 85.4994606,31.3169275 86.7347112,32.6986815 C87.9317201,34.0745323 88.5803254,35.8415637 88.5571513,37.6636558 C88.5573137,38.0154388 88.5308758,38.3667322 88.4780627,38.7145429 L77.2262173,38.7145429 C77.6366703,41.0338738 79.7331125,42.671055 82.0871914,42.5106388 C83.6322229,42.5770965 85.0992108,41.8307725 85.9531795,40.5438333 L87.9406002,41.6787573 C86.6422684,43.6565437 84.3998317,44.8097018 82.0327648,44.7168225 Z M81.8703355,32.7657413 C79.5346648,32.6464213 77.5052741,34.3527222 77.2262173,36.6704912 L86.1946975,36.6704912 C86.0200999,34.4295102 84.121637,32.7152637 81.8703355,32.7657413 L81.8703355,32.7657413 Z" id="Fill_18"></path>
                        <path d="M70.3693184,33.0611441 L70.3693184,30.7997847 L68.0332274,30.7997847 L68.0332274,44.2584388 L70.3693184,44.2584388 L70.3693184,37.128026 C70.3693184,33.9524457 72.5446808,32.9312688 74.5576139,33.0093638 L74.5576139,30.5587088 C72.7734779,30.4317763 71.1001232,31.4315773 70.3693184,33.0611441" id="Fill_17"></path>
                        <path d="M65.9071891,33.1901707 L65.9071891,30.9305089 L62.3354446,30.9305089 L62.3354446,27.1632741 L60.0010545,27.1632741 L60.0010545,30.9305089 L56.977828,30.9305089 C57.4469729,31.4201588 57.8381693,31.9786831 58.1377945,32.5866322 L58.4354399,33.1927172 L60.0010545,33.1927172 L60.0010545,40.4903552 C60.0010545,41.5565217 60.1541293,43.2177381 61.6168437,44.0097232 C63.2487907,44.8925363 65.9046378,44.3934074 65.9046378,44.3934074 L65.9046378,42.2899356 L65.1077986,42.3255876 C63.2581453,42.3977406 62.3354446,42.2890867 62.3354446,40.4903552 L62.3354446,33.1901707 L65.9071891,33.1901707 Z" id="Fill_20"></path>
                        <path d="M49.6200344,34.5415537 C49.6200344,33.3310812 50.8012613,32.737729 52.0097015,32.737729 C53.2327364,32.6652014 54.3745344,33.350915 54.883255,34.4634587 L56.8392103,33.3599424 C55.9191792,31.5618917 54.0311448,30.4665925 52.010552,30.5587088 C49.2960262,30.5587088 47.2558798,32.2004015 47.2558798,34.5704149 C47.2558798,39.4420148 54.7752522,37.7960778 54.7752522,40.6821973 C54.7752522,42.0021725 53.5395987,42.5140343 52.1168539,42.5140343 C50.661135,42.6365537 49.3009159,41.7793506 48.785777,40.4148068 L46.7728439,41.5675569 C47.5509739,43.4240108 49.4320926,44.7168225 52.1177043,44.7168225 C54.9904073,44.7168225 57.1351548,43.1829349 57.1351548,40.677953 C57.1351548,35.7265604 49.6174832,37.4208823 49.6174832,34.5415537" id="Fill_7"></path>
                        <path d="M45.2420962,42.6549448 C45.1868192,42.5437443 45.1221877,42.4410324 45.0720132,42.3264365 C43.2266119,42.3977406 42.3090137,42.2865402 42.3090137,40.4861109 L42.3090137,33.1901707 L45.5822624,33.1901707 C45.7990643,32.3518215 46.2130464,31.5771715 46.7898522,30.9305089 L42.3090137,30.9305089 L42.3090137,27.1632741 L39.9695211,27.1632741 L39.9695211,30.9305089 L36.5678597,30.9305089 C37.1592186,31.5883637 37.6146745,32.3562598 37.9081143,33.1901707 L39.9695211,33.1901707 L39.9695211,40.4835643 C39.9695211,43.8484401 41.8497894,44.9264906 45.8782069,44.3883142 L46.3884561,44.3034283 C45.9948625,43.8929677 45.6566557,43.432958 45.3824148,42.9350682 C45.3305394,42.8425426 45.2837666,42.7466215 45.2361433,42.6507005" id="Fill_21"></path>
                        <path d="M31.3480104,30.4356243 C29.5841266,30.3348945 27.9093346,31.2171582 26.9972855,32.7275427 L26.9972855,24.6166981 L24.6620449,24.6166981 L24.6620449,44.2431594 L26.9972855,44.2431594 L26.9972855,37.1127466 C26.9972855,33.9371663 28.7423378,32.6723669 30.8913373,32.6723669 C32.958697,32.6723669 34.2224142,33.9108517 34.2224142,36.1178842 L34.2224142,44.2465548 L36.5576548,44.2465548 L36.5576548,35.9803691 C36.5576548,32.5357006 34.4902951,30.4356243 31.3488608,30.4356243" id="Fill_22"></path>
                        <path d="M16.3024621,49.9984211 C13.2945431,49.9984211 11.0341391,48.8329382 9.9379537,46.7158847 L11.9789505,45.5580415 C12.7443243,47.1207903 14.0930831,47.8168544 16.3560383,47.8168544 C19.1224394,47.8168544 20.8411288,46.2388261 20.8411288,43.699041 L20.8411288,41.789109 C20.3197889,42.6039971 19.6049911,43.2778319 18.7601625,43.7508214 C17.8497581,44.243734 16.8278224,44.4950967 15.7922129,44.4808398 C13.9644271,44.4889104 12.2122466,43.7532751 10.939743,42.443579 C9.64512461,41.1064477 8.92863128,39.3151398 8.94466858,37.4556855 C8.9303471,35.6050737 9.64607571,33.8231439 10.9371917,32.4949554 C12.2106364,31.1861222 13.9626869,30.4506703 15.7905121,30.4576946 C17.8276915,30.3906652 19.7483266,31.4046041 20.839428,33.1231108 L20.839428,30.8065755 L23.1466048,30.8065755 L23.1466048,43.6998898 C23.2078908,45.5155799 22.4276868,47.2581966 21.0316218,48.4237883 C19.6843547,49.4773865 18.0136094,50.033682 16.3024621,49.9984211 L16.3024621,49.9984211 Z M16.0592433,32.6910418 C14.7837447,32.6612968 13.5515408,33.1535005 12.6487387,34.0533674 C11.7459366,34.9532344 11.2510758,36.1824805 11.2790587,37.4556855 C11.2474345,38.7323362 11.7402457,39.9663604 12.643057,40.8712065 C13.5458684,41.7760526 14.7801329,42.2729967 16.0592433,42.2466438 C17.3382077,42.2727617 18.5722486,41.7757139 19.4748729,40.8708943 C20.3774971,39.9660747 20.8701932,38.7321858 20.8385776,37.4556855 C20.8665517,36.1826313 20.3718061,34.9535208 19.4691912,34.0536804 C18.5665764,33.1538399 17.3345962,32.6615322 16.0592433,32.6910418 Z" id="Fill_9"></path>
                        <polygon id="Fill_16" points="5.10249206 44.8670705 7.43773259 44.8670705 7.43773259 31.4075675 5.10249206 31.4075675"></polygon>
                        <polygon id="Fill_14" points="0 44.2643808 2.33524053 44.2643808 2.33524053 24.6166981 0 24.6166981"></polygon>
                        <path d="M80.5768537,20.3724048 C81.1977284,20.4193532 81.6775,20.9358976 81.6775,21.5574115 C81.6775,22.1789253 81.1977284,22.6954697 80.5768537,22.7424182 L75.1682122,22.7424182 C74.5473375,22.6954697 74.0675659,22.1789253 74.0675659,21.5574115 C74.0675659,20.9358976 74.5473375,20.4193532 75.1682122,20.3724048 L80.5768537,20.3724048 Z M87.2177471,20.3724048 C87.8386218,20.4193532 88.3183934,20.9358976 88.3183934,21.5574115 C88.3183934,22.1789253 87.8386218,22.6954697 87.2177471,22.7424182 L86.224462,22.7424182 C85.6035874,22.6954697 85.1238157,22.1789253 85.1238157,21.5574115 C85.1238157,20.9358976 85.6035874,20.4193532 86.224462,20.3724048 L87.2177471,20.3724048 Z M67.2174541,0.261165465 C70.1763815,1.02624237 72.4612371,3.37397429 73.1416724,6.34841072 C75.6968944,6.9449528 77.4004602,9.3559178 77.1058792,11.9587394 C76.8112983,14.5615609 74.6118103,16.5324036 71.9876588,16.544901 L61.7826747,16.544901 C61.1618,16.4979526 60.6820284,15.9814082 60.6820284,15.3598943 C60.6820284,14.7383805 61.1618,14.2218361 61.7826747,14.1748876 L71.9876588,14.1748876 C73.5060027,14.1640662 74.7385757,12.9464096 74.7651208,11.431038 C74.7916659,9.9156664 73.6024933,8.65574265 72.0854565,8.59194418 L71.0649581,8.55629212 L70.9484512,7.54190601 C70.6801919,5.12386445 68.9315714,3.12844142 66.566335,2.54129252 C64.2010987,1.95414361 61.7197709,2.89951955 60.348024,4.91044414 L59.6676917,5.90360878 L58.6888636,5.20584695 C58.1454496,4.81528023 57.4926799,4.60531517 56.8230524,4.60570388 C55.0380037,4.61131968 53.5943106,6.05806595 53.5957262,7.8398554 C53.5957262,7.93068328 53.6033799,8.0206623 53.6101832,8.10979246 L53.6850198,9.02825754 L52.8158953,9.32790465 C50.293923,10.2038976 48.7716589,12.7667823 49.2118132,15.3957397 C49.6519674,18.0246972 51.926379,19.954247 54.596665,19.9641038 L69.5240055,19.9641038 C70.1448801,20.0110522 70.6246518,20.5275966 70.6246518,21.1491105 C70.6246518,21.7706243 70.1448801,22.2871687 69.5240055,22.3341172 L54.596665,22.334966 C50.9311792,22.3199646 47.7632255,19.7767655 46.9624839,16.2063278 C46.1617422,12.63589 47.9410478,8.98722786 51.2502806,7.41372835 C51.471981,4.50075592 53.8989013,2.24677262 56.8256036,2.23569048 C57.6013987,2.234934 58.3686655,2.39718807 59.0775035,2.71190019 C61.1191063,0.44128921 64.2585267,-0.503911435 67.2174541,0.261165465 Z" id="Combined-Shape"></path>
                    </g>
                </g>
            </g>
        </g>
    </g>
</svg>